<svg width="28" height="28" viewBox="0 0 28 28" fill="none" xmlns="http://www.w3.org/2000/svg">
<path d="M16.0934 6.37839C15.415 6.19245 14.7106 6.09817 14 6.09817C9.64287 6.09817 6.09814 9.6429 6.09814 14C6.09814 18.3571 9.64287 21.9019 14 21.9019C18.3571 21.9019 21.9018 18.3571 21.9018 14C21.9018 13.2894 21.8075 12.585 21.6216 11.9066C21.4939 11.4406 21.7681 10.9592 22.2342 10.8315C22.6999 10.7038 23.1816 10.978 23.3093 11.444C23.5365 12.2731 23.6518 13.1331 23.6518 14C23.6518 19.322 19.322 23.6519 14 23.6519C8.67797 23.6519 4.34814 19.322 4.34814 14C4.34814 8.678 8.67797 4.34817 14 4.34817C14.8669 4.34817 15.7268 4.4634 16.556 4.69068C16.9446 4.79721 17.1999 5.14973 17.1999 5.53418C17.1999 5.61069 17.1897 5.68845 17.1685 5.76584C17.0408 6.23188 16.5595 6.5063 16.0934 6.37839ZM26.3385 9.43033C25.8751 9.56754 25.6106 10.0543 25.7478 10.5177C26.081 11.6432 26.25 12.8148 26.25 14C26.25 20.7547 20.7547 26.25 14 26.25C7.24532 26.25 1.75 20.7547 1.75 14C1.75 7.24535 7.24532 1.75003 14 1.75003C15.1853 1.75003 16.3568 1.91896 17.4821 2.25211C17.9455 2.38938 18.4323 2.1248 18.5695 1.66149C18.594 1.57864 18.6057 1.49513 18.6057 1.41294C18.6058 1.03532 18.3594 0.686796 17.9789 0.574085C16.6922 0.193132 15.3536 3.06486e-05 14 3.06486e-05C10.2605 3.06486e-05 6.74471 1.4563 4.10046 4.10049C1.45627 6.7448 0 10.2605 0 14C0 17.7395 1.45627 21.2553 4.10046 23.8995C6.74466 26.5438 10.2605 28 14 28C17.7395 28 21.2552 26.5437 23.8995 23.8995C26.5437 21.2553 28 17.7395 28 14C28 12.6466 27.8068 11.3078 27.4259 10.021C27.2887 9.55759 26.8018 9.29334 26.3385 9.43033ZM18.4676 8.29508L18.9035 3.92298C18.9235 3.72184 19.0125 3.53393 19.1554 3.39103L22.2903 0.256296C22.5318 0.0148509 22.8915 -0.064063 23.2119 0.0541165C23.5322 0.172296 23.7546 0.466077 23.7813 0.806506L24.0299 3.97017L27.1935 4.21867C27.5339 4.24542 27.8277 4.46778 27.9459 4.78808C28.0641 5.10844 27.9851 5.46828 27.7437 5.70973L24.6089 8.84447C24.4661 8.98736 24.2781 9.0764 24.077 9.09641L19.705 9.53249L14.6187 14.6187C14.4478 14.7896 14.2239 14.875 14 14.875C13.776 14.875 13.5521 14.7896 13.3813 14.6187C13.0396 14.277 13.0396 13.723 13.3813 13.3813L18.4676 8.29508ZM20.284 7.7161L23.5924 7.38612L25.1638 5.81467L23.1476 5.6563C22.7184 5.62256 22.3776 5.28163 22.3438 4.8525L22.1854 2.83612L20.6139 4.40762L20.284 7.7161Z" fill="#222"/>
</svg>
