<svg width="21" height="20" viewBox="0 0 21 20" fill="none" xmlns="http://www.w3.org/2000/svg">
<path d="M15.7999 0H6.3999L6.7999 0.8L7.1999 1.6L10.7999 9.6L14.7999 18.3L15.1999 19.1L15.5999 19.9H15.9999C18.2999 19.9 20.1999 18 20.1999 15.7V4.2C19.9999 1.9 18.0999 0 15.7999 0Z" fill="#FE3C72"/>
<path d="M1.7 13.2L8.9 9.6L5.3 1.7L4.9 0.8L4.5 0H4.2C1.9 0 0 1.9 0 4.2V14.1L0.8 13.7L1.7 13.2Z" fill="#FE3C72"/>
<path d="M12.9 18.3001L9.6 11.1001L1.7 15.1001L0.9 15.5001L0 15.9001C0 18.2001 1.9 20.0001 4.2 20.0001H13.7L13.3 19.2001L12.9 18.3001Z" fill="#FE3C72"/>
</svg>
