<svg width="21" height="19" viewBox="0 0 21 19" fill="none" xmlns="http://www.w3.org/2000/svg">
    <path d="M6.81853 4.45864C6.81853 4.31928 6.7714 4.19952 6.70732 4.12294C6.6454 4.04936 6.58222 4.02973 6.53922 4.02973C6.49616 4.02973 6.43288 4.04941 6.37088 4.12322L6.81853 4.45864ZM6.81853 4.45864C6.81853 4.59811 6.77133 4.71796 6.70717 4.79453M6.81853 4.45864L6.70717 4.79453M6.70717 4.79453C6.23119 5.36178 5.85724 6.03074 5.60325 6.76148C5.3492 7.49238 5.21915 8.27349 5.21915 9.06082C5.21915 9.84815 5.3492 10.6293 5.60325 11.3602C5.85607 12.0875 6.22774 12.7537 6.70059 13.3193C6.7603 13.3984 6.80166 13.5157 6.79969 13.6488C6.79768 13.785 6.75091 13.9012 6.68825 13.9759C6.62757 14.0482 6.56553 14.0686 6.52301 14.0695C6.48201 14.0704 6.42358 14.0539 6.36438 13.9907L6.70717 4.79453ZM3.76542 0.617507L3.78094 0.635979C3.83739 0.712662 3.87743 0.824473 3.87743 0.952926C3.87743 1.09239 3.83022 1.21224 3.76607 1.28881L4.14922 1.60986L3.76627 1.28857C2.90403 2.31631 2.2237 3.53193 1.76069 4.86429C1.29767 6.19668 1.06006 7.62246 1.06006 9.06082C1.06006 10.4992 1.29767 11.925 1.76069 13.2574C2.22309 14.5879 2.90222 15.8021 3.76283 16.829C3.82481 16.907 3.86905 17.0256 3.868 17.162C3.86694 17.2999 3.81986 17.4179 3.7564 17.4935L4.1393 17.815L3.7564 17.4935C3.69502 17.5666 3.63233 17.5866 3.58953 17.587C3.54746 17.5874 3.48648 17.5693 3.42574 17.5006C-0.476311 12.8453 -0.475248 5.27095 3.42893 0.617273C3.49087 0.543657 3.55407 0.52401 3.59708 0.52401C3.64014 0.52401 3.70342 0.543699 3.76542 0.617507ZM17.3596 0.603858L17.3649 0.610659L17.3704 0.617273C21.2734 5.2695 21.2757 12.8407 17.3771 17.4976C17.3179 17.5609 17.2595 17.5773 17.2185 17.5765C17.176 17.5756 17.1139 17.5552 17.0532 17.4828C16.9906 17.4081 16.9438 17.2919 16.9418 17.1558C16.9398 17.0227 16.9812 16.9054 17.0409 16.8263C17.9001 15.8002 18.5782 14.5874 19.0401 13.2584C19.5032 11.9259 19.7409 10.5 19.7409 9.06144C19.7409 7.62292 19.5032 6.197 19.0401 4.86449C18.577 3.532 17.8965 2.3163 17.0341 1.28854L17.0285 1.28186L17.0227 1.27539C16.9906 1.23977 16.9608 1.1921 16.9387 1.13306C16.9166 1.07404 16.9039 1.00776 16.9029 0.938741C16.9019 0.869712 16.9126 0.802567 16.9331 0.742002C16.9537 0.68141 16.9825 0.631579 17.0143 0.59367C17.046 0.555914 17.0787 0.532067 17.1076 0.518173C17.136 0.504505 17.1623 0.499534 17.1861 0.500034C17.2099 0.500535 17.2367 0.506649 17.2657 0.522071C17.2952 0.537737 17.3282 0.563798 17.3596 0.603858ZM14.4397 4.13742L14.4608 4.1608C15.5294 5.45443 16.1399 7.21332 16.1399 9.06082C16.1399 10.9264 15.5174 12.7016 14.4293 13.9987L14.4293 13.9986L14.4237 14.0054C14.3926 14.0439 14.3601 14.0687 14.3312 14.0836L14.5593 14.5285L14.3312 14.0836C14.3027 14.0982 14.2763 14.1039 14.2528 14.1042C14.2292 14.1044 14.2031 14.0993 14.175 14.0856C14.1464 14.0716 14.114 14.0479 14.0827 14.0106C14.0513 13.9732 14.0227 13.9241 14.0022 13.8644C13.9816 13.8047 13.9706 13.7385 13.9711 13.6702C13.9716 13.602 13.9835 13.5362 14.0047 13.4772C14.0259 13.4182 14.055 13.3701 14.0866 13.3337L14.0866 13.3337L14.092 13.3274C14.5679 12.7601 14.9418 12.0911 15.1957 11.3603C15.4497 10.6296 15.5797 9.84861 15.5797 9.06144C15.5797 8.27427 15.4497 7.49331 15.1957 6.76254C14.943 6.03528 14.5715 5.36919 14.0988 4.80365C14.0391 4.72448 13.9977 4.60719 13.9997 4.47407C14.0017 4.33792 14.0484 4.2217 14.1111 4.14701C14.1718 4.07468 14.2338 4.05427 14.2763 4.05337C14.3184 4.05249 14.3789 4.06986 14.4397 4.13742ZM10.3997 7.70197C10.6496 7.70197 10.9114 7.81965 11.1197 8.06796C11.3302 8.31887 11.4597 8.67527 11.4597 9.06144C11.4597 9.44761 11.3302 9.80401 11.1197 10.0549C10.9114 10.3032 10.6496 10.4209 10.3997 10.4209C10.1497 10.4209 9.88797 10.3032 9.67965 10.0549C9.46915 9.80401 9.33969 9.44761 9.33969 9.06144C9.33969 8.67527 9.46915 8.31887 9.67965 8.06796C9.88797 7.81965 10.1497 7.70197 10.3997 7.70197Z" fill="black" stroke="black" opacity="0.5" />
</svg>