<svg width="21" height="19" viewBox="0 0 21 19" fill="none" xmlns="http://www.w3.org/2000/svg">
    <path d="M0.623981 6.02901H2.07994C2.19433 6.02901 2.28793 5.94423 2.28793 5.8406V1.69566H6.86379C6.97818 1.69566 7.07178 1.61088 7.07178 1.50725V0.188407C7.07178 0.0847829 6.97818 0 6.86379 0H2.18393C1.20636 0 0.415987 0.715945 0.415987 1.60146V5.8406C0.415987 5.94423 0.509584 6.02901 0.623981 6.02901ZM13.9356 1.69566H18.5114V5.8406C18.5114 5.94423 18.605 6.02901 18.7194 6.02901H20.1754C20.2898 6.02901 20.3834 5.94423 20.3834 5.8406V1.60146C20.3834 0.715945 19.593 0 18.6154 0H13.9356C13.8212 0 13.7276 0.0847829 13.7276 0.188407V1.50725C13.7276 1.61088 13.8212 1.69566 13.9356 1.69566ZM6.86379 16.3914H2.28793V12.2464C2.28793 12.1428 2.19433 12.058 2.07994 12.058H0.623981C0.509584 12.058 0.415987 12.1428 0.415987 12.2464V16.4856C0.415987 17.3711 1.20636 18.087 2.18393 18.087H6.86379C6.97818 18.087 7.07178 18.0022 7.07178 17.8986V16.5798C7.07178 16.4762 6.97818 16.3914 6.86379 16.3914ZM20.1754 12.058H18.7194C18.605 12.058 18.5114 12.1428 18.5114 12.2464V16.3914H13.9356C13.8212 16.3914 13.7276 16.4762 13.7276 16.5798V17.8986C13.7276 18.0022 13.8212 18.087 13.9356 18.087H18.6154C19.593 18.087 20.3834 17.3711 20.3834 16.4856V12.2464C20.3834 12.1428 20.2898 12.058 20.1754 12.058ZM20.5914 8.19568H0.207994C0.0935971 8.19568 0 8.28047 0 8.38409V9.70294C0 9.80656 0.0935971 9.89134 0.207994 9.89134H20.5914C20.7058 9.89134 20.7994 9.80656 20.7994 9.70294V8.38409C20.7994 8.28047 20.7058 8.19568 20.5914 8.19568Z" fill="black" />
    <path d="M2.28793 1.19566H1.78793V1.69566V5.52901H0.915987V1.60146C0.915987 1.03747 1.43483 0.5 2.18393 0.5H6.57178V1.19566H2.28793ZM19.0114 1.69566V1.19566H18.5114H14.2276V0.5H18.6154C19.3645 0.5 19.8834 1.03747 19.8834 1.60146V5.52901H19.0114V1.69566ZM1.78793 16.3914V16.8914H2.28793H6.57178V17.587H2.18393C1.43483 17.587 0.915987 17.0496 0.915987 16.4856V12.558H1.78793V16.3914ZM18.5114 16.8914H19.0114V16.3914V12.558H19.8834V16.4856C19.8834 17.0496 19.3645 17.587 18.6154 17.587H14.2276V16.8914H18.5114ZM0.5 8.69568H20.2994V9.39134H0.5V8.69568Z" stroke="black" />
</svg>