<svg width="148" height="91" viewBox="0 0 148 91" fill="none" xmlns="http://www.w3.org/2000/svg">
  <path d="M145.275 40.84L147.185 44.3728L146.008 44.3911L145.152 42.4813L140.023 41.7427L139.407 41.2503L142.279 41.1272L143.223 39.6501L136.904 41.3734L132.637 35.5468L136.125 34.4389L133.252 34.6441L130.749 31.8539L134.853 30.787L128.41 31.5667L124.471 27.7506L127.015 26.3145L126.318 26.1914L124.266 27.4634L121.763 27.2172L121.435 25.699L120.984 25.7811L121.804 24.0577L123.076 25.4938L123.487 25.3297L121.681 23.196L125.251 22.4985L127.344 25.0015L127.713 24.6322L126.277 22.7036L131.201 22.7857L134.114 26.3145L132.678 22.8267L136.904 25.1246L136.781 26.889L137.684 31.0332L137.848 25.6169L141.623 28.8995L142.813 33.7824L142.567 30.0074L146.137 32.6335L146.342 35.9982L146.301 36.9009L145.275 40.84Z" fill="black"/>
  <path d="M146.74 44.3827C142.621 35.1934 133.946 25.6461 123.283 25.3367C133.859 25.5368 142.251 35.493 146.38 44.3827H146.74Z" fill="url(#paint0_linear_2_117)"/>
  <path d="M20.13 61.6585C16.3167 61.6585 12.87 60.8151 9.79 59.1285C6.74667 57.4418 4.345 55.1135 2.585 52.1435C0.861666 49.1368 0 45.7818 0 42.0785C0 38.3751 0.861666 35.0385 2.585 32.0685C4.345 29.0618 6.765 26.7151 9.845 25.0285C12.925 23.3418 16.3717 22.4985 20.185 22.4985C23.045 22.4985 25.685 22.9751 28.105 23.9285C30.525 24.8818 32.5783 26.2751 34.265 28.1085L33.68 28.6935C30.6733 25.6501 26.8783 24.1285 22.295 24.1285C19.2517 24.1285 15.4833 24.8251 12.99 26.2185C10.4967 27.6118 7.535 30.5185 6.105 32.9385C4.71167 35.3585 4.015 39.0718 4.015 42.0785C4.015 45.0851 4.71167 47.7985 6.105 50.2185C7.535 52.6385 9.49667 54.5451 11.99 55.9385C14.4833 57.3318 17.2517 58.0285 20.295 58.0285C24.915 58.0285 28.71 56.4885 31.68 53.4085L34.265 55.9935C32.5783 57.8268 30.5067 59.2385 28.05 60.2285C25.63 61.1818 22.99 61.6585 20.13 61.6585Z" fill="black"/>
  <path d="M28.9856 71.8125C28.9856 69.7812 29.4388 67.9062 30.345 66.1875C31.22 64.5 32.345 62.9531 33.72 61.5469C35.1263 60.1719 36.6731 58.9375 38.3606 57.8438C40.0794 56.75 41.7513 55.7969 43.3763 54.9844L44.7356 50.625C44.5794 50.8125 44.2669 51.125 43.7981 51.5625C43.3606 52 42.8919 52.4688 42.3919 52.9688C41.8919 53.4375 41.4075 53.8906 40.9388 54.3281C40.47 54.7344 40.1419 55.0156 39.9544 55.1719C39.5794 55.4844 39.1263 55.8438 38.595 56.25C38.0638 56.6562 37.4856 57.0469 36.8606 57.4219C36.2669 57.7656 35.6575 58.0625 35.0325 58.3125C34.4075 58.5312 33.845 58.6406 33.345 58.6406C32.6575 58.6406 32.2044 58.4844 31.9856 58.1719C31.7981 57.8281 31.7044 57.3438 31.7044 56.7188C31.7044 56.2188 31.7356 55.7031 31.7981 55.1719C31.8919 54.6406 31.8763 54.1094 31.7513 53.5781L33.5794 48.6094C33.8606 48.3281 34.1263 47.8906 34.3763 47.2969C34.6575 46.7031 34.9231 46.1094 35.1731 45.5156C35.4544 44.9219 35.7356 44.4062 36.0169 43.9688C36.3294 43.5312 36.6575 43.3125 37.0013 43.3125C37.3763 43.3125 37.6888 43.4219 37.9388 43.6406C38.22 43.8594 38.3606 44.1719 38.3606 44.5781C38.3606 44.8906 38.3138 45.1719 38.22 45.4219C38.1575 45.6406 38.0481 45.9375 37.8919 46.3125C37.4856 47.1562 37.0794 47.9531 36.6731 48.7031C36.2981 49.4531 35.9388 50.2031 35.595 50.9531C35.2825 51.7031 35.0169 52.4844 34.7981 53.2969C34.6106 54.0781 34.5169 54.9531 34.5169 55.9219H34.7044C34.7044 55.9219 34.7981 55.875 34.9856 55.7812C35.1731 55.6562 35.3763 55.5312 35.595 55.4062C35.845 55.25 36.095 55.0938 36.345 54.9375C36.595 54.7812 36.8138 54.6406 37.0013 54.5156C38.72 53.3906 40.2356 52.0781 41.5481 50.5781C42.8606 49.0469 44.1575 47.4688 45.4388 45.8438C45.5638 45.6562 45.6731 45.5156 45.7669 45.4219C45.8606 45.3281 45.9388 45.2656 46.0013 45.2344C46.0638 45.1719 46.1419 45.1406 46.2356 45.1406C46.3294 45.1406 46.47 45.1406 46.6575 45.1406C47.095 45.1406 47.4388 45.2344 47.6888 45.4219C47.97 45.5781 48.1419 45.9531 48.2044 46.5469C48.2356 46.9531 48.2044 47.4531 48.1106 48.0469C48.0169 48.6094 47.8919 49.1719 47.7356 49.7344C47.5794 50.2969 47.4075 50.8594 47.22 51.4219C47.0638 51.9531 46.9231 52.375 46.7981 52.6875V53.3906C46.8606 53.3594 47.0013 53.3125 47.22 53.25C47.47 53.1875 47.6419 53.1406 47.7356 53.1094C47.9231 53.0781 48.4388 52.9062 49.2825 52.5938C50.1263 52.2812 51.0325 51.9531 52.0013 51.6094C53.0013 51.2344 53.9231 50.8906 54.7669 50.5781C55.6106 50.2656 56.1419 50.0625 56.3606 49.9688H56.4544C56.6731 49.9688 56.8606 50.0469 57.0169 50.2031C57.2044 50.3594 57.2981 50.5469 57.2981 50.7656C57.2981 50.9844 57.22 51.1719 57.0638 51.3281C56.9388 51.4844 56.7825 51.625 56.595 51.75C56.4075 51.8438 56.2044 51.9375 55.9856 52.0312C55.7669 52.125 55.5794 52.2031 55.4231 52.2656C55.2044 52.3906 54.8919 52.5469 54.4856 52.7344C54.0794 52.8906 53.6106 53.0781 53.0794 53.2969C52.5794 53.4844 52.0481 53.7031 51.4856 53.9531C50.9231 54.2031 50.3763 54.4375 49.845 54.6562C48.5638 55.1875 47.1731 55.75 45.6731 56.3438L41.5481 71.9062C41.3606 72.6562 41.0013 73.4375 40.47 74.25C39.97 75.0625 39.3763 75.8125 38.6888 76.5C38.0013 77.1875 37.2356 77.7344 36.3919 78.1406C35.5794 78.5781 34.7513 78.7969 33.9075 78.7969C33.0325 78.7969 32.2825 78.5625 31.6575 78.0938C31.0325 77.6562 30.5169 77.0781 30.1106 76.3594C29.7044 75.6719 29.4231 74.9219 29.2669 74.1094C29.0794 73.2969 28.9856 72.5312 28.9856 71.8125ZM31.5169 71.8125C31.5169 72.2188 31.5481 72.6719 31.6106 73.1719C31.7044 73.6719 31.8606 74.1562 32.0794 74.625C32.2981 75.0938 32.5638 75.4844 32.8763 75.7969C33.22 76.1094 33.6575 76.2656 34.1888 76.2656C34.8763 76.2656 35.5013 76.0469 36.0638 75.6094C36.6575 75.2031 37.1731 74.6875 37.6106 74.0625C38.0794 73.4688 38.47 72.8281 38.7825 72.1406C39.095 71.4531 39.345 70.8438 39.5325 70.3125C39.6263 69.9375 39.7669 69.4062 39.9544 68.7188C40.1419 68.0625 40.3138 67.4062 40.47 66.75C40.6575 66.0938 40.8138 65.5 40.9388 64.9688C41.0638 64.4688 41.1263 64.1719 41.1263 64.0781V63.8906L42.4856 57.9844C41.2356 58.3906 39.9544 59.0781 38.6419 60.0469C37.3606 61.0156 36.1888 62.1406 35.1263 63.4219C34.0638 64.7031 33.1888 66.0781 32.5013 67.5469C31.845 69.0156 31.5169 70.4375 31.5169 71.8125ZM53.5481 54.4219C54.4231 53.7656 55.0638 53.125 55.47 52.5C55.9075 51.875 56.2513 51.25 56.5013 50.625C56.7513 50 56.9544 49.3438 57.1106 48.6562C57.2669 47.9375 57.5169 47.1562 57.8606 46.3125C57.7356 46.0938 57.6575 45.9062 57.6263 45.75C57.6263 45.5625 57.6263 45.3438 57.6263 45.0938C57.6263 44.8438 57.6575 44.5469 57.72 44.2031C57.8138 43.8594 57.9388 43.5469 58.095 43.2656C58.2513 42.9531 58.4388 42.6875 58.6575 42.4688C58.8763 42.25 59.1419 42.1406 59.4544 42.1406C59.4231 42.2656 59.595 42.4062 59.97 42.5625C60.3763 42.7188 60.8606 42.8906 61.4231 43.0781C62.0169 43.2656 62.6419 43.4688 63.2981 43.6875C63.9544 43.9062 64.5325 44.1406 65.0325 44.3906C65.595 44.7031 65.9856 45.0469 66.2044 45.4219C66.4544 45.7656 66.5794 46.2656 66.5794 46.9219C66.5794 47.5156 66.5013 48.1875 66.345 48.9375C66.22 49.6875 66.0794 50.4531 65.9231 51.2344C65.7981 51.9844 65.6575 52.75 65.5013 53.5312C65.3763 54.2812 65.3138 54.9688 65.3138 55.5938V56.8125C65.2825 57.0938 65.345 57.25 65.5013 57.2812C65.6888 57.2812 65.8606 57.2812 66.0169 57.2812C66.3919 57.2812 66.7356 57.2188 67.0481 57.0938C67.3606 56.9688 67.6731 56.8281 67.9856 56.6719C68.3294 56.5156 68.6575 56.375 68.97 56.25C69.2825 56.0938 69.6106 55.9844 69.9544 55.9219L74.0794 53.3906C74.2044 53.1719 74.3606 53 74.5481 52.875C74.7669 52.7188 74.97 52.5781 75.1575 52.4531C75.47 52.2656 75.845 52 76.2825 51.6562C76.5013 51.4688 76.7356 51.2812 76.9856 51.0938H78.3919C78.4856 51.0938 78.5481 51.1875 78.5794 51.375C78.6106 51.5625 78.6263 51.7031 78.6263 51.7969C78.6263 52.1719 78.3606 52.6406 77.8294 53.2031C77.2981 53.7656 76.6106 54.3438 75.7669 54.9375C74.9231 55.5312 73.9856 56.125 72.9544 56.7188C71.9231 57.2812 70.9075 57.7969 69.9075 58.2656C68.9388 58.7344 68.0325 59.1094 67.1888 59.3906C66.3763 59.6719 65.7513 59.8125 65.3138 59.8125C64.7513 59.8125 64.2981 59.6719 63.9544 59.3906C63.6106 59.1094 63.3294 58.7656 63.1106 58.3594C62.8919 57.9531 62.7356 57.5156 62.6419 57.0469C62.5794 56.5469 62.5481 56.0625 62.5481 55.5938C62.5481 55.25 62.6575 54.7656 62.8763 54.1406C63.095 53.5156 63.345 52.875 63.6263 52.2188C63.9075 51.5625 64.1575 50.9219 64.3763 50.2969C64.595 49.6719 64.7044 49.1719 64.7044 48.7969C64.7044 48.7656 64.47 48.6406 64.0013 48.4219C63.5638 48.2031 63.0794 47.9688 62.5481 47.7188C62.0169 47.4375 61.5169 47.2031 61.0481 47.0156C60.6106 46.7969 60.3919 46.6719 60.3919 46.6406C59.7044 47.3594 59.22 48.125 58.9388 48.9375C58.6888 49.75 58.4231 50.5938 58.1419 51.4688C57.8919 52.3438 57.5013 53.2188 56.97 54.0938C56.47 54.9688 55.6106 55.8281 54.3919 56.6719C54.3606 56.6719 54.2981 56.6562 54.2044 56.625C54.0794 56.5938 53.97 56.5156 53.8763 56.3906C53.7513 56.2344 53.6575 56.0156 53.595 55.7344C53.5325 55.4219 53.5169 54.9844 53.5481 54.4219ZM76.8919 58.5938C76.8919 58.5 76.8919 58.2656 76.8919 57.8906C76.8919 57.5156 76.8919 57.2656 76.8919 57.1406C76.3606 55.2656 76.2825 53.4219 76.6575 51.6094C77.0638 49.7969 77.7669 48.1719 78.7669 46.7344C79.7981 45.2656 81.095 44.0469 82.6575 43.0781C84.2513 42.0781 85.9856 41.4688 87.8606 41.25H88.7044C89.3919 41.25 89.9544 41.4062 90.3919 41.7188C90.8606 42 91.22 42.375 91.47 42.8438C91.7513 43.3125 91.9388 43.8438 92.0325 44.4375C92.1575 45.0312 92.22 45.625 92.22 46.2188C92.22 47.0312 92.1263 47.8281 91.9388 48.6094C91.7825 49.3594 91.595 50.125 91.3763 50.9062C91.1888 51.6875 91.0013 52.4688 90.8138 53.25C90.6575 54 90.5794 54.7969 90.5794 55.6406V55.9219C90.6106 55.9844 90.6419 56.1719 90.6731 56.4844C90.7356 56.7656 90.7825 56.9375 90.8138 57C90.8763 57 91.0325 57.0156 91.2825 57.0469C91.5325 57.0469 91.6888 57.0469 91.7513 57.0469C92.0638 57.0469 92.3606 57.0469 92.6419 57.0469C92.9544 57.0156 93.2669 56.9375 93.5794 56.8125L102.486 52.6875C102.517 52.6875 102.564 52.6875 102.626 52.6875C102.72 52.6562 102.783 52.6406 102.814 52.6406C103.126 52.6406 103.376 52.7344 103.564 52.9219C103.783 53.1094 103.892 53.3594 103.892 53.6719C103.892 53.8281 103.876 53.9844 103.845 54.1406C103.845 54.2656 103.767 54.3906 103.611 54.5156C103.392 54.6719 102.986 54.8906 102.392 55.1719C101.829 55.4531 101.22 55.7656 100.564 56.1094C99.9075 56.4531 99.2825 56.7812 98.6888 57.0938C98.1263 57.4062 97.72 57.6094 97.47 57.7031C97.0325 57.9531 96.5481 58.1875 96.0169 58.4062C95.4856 58.5938 94.9388 58.7812 94.3763 58.9688C93.8138 59.1562 93.2513 59.3125 92.6888 59.4375C92.1575 59.5312 91.6731 59.5781 91.2356 59.5781C90.5481 59.5781 89.9856 59.4688 89.5481 59.25C89.1106 59 88.7825 58.6875 88.5638 58.3125C88.345 57.9062 88.1888 57.4375 88.095 56.9062C88.0325 56.3438 88.0325 55.7656 88.095 55.1719C87.47 55.6719 86.7981 56.2031 86.0794 56.7656C85.3606 57.3281 84.6106 57.8438 83.8294 58.3125C83.0481 58.7812 82.2513 59.1875 81.4388 59.5312C80.6263 59.875 79.7981 60.0469 78.9544 60.0469C78.4856 60.0469 78.0638 59.9375 77.6888 59.7188C77.3138 59.4688 77.0481 59.0938 76.8919 58.5938ZM79.4231 57.6094C80.1419 57.6094 80.9388 57.4062 81.8138 57C82.6888 56.5625 83.5481 56.0312 84.3919 55.4062C85.2356 54.7812 86.0013 54.125 86.6888 53.4375C87.3763 52.7188 87.9075 52.0781 88.2825 51.5156C88.3138 50.5781 88.4388 49.6875 88.6575 48.8438C88.9075 47.9688 89.0325 47.0781 89.0325 46.1719C89.0325 46.1094 89.0169 46.0156 88.9856 45.8906C88.9856 45.7656 88.9856 45.6719 88.9856 45.6094C88.5794 45.2656 88.2356 45.0625 87.9544 45C87.6731 44.9375 87.2981 44.9062 86.8294 44.9062C86.7669 44.9062 86.6263 44.9062 86.4075 44.9062C86.22 44.9062 86.095 44.9219 86.0325 44.9531C85.845 45.1094 85.5325 45.4062 85.095 45.8438C84.6575 46.25 84.1888 46.7031 83.6888 47.2031C83.22 47.7031 82.7669 48.1719 82.3294 48.6094C81.9231 49.0469 81.6419 49.3438 81.4856 49.5C81.4544 49.5 81.3919 49.5625 81.2981 49.6875C81.2044 49.7812 81.095 49.9062 80.97 50.0625C80.8763 50.2188 80.7825 50.375 80.6888 50.5312C80.6263 50.6562 80.5794 50.7656 80.5481 50.8594L79.4231 56.3438V57.6094ZM101.829 59.0625L103.423 49.6875V48.375L104.361 42.1406C104.454 42.0156 104.626 41.9531 104.876 41.9531C105.126 41.9219 105.298 41.9062 105.392 41.9062C105.642 41.9062 105.923 42 106.236 42.1875C106.579 42.3438 106.751 42.5625 106.751 42.8438V46.0312C106.876 45.9375 107.095 45.75 107.408 45.4688C107.72 45.1875 108.048 44.8906 108.392 44.5781C108.767 44.2656 109.111 43.9688 109.423 43.6875C109.736 43.4062 109.939 43.2031 110.033 43.0781C110.376 42.7656 110.783 42.5 111.251 42.2812C111.751 42.0625 112.22 41.9531 112.658 41.9531C113.564 41.9531 114.267 42.2344 114.767 42.7969C115.298 43.3594 115.564 44.0781 115.564 44.9531C115.564 45.0156 115.548 45.0625 115.517 45.0938C115.517 45.0938 115.517 45.125 115.517 45.1875V45.375L113.736 53.3906V57.1875C114.704 57.1875 115.704 57 116.736 56.625C117.798 56.2188 118.814 55.7188 119.783 55.125C120.751 54.5312 121.658 53.8594 122.501 53.1094C123.345 52.3281 124.079 51.5781 124.704 50.8594H124.892C125.111 50.8594 125.283 50.9375 125.408 51.0938C125.564 51.2188 125.642 51.3906 125.642 51.6094C125.642 52.2969 125.408 52.9844 124.939 53.6719C124.501 54.3281 123.923 54.9531 123.204 55.5469C122.517 56.1406 121.704 56.7031 120.767 57.2344C119.861 57.7656 118.954 58.2188 118.048 58.5938C117.173 58.9688 116.314 59.2656 115.47 59.4844C114.626 59.7031 113.908 59.8125 113.314 59.8125C112.72 59.8125 112.251 59.7031 111.908 59.4844C111.564 59.2656 111.298 58.9844 111.111 58.6406C110.954 58.2656 110.845 57.8594 110.783 57.4219C110.751 56.9844 110.736 56.5156 110.736 56.0156V55.4062L112.564 46.3125V44.7656C111.814 44.7656 111.064 45.0938 110.314 45.75C109.595 46.4062 108.939 47.2031 108.345 48.1406C107.783 49.0781 107.283 50.0312 106.845 51C106.439 51.9688 106.142 52.7656 105.954 53.3906C105.892 53.6094 105.798 54 105.673 54.5625C105.548 55.125 105.423 55.7188 105.298 56.3438C105.204 56.9688 105.111 57.5625 105.017 58.125C104.923 58.6875 104.861 59.0938 104.829 59.3438C104.861 59.5312 104.798 59.6719 104.642 59.7656C104.517 59.8594 104.361 59.9375 104.173 60C103.986 60.0312 103.783 60.0469 103.564 60.0469C103.376 60.0469 103.22 60.0469 103.095 60.0469C102.814 60.0469 102.533 60 102.251 59.9062C101.97 59.8125 101.829 59.5781 101.829 59.2031V59.0625ZM123.767 56.3438C123.767 56.3125 123.783 56.2031 123.814 56.0156C123.845 55.8281 123.876 55.6406 123.908 55.4531C123.939 55.2344 123.97 55.0469 124.001 54.8906C124.033 54.7031 124.048 54.5781 124.048 54.5156V54.3281V54.0469L124.704 51.0938C125.236 49.9688 125.783 48.8906 126.345 47.8594C126.939 46.8281 127.611 45.9219 128.361 45.1406C129.111 44.3594 129.97 43.7344 130.939 43.2656C131.939 42.7969 133.142 42.5625 134.548 42.5625C134.829 42.5625 135.173 42.6562 135.579 42.8438C136.017 43 136.439 43.2031 136.845 43.4531C137.283 43.7031 137.673 43.9688 138.017 44.25C138.392 44.5 138.673 44.7344 138.861 44.9531C139.829 44.7969 140.533 44.7188 140.97 44.7188C141.408 44.6875 141.783 44.6719 142.095 44.6719C142.408 44.6406 142.736 44.5781 143.079 44.4844C143.454 44.3906 144.017 44.1875 144.767 43.875C145.298 43.7188 145.814 43.6406 146.314 43.6406C146.533 43.6406 146.736 43.7344 146.923 43.9219C147.142 44.1094 147.251 44.3281 147.251 44.5781C147.251 44.8906 147.142 45.1719 146.923 45.4219C146.704 45.6719 146.439 45.8281 146.126 45.8906L140.267 47.2031L139.751 47.4375C139.72 49.125 139.345 50.7344 138.626 52.2656C137.908 53.7969 136.954 55.1406 135.767 56.2969C134.579 57.4531 133.204 58.375 131.642 59.0625C130.079 59.7188 128.454 60.0469 126.767 60.0469C126.642 60.0469 126.439 60.0312 126.158 60C125.876 60 125.689 60 125.595 60C124.908 59.7188 124.423 59.2031 124.142 58.4531C123.892 57.7031 123.767 57 123.767 56.3438ZM126.767 57.2812C126.798 57.4375 126.923 57.5156 127.142 57.5156C127.361 57.5156 127.517 57.5156 127.611 57.5156C128.736 57.5156 129.892 57.2344 131.079 56.6719C132.267 56.0781 133.329 55.3281 134.267 54.4219C135.236 53.4844 136.017 52.4375 136.611 51.2812C137.236 50.0938 137.548 48.9062 137.548 47.7188C136.548 47.7188 135.548 47.6406 134.548 47.4844C133.548 47.2969 132.579 47.2031 131.642 47.2031H131.595L127.704 51.3281C127.486 51.5469 127.314 51.8438 127.189 52.2188C127.064 52.5938 126.97 53 126.908 53.4375C126.845 53.875 126.798 54.3125 126.767 54.75C126.736 55.1875 126.72 55.5781 126.72 55.9219C126.72 56.0156 126.72 56.2344 126.72 56.5781C126.72 56.9219 126.736 57.1562 126.767 57.2812Z" fill="black"/>
  <defs>
    <linearGradient id="paint0_linear_2_117" x1="135.686" y1="21.6852" x2="135.686" y2="41.2247" gradientUnits="userSpaceOnUse">
      <stop stop-color="#36BAAF"/>
      <stop offset="1" stop-color="#4CE2D6"/>
    </linearGradient>
  </defs>
</svg>
