<svg width="215" height="70" viewBox="0 0 214 80" fill="none" xmlns="http://www.w3.org/2000/svg">
<g filter="url(#filter0_f_831_385)">
<path d="M187.623 43.9699L184.832 38.8066L186.331 33.0494L186.391 31.7301L186.091 26.8125L180.876 22.9744L181.236 28.4917L179.498 21.3552L173.983 16.5575L173.744 24.4736L172.425 18.4166L172.605 15.8379L166.431 12.4795L168.529 17.577L164.273 12.4195L157.081 12.2996L159.179 15.1182L158.639 15.658L155.582 11.9998L150.368 13.0193L153.005 16.1377L152.406 16.3776L150.548 14.2786L149.349 16.7974L150.008 16.6775L150.488 18.8964L154.144 19.2562L157.141 17.3971L158.16 17.577L154.444 19.676L160.198 25.2533L169.608 24.1138L163.614 25.6731L167.27 29.7511L171.466 29.4512L166.371 31.0704L172.605 39.5862L181.835 37.0675L180.457 39.2264L176.261 39.4063L177.16 40.126L184.652 41.2054L185.902 43.9966L187.623 43.9699Z" fill="#FE3C72"/>
</g>
<path d="M187.623 43.9699L184.832 38.8066L186.331 33.0494L186.391 31.7301L186.091 26.8125L180.876 22.9744L181.236 28.4917L179.498 21.3552L173.983 16.5575L173.744 24.4736L172.425 18.4166L172.605 15.8379L166.431 12.4795L168.529 17.577L164.273 12.4195L157.081 12.2996L159.179 15.1182L158.639 15.658L155.582 11.9998L150.368 13.0193L153.005 16.1377L152.406 16.3776L150.548 14.2786L149.349 16.7974L150.008 16.6775L150.488 18.8964L154.144 19.2562L157.141 17.3971L158.16 17.577L154.444 19.676L160.198 25.2533L169.608 24.1138L163.614 25.6731L167.27 29.7511L171.466 29.4512L166.371 31.0704L172.605 39.5862L181.835 37.0675L180.457 39.2264L176.261 39.4063L177.16 40.126L184.652 41.2054L185.902 43.9966L187.623 43.9699Z" fill="white"/>
<path d="M186.972 43.9846C180.956 30.5541 168.283 16.6004 152.708 16.1482C168.157 16.4405 180.414 30.992 186.446 43.9846H186.972Z" fill="black"/>
<path d="M54.7536 65.2336C49.1833 65.2336 44.1486 64.001 39.6495 61.5359C35.204 59.0708 31.6958 55.6678 29.1249 51.3271C26.6075 46.9327 25.3489 42.0292 25.3489 36.6167C25.3489 31.2041 26.6075 26.3274 29.1249 21.9867C31.6958 17.5923 35.2308 14.1626 39.7299 11.6974C44.229 9.23232 49.2637 7.99976 54.834 7.99976C59.0117 7.99976 62.868 8.69642 66.403 10.0898C69.938 11.4831 72.9374 13.5195 75.4012 16.199L74.5467 17.054C70.1547 12.606 64.6112 10.3821 57.9161 10.3821C53.4706 10.3821 47.966 11.4003 44.3239 13.4367C40.6818 15.4731 36.3556 19.7213 34.2667 23.2582C32.2314 26.7951 31.2138 32.2223 31.2138 36.6167C31.2138 41.011 32.2314 44.9767 34.2667 48.5136C36.3556 52.0505 39.2211 54.8372 42.8632 56.8736C46.5053 58.91 50.5491 59.9282 54.9946 59.9282C61.7433 59.9282 67.2868 57.6774 71.6252 53.1759L75.4012 56.954C72.9374 59.6335 69.9112 61.6967 66.3227 63.1436C62.7877 64.5369 58.9313 65.2336 54.7536 65.2336Z" fill="white"/>
<path d="M68.8619 71.8125C68.8619 69.7812 69.3151 67.9062 70.2213 66.1875C71.0963 64.5 72.2213 62.9531 73.5963 61.5469C75.0026 60.1719 76.5494 58.9375 78.2369 57.8438C79.9557 56.75 81.6276 55.7969 83.2526 54.9844L84.6119 50.625C84.4557 50.8125 84.1432 51.125 83.6744 51.5625C83.2369 52 82.7682 52.4688 82.2682 52.9688C81.7682 53.4375 81.2838 53.8906 80.8151 54.3281C80.3463 54.7344 80.0182 55.0156 79.8307 55.1719C79.4557 55.4844 79.0026 55.8438 78.4713 56.25C77.9401 56.6562 77.3619 57.0469 76.7369 57.4219C76.1432 57.7656 75.5338 58.0625 74.9088 58.3125C74.2838 58.5312 73.7213 58.6406 73.2213 58.6406C72.5338 58.6406 72.0807 58.4844 71.8619 58.1719C71.6744 57.8281 71.5807 57.3438 71.5807 56.7188C71.5807 56.2188 71.6119 55.7031 71.6744 55.1719C71.7682 54.6406 71.7526 54.1094 71.6276 53.5781L73.4557 48.6094C73.7369 48.3281 74.0026 47.8906 74.2526 47.2969C74.5338 46.7031 74.7994 46.1094 75.0494 45.5156C75.3307 44.9219 75.6119 44.4062 75.8932 43.9688C76.2057 43.5312 76.5338 43.3125 76.8776 43.3125C77.2526 43.3125 77.5651 43.4219 77.8151 43.6406C78.0963 43.8594 78.2369 44.1719 78.2369 44.5781C78.2369 44.8906 78.1901 45.1719 78.0963 45.4219C78.0338 45.6406 77.9244 45.9375 77.7682 46.3125C77.3619 47.1562 76.9557 47.9531 76.5494 48.7031C76.1744 49.4531 75.8151 50.2031 75.4713 50.9531C75.1588 51.7031 74.8932 52.4844 74.6744 53.2969C74.4869 54.0781 74.3932 54.9531 74.3932 55.9219H74.5807C74.5807 55.9219 74.6744 55.875 74.8619 55.7812C75.0494 55.6562 75.2526 55.5312 75.4713 55.4062C75.7213 55.25 75.9713 55.0938 76.2213 54.9375C76.4713 54.7812 76.6901 54.6406 76.8776 54.5156C78.5963 53.3906 80.1119 52.0781 81.4244 50.5781C82.7369 49.0469 84.0338 47.4688 85.3151 45.8438C85.4401 45.6562 85.5494 45.5156 85.6432 45.4219C85.7369 45.3281 85.8151 45.2656 85.8776 45.2344C85.9401 45.1719 86.0182 45.1406 86.1119 45.1406C86.2057 45.1406 86.3463 45.1406 86.5338 45.1406C86.9713 45.1406 87.3151 45.2344 87.5651 45.4219C87.8463 45.5781 88.0182 45.9531 88.0807 46.5469C88.1119 46.9531 88.0807 47.4531 87.9869 48.0469C87.8932 48.6094 87.7682 49.1719 87.6119 49.7344C87.4557 50.2969 87.2838 50.8594 87.0963 51.4219C86.9401 51.9531 86.7994 52.375 86.6744 52.6875V53.3906C86.7369 53.3594 86.8776 53.3125 87.0963 53.25C87.3463 53.1875 87.5182 53.1406 87.6119 53.1094C87.7994 53.0781 88.3151 52.9062 89.1588 52.5938C90.0026 52.2812 90.9088 51.9531 91.8776 51.6094C92.8776 51.2344 93.7994 50.8906 94.6432 50.5781C95.4869 50.2656 96.0182 50.0625 96.2369 49.9688H96.3307C96.5494 49.9688 96.7369 50.0469 96.8932 50.2031C97.0807 50.3594 97.1744 50.5469 97.1744 50.7656C97.1744 50.9844 97.0963 51.1719 96.9401 51.3281C96.8151 51.4844 96.6588 51.625 96.4713 51.75C96.2838 51.8438 96.0807 51.9375 95.8619 52.0312C95.6432 52.125 95.4557 52.2031 95.2994 52.2656C95.0807 52.3906 94.7682 52.5469 94.3619 52.7344C93.9557 52.8906 93.4869 53.0781 92.9557 53.2969C92.4557 53.4844 91.9244 53.7031 91.3619 53.9531C90.7994 54.2031 90.2526 54.4375 89.7213 54.6562C88.4401 55.1875 87.0494 55.75 85.5494 56.3438L81.4244 71.9062C81.2369 72.6562 80.8776 73.4375 80.3463 74.25C79.8463 75.0625 79.2526 75.8125 78.5651 76.5C77.8776 77.1875 77.1119 77.7344 76.2682 78.1406C75.4557 78.5781 74.6276 78.7969 73.7838 78.7969C72.9088 78.7969 72.1588 78.5625 71.5338 78.0938C70.9088 77.6562 70.3932 77.0781 69.9869 76.3594C69.5807 75.6719 69.2994 74.9219 69.1432 74.1094C68.9557 73.2969 68.8619 72.5312 68.8619 71.8125ZM71.3932 71.8125C71.3932 72.2188 71.4244 72.6719 71.4869 73.1719C71.5807 73.6719 71.7369 74.1562 71.9557 74.625C72.1744 75.0938 72.4401 75.4844 72.7526 75.7969C73.0963 76.1094 73.5338 76.2656 74.0651 76.2656C74.7526 76.2656 75.3776 76.0469 75.9401 75.6094C76.5338 75.2031 77.0494 74.6875 77.4869 74.0625C77.9557 73.4688 78.3463 72.8281 78.6588 72.1406C78.9713 71.4531 79.2213 70.8438 79.4088 70.3125C79.5026 69.9375 79.6432 69.4062 79.8307 68.7188C80.0182 68.0625 80.1901 67.4062 80.3463 66.75C80.5338 66.0938 80.6901 65.5 80.8151 64.9688C80.9401 64.4688 81.0026 64.1719 81.0026 64.0781V63.8906L82.3619 57.9844C81.1119 58.3906 79.8307 59.0781 78.5182 60.0469C77.2369 61.0156 76.0651 62.1406 75.0026 63.4219C73.9401 64.7031 73.0651 66.0781 72.3776 67.5469C71.7213 69.0156 71.3932 70.4375 71.3932 71.8125ZM93.4244 54.4219C94.2994 53.7656 94.9401 53.125 95.3463 52.5C95.7838 51.875 96.1276 51.25 96.3776 50.625C96.6276 50 96.8307 49.3438 96.9869 48.6562C97.1432 47.9375 97.3932 47.1562 97.7369 46.3125C97.6119 46.0938 97.5338 45.9062 97.5026 45.75C97.5026 45.5625 97.5026 45.3438 97.5026 45.0938C97.5026 44.8438 97.5338 44.5469 97.5963 44.2031C97.6901 43.8594 97.8151 43.5469 97.9713 43.2656C98.1276 42.9531 98.3151 42.6875 98.5338 42.4688C98.7526 42.25 99.0182 42.1406 99.3307 42.1406C99.2994 42.2656 99.4713 42.4062 99.8463 42.5625C100.253 42.7188 100.737 42.8906 101.299 43.0781C101.893 43.2656 102.518 43.4688 103.174 43.6875C103.831 43.9062 104.409 44.1406 104.909 44.3906C105.471 44.7031 105.862 45.0469 106.081 45.4219C106.331 45.7656 106.456 46.2656 106.456 46.9219C106.456 47.5156 106.378 48.1875 106.221 48.9375C106.096 49.6875 105.956 50.4531 105.799 51.2344C105.674 51.9844 105.534 52.75 105.378 53.5312C105.253 54.2812 105.19 54.9688 105.19 55.5938V56.8125C105.159 57.0938 105.221 57.25 105.378 57.2812C105.565 57.2812 105.737 57.2812 105.893 57.2812C106.268 57.2812 106.612 57.2188 106.924 57.0938C107.237 56.9688 107.549 56.8281 107.862 56.6719C108.206 56.5156 108.534 56.375 108.846 56.25C109.159 56.0938 109.487 55.9844 109.831 55.9219L113.956 53.3906C114.081 53.1719 114.237 53 114.424 52.875C114.643 52.7188 114.846 52.5781 115.034 52.4531C115.346 52.2656 115.721 52 116.159 51.6562C116.378 51.4688 116.612 51.2812 116.862 51.0938H118.268C118.362 51.0938 118.424 51.1875 118.456 51.375C118.487 51.5625 118.503 51.7031 118.503 51.7969C118.503 52.1719 118.237 52.6406 117.706 53.2031C117.174 53.7656 116.487 54.3438 115.643 54.9375C114.799 55.5312 113.862 56.125 112.831 56.7188C111.799 57.2812 110.784 57.7969 109.784 58.2656C108.815 58.7344 107.909 59.1094 107.065 59.3906C106.253 59.6719 105.628 59.8125 105.19 59.8125C104.628 59.8125 104.174 59.6719 103.831 59.3906C103.487 59.1094 103.206 58.7656 102.987 58.3594C102.768 57.9531 102.612 57.5156 102.518 57.0469C102.456 56.5469 102.424 56.0625 102.424 55.5938C102.424 55.25 102.534 54.7656 102.753 54.1406C102.971 53.5156 103.221 52.875 103.503 52.2188C103.784 51.5625 104.034 50.9219 104.253 50.2969C104.471 49.6719 104.581 49.1719 104.581 48.7969C104.581 48.7656 104.346 48.6406 103.878 48.4219C103.44 48.2031 102.956 47.9688 102.424 47.7188C101.893 47.4375 101.393 47.2031 100.924 47.0156C100.487 46.7969 100.268 46.6719 100.268 46.6406C99.5807 47.3594 99.0963 48.125 98.8151 48.9375C98.5651 49.75 98.2994 50.5938 98.0182 51.4688C97.7682 52.3438 97.3776 53.2188 96.8463 54.0938C96.3463 54.9688 95.4869 55.8281 94.2682 56.6719C94.2369 56.6719 94.1744 56.6562 94.0807 56.625C93.9557 56.5938 93.8463 56.5156 93.7526 56.3906C93.6276 56.2344 93.5338 56.0156 93.4713 55.7344C93.4088 55.4219 93.3932 54.9844 93.4244 54.4219ZM116.768 58.5938C116.768 58.5 116.768 58.2656 116.768 57.8906C116.768 57.5156 116.768 57.2656 116.768 57.1406C116.237 55.2656 116.159 53.4219 116.534 51.6094C116.94 49.7969 117.643 48.1719 118.643 46.7344C119.674 45.2656 120.971 44.0469 122.534 43.0781C124.128 42.0781 125.862 41.4688 127.737 41.25H128.581C129.268 41.25 129.831 41.4062 130.268 41.7188C130.737 42 131.096 42.375 131.346 42.8438C131.628 43.3125 131.815 43.8438 131.909 44.4375C132.034 45.0312 132.096 45.625 132.096 46.2188C132.096 47.0312 132.003 47.8281 131.815 48.6094C131.659 49.3594 131.471 50.125 131.253 50.9062C131.065 51.6875 130.878 52.4688 130.69 53.25C130.534 54 130.456 54.7969 130.456 55.6406V55.9219C130.487 55.9844 130.518 56.1719 130.549 56.4844C130.612 56.7656 130.659 56.9375 130.69 57C130.753 57 130.909 57.0156 131.159 57.0469C131.409 57.0469 131.565 57.0469 131.628 57.0469C131.94 57.0469 132.237 57.0469 132.518 57.0469C132.831 57.0156 133.143 56.9375 133.456 56.8125L142.362 52.6875C142.393 52.6875 142.44 52.6875 142.503 52.6875C142.596 52.6562 142.659 52.6406 142.69 52.6406C143.003 52.6406 143.253 52.7344 143.44 52.9219C143.659 53.1094 143.768 53.3594 143.768 53.6719C143.768 53.8281 143.753 53.9844 143.721 54.1406C143.721 54.2656 143.643 54.3906 143.487 54.5156C143.268 54.6719 142.862 54.8906 142.268 55.1719C141.706 55.4531 141.096 55.7656 140.44 56.1094C139.784 56.4531 139.159 56.7812 138.565 57.0938C138.003 57.4062 137.596 57.6094 137.346 57.7031C136.909 57.9531 136.424 58.1875 135.893 58.4062C135.362 58.5938 134.815 58.7812 134.253 58.9688C133.69 59.1562 133.128 59.3125 132.565 59.4375C132.034 59.5312 131.549 59.5781 131.112 59.5781C130.424 59.5781 129.862 59.4688 129.424 59.25C128.987 59 128.659 58.6875 128.44 58.3125C128.221 57.9062 128.065 57.4375 127.971 56.9062C127.909 56.3438 127.909 55.7656 127.971 55.1719C127.346 55.6719 126.674 56.2031 125.956 56.7656C125.237 57.3281 124.487 57.8438 123.706 58.3125C122.924 58.7812 122.128 59.1875 121.315 59.5312C120.503 59.875 119.674 60.0469 118.831 60.0469C118.362 60.0469 117.94 59.9375 117.565 59.7188C117.19 59.4688 116.924 59.0938 116.768 58.5938ZM119.299 57.6094C120.018 57.6094 120.815 57.4062 121.69 57C122.565 56.5625 123.424 56.0312 124.268 55.4062C125.112 54.7812 125.878 54.125 126.565 53.4375C127.253 52.7188 127.784 52.0781 128.159 51.5156C128.19 50.5781 128.315 49.6875 128.534 48.8438C128.784 47.9688 128.909 47.0781 128.909 46.1719C128.909 46.1094 128.893 46.0156 128.862 45.8906C128.862 45.7656 128.862 45.6719 128.862 45.6094C128.456 45.2656 128.112 45.0625 127.831 45C127.549 44.9375 127.174 44.9062 126.706 44.9062C126.643 44.9062 126.503 44.9062 126.284 44.9062C126.096 44.9062 125.971 44.9219 125.909 44.9531C125.721 45.1094 125.409 45.4062 124.971 45.8438C124.534 46.25 124.065 46.7031 123.565 47.2031C123.096 47.7031 122.643 48.1719 122.206 48.6094C121.799 49.0469 121.518 49.3438 121.362 49.5C121.331 49.5 121.268 49.5625 121.174 49.6875C121.081 49.7812 120.971 49.9062 120.846 50.0625C120.753 50.2188 120.659 50.375 120.565 50.5312C120.503 50.6562 120.456 50.7656 120.424 50.8594L119.299 56.3438V57.6094ZM141.706 59.0625L143.299 49.6875V48.375L144.237 42.1406C144.331 42.0156 144.503 41.9531 144.753 41.9531C145.003 41.9219 145.174 41.9062 145.268 41.9062C145.518 41.9062 145.799 42 146.112 42.1875C146.456 42.3438 146.628 42.5625 146.628 42.8438V46.0312C146.753 45.9375 146.971 45.75 147.284 45.4688C147.596 45.1875 147.924 44.8906 148.268 44.5781C148.643 44.2656 148.987 43.9688 149.299 43.6875C149.612 43.4062 149.815 43.2031 149.909 43.0781C150.253 42.7656 150.659 42.5 151.128 42.2812C151.628 42.0625 152.096 41.9531 152.534 41.9531C153.44 41.9531 154.143 42.2344 154.643 42.7969C155.174 43.3594 155.44 44.0781 155.44 44.9531C155.44 45.0156 155.424 45.0625 155.393 45.0938C155.393 45.0938 155.393 45.125 155.393 45.1875V45.375L153.612 53.3906V57.1875C154.581 57.1875 155.581 57 156.612 56.625C157.674 56.2188 158.69 55.7188 159.659 55.125C160.628 54.5312 161.534 53.8594 162.378 53.1094C163.221 52.3281 163.956 51.5781 164.581 50.8594H164.768C164.987 50.8594 165.159 50.9375 165.284 51.0938C165.44 51.2188 165.518 51.3906 165.518 51.6094C165.518 52.2969 165.284 52.9844 164.815 53.6719C164.378 54.3281 163.799 54.9531 163.081 55.5469C162.393 56.1406 161.581 56.7031 160.643 57.2344C159.737 57.7656 158.831 58.2188 157.924 58.5938C157.049 58.9688 156.19 59.2656 155.346 59.4844C154.503 59.7031 153.784 59.8125 153.19 59.8125C152.596 59.8125 152.128 59.7031 151.784 59.4844C151.44 59.2656 151.174 58.9844 150.987 58.6406C150.831 58.2656 150.721 57.8594 150.659 57.4219C150.628 56.9844 150.612 56.5156 150.612 56.0156V55.4062L152.44 46.3125V44.7656C151.69 44.7656 150.94 45.0938 150.19 45.75C149.471 46.4062 148.815 47.2031 148.221 48.1406C147.659 49.0781 147.159 50.0312 146.721 51C146.315 51.9688 146.018 52.7656 145.831 53.3906C145.768 53.6094 145.674 54 145.549 54.5625C145.424 55.125 145.299 55.7188 145.174 56.3438C145.081 56.9688 144.987 57.5625 144.893 58.125C144.799 58.6875 144.737 59.0938 144.706 59.3438C144.737 59.5312 144.674 59.6719 144.518 59.7656C144.393 59.8594 144.237 59.9375 144.049 60C143.862 60.0312 143.659 60.0469 143.44 60.0469C143.253 60.0469 143.096 60.0469 142.971 60.0469C142.69 60.0469 142.409 60 142.128 59.9062C141.846 59.8125 141.706 59.5781 141.706 59.2031V59.0625ZM163.643 56.3438C163.643 56.3125 163.659 56.2031 163.69 56.0156C163.721 55.8281 163.753 55.6406 163.784 55.4531C163.815 55.2344 163.846 55.0469 163.878 54.8906C163.909 54.7031 163.924 54.5781 163.924 54.5156V54.3281V54.0469L164.581 51.0938C165.112 49.9688 165.659 48.8906 166.221 47.8594C166.815 46.8281 167.487 45.9219 168.237 45.1406C168.987 44.3594 169.846 43.7344 170.815 43.2656C171.815 42.7969 173.018 42.5625 174.424 42.5625C174.706 42.5625 175.049 42.6562 175.456 42.8438C175.893 43 176.315 43.2031 176.721 43.4531C177.159 43.7031 177.549 43.9688 177.893 44.25C178.268 44.5 178.549 44.7344 178.737 44.9531C179.706 44.7969 180.409 44.7188 180.846 44.7188C181.284 44.6875 181.659 44.6719 181.971 44.6719C182.284 44.6406 182.612 44.5781 182.956 44.4844C183.331 44.3906 183.893 44.1875 184.643 43.875C185.174 43.7188 185.69 43.6406 186.19 43.6406C186.409 43.6406 186.612 43.7344 186.799 43.9219C187.018 44.1094 187.128 44.3281 187.128 44.5781C187.128 44.8906 187.018 45.1719 186.799 45.4219C186.581 45.6719 186.315 45.8281 186.003 45.8906L180.143 47.2031L179.628 47.4375C179.596 49.125 179.221 50.7344 178.503 52.2656C177.784 53.7969 176.831 55.1406 175.643 56.2969C174.456 57.4531 173.081 58.375 171.518 59.0625C169.956 59.7188 168.331 60.0469 166.643 60.0469C166.518 60.0469 166.315 60.0312 166.034 60C165.753 60 165.565 60 165.471 60C164.784 59.7188 164.299 59.2031 164.018 58.4531C163.768 57.7031 163.643 57 163.643 56.3438ZM166.643 57.2812C166.674 57.4375 166.799 57.5156 167.018 57.5156C167.237 57.5156 167.393 57.5156 167.487 57.5156C168.612 57.5156 169.768 57.2344 170.956 56.6719C172.143 56.0781 173.206 55.3281 174.143 54.4219C175.112 53.4844 175.893 52.4375 176.487 51.2812C177.112 50.0938 177.424 48.9062 177.424 47.7188C176.424 47.7188 175.424 47.6406 174.424 47.4844C173.424 47.2969 172.456 47.2031 171.518 47.2031H171.471L167.581 51.3281C167.362 51.5469 167.19 51.8438 167.065 52.2188C166.94 52.5938 166.846 53 166.784 53.4375C166.721 53.875 166.674 54.3125 166.643 54.75C166.612 55.1875 166.596 55.5781 166.596 55.9219C166.596 56.0156 166.596 56.2344 166.596 56.5781C166.596 56.9219 166.612 57.1562 166.643 57.2812Z" fill="white"/>
<defs>
<filter id="filter0_f_831_385" x="145.349" y="7.99976" width="46.2742" height="39.9968" filterUnits="userSpaceOnUse" color-interpolation-filters="sRGB">
<feFlood flood-opacity="0" result="BackgroundImageFix"/>
<feBlend mode="normal" in="SourceGraphic" in2="BackgroundImageFix" result="shape"/>
<feGaussianBlur stdDeviation="2" result="effect1_foregroundBlur_831_385"/>
</filter>
</defs>
</svg>
