<svg width="215" height="133" viewBox="0 0 215 133" fill="none" xmlns="http://www.w3.org/2000/svg">
<path d="M187.623 43.9845C181.607 30.554 168.934 16.6003 153.359 16.1481C168.808 16.4404 181.066 30.9919 187.097 43.9845H187.623Z" fill="white"/>
<path d="M55.4047 65.2335C49.8344 65.2335 44.7998 64.0009 40.3007 61.5358C35.8551 59.0707 32.3469 55.6677 29.776 51.327C27.2587 46.9326 26 42.0292 26 36.6166C26 31.204 27.2587 26.3274 29.776 21.9866C32.3469 17.5922 35.8819 14.1625 40.381 11.6974C44.8801 9.23223 49.9148 7.99966 55.4851 7.99966C59.6628 7.99966 63.5192 8.69633 67.0542 10.0897C70.5892 11.483 73.5885 13.5194 76.0523 16.1989L75.1978 17.0539C70.8058 12.6059 65.2623 10.382 58.5672 10.382C54.1217 10.382 48.6172 11.4002 44.975 13.4366C41.3329 15.473 37.0067 19.7212 34.9178 23.2581C32.8825 26.7951 31.8649 32.2222 31.8649 36.6166C31.8649 41.0109 32.8825 44.9766 34.9178 48.5135C37.0067 52.0504 39.8722 54.8371 43.5143 56.8735C47.1564 58.9099 51.2002 59.9281 55.6458 59.9281C62.3944 59.9281 67.9379 57.6774 72.2763 53.1758L76.0523 56.9539C73.5885 59.6334 70.5624 61.6966 66.9738 63.1435C63.4388 64.5368 59.5825 65.2335 55.4047 65.2335Z" fill="white"/>
<path d="M69.585 71.8125C69.585 69.7812 70.0381 67.9062 70.9444 66.1875C71.8194 64.5 72.9444 62.9531 74.3194 61.5469C75.7256 60.1719 77.2725 58.9375 78.96 57.8438C80.6787 56.75 82.3506 55.7969 83.9756 54.9844L85.335 50.625C85.1787 50.8125 84.8662 51.125 84.3975 51.5625C83.96 52 83.4912 52.4688 82.9912 52.9688C82.4912 53.4375 82.0069 53.8906 81.5381 54.3281C81.0694 54.7344 80.7412 55.0156 80.5537 55.1719C80.1787 55.4844 79.7256 55.8438 79.1944 56.25C78.6631 56.6562 78.085 57.0469 77.46 57.4219C76.8662 57.7656 76.2569 58.0625 75.6319 58.3125C75.0069 58.5312 74.4444 58.6406 73.9444 58.6406C73.2569 58.6406 72.8037 58.4844 72.585 58.1719C72.3975 57.8281 72.3037 57.3438 72.3037 56.7188C72.3037 56.2188 72.335 55.7031 72.3975 55.1719C72.4912 54.6406 72.4756 54.1094 72.3506 53.5781L74.1787 48.6094C74.46 48.3281 74.7256 47.8906 74.9756 47.2969C75.2569 46.7031 75.5225 46.1094 75.7725 45.5156C76.0537 44.9219 76.335 44.4062 76.6162 43.9688C76.9287 43.5312 77.2569 43.3125 77.6006 43.3125C77.9756 43.3125 78.2881 43.4219 78.5381 43.6406C78.8194 43.8594 78.96 44.1719 78.96 44.5781C78.96 44.8906 78.9131 45.1719 78.8194 45.4219C78.7569 45.6406 78.6475 45.9375 78.4912 46.3125C78.085 47.1562 77.6787 47.9531 77.2725 48.7031C76.8975 49.4531 76.5381 50.2031 76.1944 50.9531C75.8819 51.7031 75.6162 52.4844 75.3975 53.2969C75.21 54.0781 75.1162 54.9531 75.1162 55.9219H75.3037C75.3037 55.9219 75.3975 55.875 75.585 55.7812C75.7725 55.6562 75.9756 55.5312 76.1944 55.4062C76.4444 55.25 76.6944 55.0938 76.9444 54.9375C77.1944 54.7812 77.4131 54.6406 77.6006 54.5156C79.3194 53.3906 80.835 52.0781 82.1475 50.5781C83.46 49.0469 84.7569 47.4688 86.0381 45.8438C86.1631 45.6562 86.2725 45.5156 86.3662 45.4219C86.46 45.3281 86.5381 45.2656 86.6006 45.2344C86.6631 45.1719 86.7412 45.1406 86.835 45.1406C86.9287 45.1406 87.0694 45.1406 87.2569 45.1406C87.6944 45.1406 88.0381 45.2344 88.2881 45.4219C88.5694 45.5781 88.7412 45.9531 88.8037 46.5469C88.835 46.9531 88.8037 47.4531 88.71 48.0469C88.6162 48.6094 88.4912 49.1719 88.335 49.7344C88.1787 50.2969 88.0069 50.8594 87.8194 51.4219C87.6631 51.9531 87.5225 52.375 87.3975 52.6875V53.3906C87.46 53.3594 87.6006 53.3125 87.8194 53.25C88.0694 53.1875 88.2412 53.1406 88.335 53.1094C88.5225 53.0781 89.0381 52.9062 89.8819 52.5938C90.7256 52.2812 91.6319 51.9531 92.6006 51.6094C93.6006 51.2344 94.5225 50.8906 95.3662 50.5781C96.21 50.2656 96.7412 50.0625 96.96 49.9688H97.0537C97.2725 49.9688 97.46 50.0469 97.6162 50.2031C97.8037 50.3594 97.8975 50.5469 97.8975 50.7656C97.8975 50.9844 97.8194 51.1719 97.6631 51.3281C97.5381 51.4844 97.3819 51.625 97.1944 51.75C97.0069 51.8438 96.8037 51.9375 96.585 52.0312C96.3662 52.125 96.1787 52.2031 96.0225 52.2656C95.8037 52.3906 95.4912 52.5469 95.085 52.7344C94.6787 52.8906 94.21 53.0781 93.6787 53.2969C93.1787 53.4844 92.6475 53.7031 92.085 53.9531C91.5225 54.2031 90.9756 54.4375 90.4444 54.6562C89.1631 55.1875 87.7725 55.75 86.2725 56.3438L82.1475 71.9062C81.96 72.6562 81.6006 73.4375 81.0694 74.25C80.5694 75.0625 79.9756 75.8125 79.2881 76.5C78.6006 77.1875 77.835 77.7344 76.9912 78.1406C76.1787 78.5781 75.3506 78.7969 74.5069 78.7969C73.6319 78.7969 72.8819 78.5625 72.2569 78.0938C71.6319 77.6562 71.1162 77.0781 70.71 76.3594C70.3037 75.6719 70.0225 74.9219 69.8662 74.1094C69.6787 73.2969 69.585 72.5312 69.585 71.8125ZM72.1162 71.8125C72.1162 72.2188 72.1475 72.6719 72.21 73.1719C72.3037 73.6719 72.46 74.1562 72.6787 74.625C72.8975 75.0938 73.1631 75.4844 73.4756 75.7969C73.8194 76.1094 74.2569 76.2656 74.7881 76.2656C75.4756 76.2656 76.1006 76.0469 76.6631 75.6094C77.2569 75.2031 77.7725 74.6875 78.21 74.0625C78.6787 73.4688 79.0694 72.8281 79.3819 72.1406C79.6944 71.4531 79.9444 70.8438 80.1319 70.3125C80.2256 69.9375 80.3662 69.4062 80.5537 68.7188C80.7412 68.0625 80.9131 67.4062 81.0694 66.75C81.2569 66.0938 81.4131 65.5 81.5381 64.9688C81.6631 64.4688 81.7256 64.1719 81.7256 64.0781V63.8906L83.085 57.9844C81.835 58.3906 80.5537 59.0781 79.2412 60.0469C77.96 61.0156 76.7881 62.1406 75.7256 63.4219C74.6631 64.7031 73.7881 66.0781 73.1006 67.5469C72.4444 69.0156 72.1162 70.4375 72.1162 71.8125ZM94.1475 54.4219C95.0225 53.7656 95.6631 53.125 96.0694 52.5C96.5069 51.875 96.8506 51.25 97.1006 50.625C97.3506 50 97.5537 49.3438 97.71 48.6562C97.8662 47.9375 98.1162 47.1562 98.46 46.3125C98.335 46.0938 98.2569 45.9062 98.2256 45.75C98.2256 45.5625 98.2256 45.3438 98.2256 45.0938C98.2256 44.8438 98.2569 44.5469 98.3194 44.2031C98.4131 43.8594 98.5381 43.5469 98.6944 43.2656C98.8506 42.9531 99.0381 42.6875 99.2569 42.4688C99.4756 42.25 99.7412 42.1406 100.054 42.1406C100.022 42.2656 100.194 42.4062 100.569 42.5625C100.976 42.7188 101.46 42.8906 102.022 43.0781C102.616 43.2656 103.241 43.4688 103.897 43.6875C104.554 43.9062 105.132 44.1406 105.632 44.3906C106.194 44.7031 106.585 45.0469 106.804 45.4219C107.054 45.7656 107.179 46.2656 107.179 46.9219C107.179 47.5156 107.101 48.1875 106.944 48.9375C106.819 49.6875 106.679 50.4531 106.522 51.2344C106.397 51.9844 106.257 52.75 106.101 53.5312C105.976 54.2812 105.913 54.9688 105.913 55.5938V56.8125C105.882 57.0938 105.944 57.25 106.101 57.2812C106.288 57.2812 106.46 57.2812 106.616 57.2812C106.991 57.2812 107.335 57.2188 107.647 57.0938C107.96 56.9688 108.272 56.8281 108.585 56.6719C108.929 56.5156 109.257 56.375 109.569 56.25C109.882 56.0938 110.21 55.9844 110.554 55.9219L114.679 53.3906C114.804 53.1719 114.96 53 115.147 52.875C115.366 52.7188 115.569 52.5781 115.757 52.4531C116.069 52.2656 116.444 52 116.882 51.6562C117.101 51.4688 117.335 51.2812 117.585 51.0938H118.991C119.085 51.0938 119.147 51.1875 119.179 51.375C119.21 51.5625 119.226 51.7031 119.226 51.7969C119.226 52.1719 118.96 52.6406 118.429 53.2031C117.897 53.7656 117.21 54.3438 116.366 54.9375C115.522 55.5312 114.585 56.125 113.554 56.7188C112.522 57.2812 111.507 57.7969 110.507 58.2656C109.538 58.7344 108.632 59.1094 107.788 59.3906C106.976 59.6719 106.351 59.8125 105.913 59.8125C105.351 59.8125 104.897 59.6719 104.554 59.3906C104.21 59.1094 103.929 58.7656 103.71 58.3594C103.491 57.9531 103.335 57.5156 103.241 57.0469C103.179 56.5469 103.147 56.0625 103.147 55.5938C103.147 55.25 103.257 54.7656 103.476 54.1406C103.694 53.5156 103.944 52.875 104.226 52.2188C104.507 51.5625 104.757 50.9219 104.976 50.2969C105.194 49.6719 105.304 49.1719 105.304 48.7969C105.304 48.7656 105.069 48.6406 104.601 48.4219C104.163 48.2031 103.679 47.9688 103.147 47.7188C102.616 47.4375 102.116 47.2031 101.647 47.0156C101.21 46.7969 100.991 46.6719 100.991 46.6406C100.304 47.3594 99.8194 48.125 99.5381 48.9375C99.2881 49.75 99.0225 50.5938 98.7412 51.4688C98.4912 52.3438 98.1006 53.2188 97.5694 54.0938C97.0694 54.9688 96.21 55.8281 94.9912 56.6719C94.96 56.6719 94.8975 56.6562 94.8037 56.625C94.6787 56.5938 94.5694 56.5156 94.4756 56.3906C94.3506 56.2344 94.2569 56.0156 94.1944 55.7344C94.1319 55.4219 94.1162 54.9844 94.1475 54.4219ZM117.491 58.5938C117.491 58.5 117.491 58.2656 117.491 57.8906C117.491 57.5156 117.491 57.2656 117.491 57.1406C116.96 55.2656 116.882 53.4219 117.257 51.6094C117.663 49.7969 118.366 48.1719 119.366 46.7344C120.397 45.2656 121.694 44.0469 123.257 43.0781C124.851 42.0781 126.585 41.4688 128.46 41.25H129.304C129.991 41.25 130.554 41.4062 130.991 41.7188C131.46 42 131.819 42.375 132.069 42.8438C132.351 43.3125 132.538 43.8438 132.632 44.4375C132.757 45.0312 132.819 45.625 132.819 46.2188C132.819 47.0312 132.726 47.8281 132.538 48.6094C132.382 49.3594 132.194 50.125 131.976 50.9062C131.788 51.6875 131.601 52.4688 131.413 53.25C131.257 54 131.179 54.7969 131.179 55.6406V55.9219C131.21 55.9844 131.241 56.1719 131.272 56.4844C131.335 56.7656 131.382 56.9375 131.413 57C131.476 57 131.632 57.0156 131.882 57.0469C132.132 57.0469 132.288 57.0469 132.351 57.0469C132.663 57.0469 132.96 57.0469 133.241 57.0469C133.554 57.0156 133.866 56.9375 134.179 56.8125L143.085 52.6875C143.116 52.6875 143.163 52.6875 143.226 52.6875C143.319 52.6562 143.382 52.6406 143.413 52.6406C143.726 52.6406 143.976 52.7344 144.163 52.9219C144.382 53.1094 144.491 53.3594 144.491 53.6719C144.491 53.8281 144.476 53.9844 144.444 54.1406C144.444 54.2656 144.366 54.3906 144.21 54.5156C143.991 54.6719 143.585 54.8906 142.991 55.1719C142.429 55.4531 141.819 55.7656 141.163 56.1094C140.507 56.4531 139.882 56.7812 139.288 57.0938C138.726 57.4062 138.319 57.6094 138.069 57.7031C137.632 57.9531 137.147 58.1875 136.616 58.4062C136.085 58.5938 135.538 58.7812 134.976 58.9688C134.413 59.1562 133.851 59.3125 133.288 59.4375C132.757 59.5312 132.272 59.5781 131.835 59.5781C131.147 59.5781 130.585 59.4688 130.147 59.25C129.71 59 129.382 58.6875 129.163 58.3125C128.944 57.9062 128.788 57.4375 128.694 56.9062C128.632 56.3438 128.632 55.7656 128.694 55.1719C128.069 55.6719 127.397 56.2031 126.679 56.7656C125.96 57.3281 125.21 57.8438 124.429 58.3125C123.647 58.7812 122.851 59.1875 122.038 59.5312C121.226 59.875 120.397 60.0469 119.554 60.0469C119.085 60.0469 118.663 59.9375 118.288 59.7188C117.913 59.4688 117.647 59.0938 117.491 58.5938ZM120.022 57.6094C120.741 57.6094 121.538 57.4062 122.413 57C123.288 56.5625 124.147 56.0312 124.991 55.4062C125.835 54.7812 126.601 54.125 127.288 53.4375C127.976 52.7188 128.507 52.0781 128.882 51.5156C128.913 50.5781 129.038 49.6875 129.257 48.8438C129.507 47.9688 129.632 47.0781 129.632 46.1719C129.632 46.1094 129.616 46.0156 129.585 45.8906C129.585 45.7656 129.585 45.6719 129.585 45.6094C129.179 45.2656 128.835 45.0625 128.554 45C128.272 44.9375 127.897 44.9062 127.429 44.9062C127.366 44.9062 127.226 44.9062 127.007 44.9062C126.819 44.9062 126.694 44.9219 126.632 44.9531C126.444 45.1094 126.132 45.4062 125.694 45.8438C125.257 46.25 124.788 46.7031 124.288 47.2031C123.819 47.7031 123.366 48.1719 122.929 48.6094C122.522 49.0469 122.241 49.3438 122.085 49.5C122.054 49.5 121.991 49.5625 121.897 49.6875C121.804 49.7812 121.694 49.9062 121.569 50.0625C121.476 50.2188 121.382 50.375 121.288 50.5312C121.226 50.6562 121.179 50.7656 121.147 50.8594L120.022 56.3438V57.6094ZM142.429 59.0625L144.022 49.6875V48.375L144.96 42.1406C145.054 42.0156 145.226 41.9531 145.476 41.9531C145.726 41.9219 145.897 41.9062 145.991 41.9062C146.241 41.9062 146.522 42 146.835 42.1875C147.179 42.3438 147.351 42.5625 147.351 42.8438V46.0312C147.476 45.9375 147.694 45.75 148.007 45.4688C148.319 45.1875 148.647 44.8906 148.991 44.5781C149.366 44.2656 149.71 43.9688 150.022 43.6875C150.335 43.4062 150.538 43.2031 150.632 43.0781C150.976 42.7656 151.382 42.5 151.851 42.2812C152.351 42.0625 152.819 41.9531 153.257 41.9531C154.163 41.9531 154.866 42.2344 155.366 42.7969C155.897 43.3594 156.163 44.0781 156.163 44.9531C156.163 45.0156 156.147 45.0625 156.116 45.0938C156.116 45.0938 156.116 45.125 156.116 45.1875V45.375L154.335 53.3906V57.1875C155.304 57.1875 156.304 57 157.335 56.625C158.397 56.2188 159.413 55.7188 160.382 55.125C161.351 54.5312 162.257 53.8594 163.101 53.1094C163.944 52.3281 164.679 51.5781 165.304 50.8594H165.491C165.71 50.8594 165.882 50.9375 166.007 51.0938C166.163 51.2188 166.241 51.3906 166.241 51.6094C166.241 52.2969 166.007 52.9844 165.538 53.6719C165.101 54.3281 164.522 54.9531 163.804 55.5469C163.116 56.1406 162.304 56.7031 161.366 57.2344C160.46 57.7656 159.554 58.2188 158.647 58.5938C157.772 58.9688 156.913 59.2656 156.069 59.4844C155.226 59.7031 154.507 59.8125 153.913 59.8125C153.319 59.8125 152.851 59.7031 152.507 59.4844C152.163 59.2656 151.897 58.9844 151.71 58.6406C151.554 58.2656 151.444 57.8594 151.382 57.4219C151.351 56.9844 151.335 56.5156 151.335 56.0156V55.4062L153.163 46.3125V44.7656C152.413 44.7656 151.663 45.0938 150.913 45.75C150.194 46.4062 149.538 47.2031 148.944 48.1406C148.382 49.0781 147.882 50.0312 147.444 51C147.038 51.9688 146.741 52.7656 146.554 53.3906C146.491 53.6094 146.397 54 146.272 54.5625C146.147 55.125 146.022 55.7188 145.897 56.3438C145.804 56.9688 145.71 57.5625 145.616 58.125C145.522 58.6875 145.46 59.0938 145.429 59.3438C145.46 59.5312 145.397 59.6719 145.241 59.7656C145.116 59.8594 144.96 59.9375 144.772 60C144.585 60.0312 144.382 60.0469 144.163 60.0469C143.976 60.0469 143.819 60.0469 143.694 60.0469C143.413 60.0469 143.132 60 142.851 59.9062C142.569 59.8125 142.429 59.5781 142.429 59.2031V59.0625ZM164.366 56.3438C164.366 56.3125 164.382 56.2031 164.413 56.0156C164.444 55.8281 164.476 55.6406 164.507 55.4531C164.538 55.2344 164.569 55.0469 164.601 54.8906C164.632 54.7031 164.647 54.5781 164.647 54.5156V54.3281V54.0469L165.304 51.0938C165.835 49.9688 166.382 48.8906 166.944 47.8594C167.538 46.8281 168.21 45.9219 168.96 45.1406C169.71 44.3594 170.569 43.7344 171.538 43.2656C172.538 42.7969 173.741 42.5625 175.147 42.5625C175.429 42.5625 175.772 42.6562 176.179 42.8438C176.616 43 177.038 43.2031 177.444 43.4531C177.882 43.7031 178.272 43.9688 178.616 44.25C178.991 44.5 179.272 44.7344 179.46 44.9531C180.429 44.7969 181.132 44.7188 181.569 44.7188C182.007 44.6875 182.382 44.6719 182.694 44.6719C183.007 44.6406 183.335 44.5781 183.679 44.4844C184.054 44.3906 184.616 44.1875 185.366 43.875C185.897 43.7188 186.413 43.6406 186.913 43.6406C187.132 43.6406 187.335 43.7344 187.522 43.9219C187.741 44.1094 187.851 44.3281 187.851 44.5781C187.851 44.8906 187.741 45.1719 187.522 45.4219C187.304 45.6719 187.038 45.8281 186.726 45.8906L180.866 47.2031L180.351 47.4375C180.319 49.125 179.944 50.7344 179.226 52.2656C178.507 53.7969 177.554 55.1406 176.366 56.2969C175.179 57.4531 173.804 58.375 172.241 59.0625C170.679 59.7188 169.054 60.0469 167.366 60.0469C167.241 60.0469 167.038 60.0312 166.757 60C166.476 60 166.288 60 166.194 60C165.507 59.7188 165.022 59.2031 164.741 58.4531C164.491 57.7031 164.366 57 164.366 56.3438ZM167.366 57.2812C167.397 57.4375 167.522 57.5156 167.741 57.5156C167.96 57.5156 168.116 57.5156 168.21 57.5156C169.335 57.5156 170.491 57.2344 171.679 56.6719C172.866 56.0781 173.929 55.3281 174.866 54.4219C175.835 53.4844 176.616 52.4375 177.21 51.2812C177.835 50.0938 178.147 48.9062 178.147 47.7188C177.147 47.7188 176.147 47.6406 175.147 47.4844C174.147 47.2969 173.179 47.2031 172.241 47.2031H172.194L168.304 51.3281C168.085 51.5469 167.913 51.8438 167.788 52.2188C167.663 52.5938 167.569 53 167.507 53.4375C167.444 53.875 167.397 54.3125 167.366 54.75C167.335 55.1875 167.319 55.5781 167.319 55.9219C167.319 56.0156 167.319 56.2344 167.319 56.5781C167.319 56.9219 167.335 57.1562 167.366 57.2812Z" fill="white"/>
</svg>
