<svg width="11" height="11" viewBox="0 0 11 11" fill="none" xmlns="http://www.w3.org/2000/svg">
    <path d="M5.907 9.73363C5.89744 9.77849 5.89696 9.82482 5.90558 9.86987C5.9142 9.91492 5.93175 9.95779 5.95719 9.99596C5.98264 10.0341 6.01547 10.0668 6.05374 10.0921C6.09201 10.1174 6.13496 10.1347 6.18005 10.1432C6.22514 10.1516 6.27146 10.1509 6.31628 10.1412C6.3611 10.1314 6.40351 10.1128 6.44103 10.0864C6.47854 10.06 6.51039 10.0264 6.5347 9.98746C6.55901 9.94856 6.57529 9.90519 6.58258 9.8599L7.01158 7.56251H9.33854C9.42971 7.56251 9.51714 7.52629 9.58161 7.46182C9.64608 7.39736 9.68229 7.30993 9.68229 7.21876C9.68229 7.12759 9.64608 7.04015 9.58161 6.97569C9.51714 6.91122 9.42971 6.87501 9.33854 6.87501H7.13992L7.65325 4.12501H9.79688C9.88804 4.12501 9.97548 4.08879 10.0399 4.02432C10.1044 3.95986 10.1406 3.87243 10.1406 3.78126C10.1406 3.69009 10.1044 3.60265 10.0399 3.53819C9.97548 3.47372 9.88804 3.43751 9.79688 3.43751H7.78158L8.18698 1.26615C8.20369 1.1765 8.18411 1.08389 8.13254 1.00868C8.08097 0.933467 8.00163 0.881825 7.91198 0.865111C7.82233 0.848397 7.72971 0.86798 7.6545 0.919552C7.57929 0.971125 7.52765 1.05046 7.51094 1.14011L7.0824 3.43751H4.57302L4.97865 1.26615C4.98692 1.22176 4.98637 1.17618 4.97703 1.132C4.96769 1.08782 4.94974 1.04592 4.9242 1.00868C4.89867 0.971437 4.86605 0.939591 4.8282 0.914958C4.79036 0.890326 4.74803 0.873387 4.70365 0.865111C4.65926 0.856835 4.61367 0.857383 4.56949 0.866724C4.52532 0.876065 4.48341 0.894016 4.44617 0.919552C4.40893 0.945088 4.37708 0.97771 4.35245 1.01555C4.32782 1.0534 4.31088 1.09572 4.3026 1.14011L3.87406 3.43751H1.66146C1.57029 3.43751 1.48286 3.47372 1.41839 3.53819C1.35392 3.60265 1.31771 3.69009 1.31771 3.78126C1.31771 3.87243 1.35392 3.95986 1.41839 4.02432C1.48286 4.08879 1.57029 4.12501 1.66146 4.12501H3.7455L3.23217 6.87501H1.20312C1.11196 6.87501 1.02452 6.91122 0.960056 6.97569C0.895591 7.04015 0.859375 7.12759 0.859375 7.21876C0.859375 7.30993 0.895591 7.39736 0.960056 7.46182C1.02452 7.52629 1.11196 7.56251 1.20312 7.56251H3.10383L2.69867 9.73363C2.68911 9.77849 2.68862 9.82482 2.69724 9.86987C2.70586 9.91492 2.72341 9.95779 2.74886 9.99596C2.77431 10.0341 2.80713 10.0668 2.84541 10.0921C2.88368 10.1174 2.92663 10.1347 2.97171 10.1432C3.0168 10.1516 3.06312 10.1509 3.10794 10.1412C3.15276 10.1314 3.19518 10.1128 3.23269 10.0864C3.27021 10.06 3.30206 10.0264 3.32637 9.98746C3.35068 9.94856 3.36696 9.90519 3.37425 9.8599L3.80325 7.56251H6.31217L5.907 9.73363ZM4.44492 4.12501H6.95383L6.4405 6.87501H3.93158L4.44492 4.12501Z" fill="white" />
</svg>



