<svg width="21" height="19" viewBox="0 0 21 19" fill="none" xmlns="http://www.w3.org/2000/svg">
    <path d="M20.5592 0.219471C20.4421 0.118244 20.2942 0.0481578 20.1328 0.0174538C19.9714 -0.0132503 19.8033 -0.00329626 19.6482 0.0461455L0.559938 6.07484C0.395317 6.12908 0.253589 6.22552 0.153576 6.35138C0.0535637 6.47723 0 6.62653 0 6.77945C0 6.93237 0.0535637 7.08167 0.153576 7.20752C0.253589 7.33337 0.395317 7.42982 0.559938 7.48405L8.88934 10.3778L12.2211 17.6123C12.2837 17.749 12.391 17.8668 12.5298 17.9511C12.6685 18.0355 12.8327 18.0827 13.002 18.087C13.1773 18.0839 13.3475 18.0347 13.49 17.9459C13.6325 17.8571 13.7406 17.7329 13.8002 17.5897L20.7414 1.01074C20.8005 0.87741 20.8148 0.732234 20.7825 0.592137C20.7502 0.45204 20.6728 0.322795 20.5592 0.219471ZM13.002 15.2234L10.5813 9.94828L14.7373 6.3386L13.5139 5.27604L9.32317 8.91587L3.28435 6.78322L18.4942 2.01301L13.002 15.2234Z" fill="white" />
</svg>