<svg width="136" height="136" viewBox="0 0 136 136" fill="none" xmlns="http://www.w3.org/2000/svg">
<path d="M101.168 33C96.8502 33 93.3368 36.5131 93.3368 40.8315C93.3368 43.2074 94.4017 45.3379 96.0775 46.7754L81.6195 70.9644C80.8011 70.6735 79.9212 70.5138 79.0043 70.5138C78.2557 70.5138 77.5324 70.6217 76.8462 70.8185L64.4914 57.5684C64.9665 56.5589 65.2335 55.433 65.2335 54.2454C65.2335 49.9271 61.7203 46.4139 57.402 46.4139C53.0837 46.4139 49.5705 49.9269 49.5705 54.2454C49.5705 56.465 50.5002 58.4703 51.9888 59.8967L36.9416 87.9967C36.5785 87.945 36.2082 87.9165 35.8312 87.9165C31.5134 87.9165 28 91.4298 28 95.7481C28 100.066 31.5134 103.58 35.8315 103.58C40.1497 103.58 43.663 100.067 43.663 95.7481C43.663 93.586 42.7822 91.626 41.3609 90.2074L56.4556 62.0176C56.7662 62.0551 57.0816 62.0769 57.402 62.0769C58.7318 62.0769 59.985 61.7428 61.0829 61.1555L72.7372 73.6543C71.7554 74.9628 71.1728 76.5872 71.1728 78.3454C71.1728 82.6637 74.686 86.177 79.0043 86.177C83.3226 86.177 86.8358 82.6638 86.8358 78.3454C86.8358 76.7537 86.3574 75.2721 85.5384 74.035L100.712 48.6489C100.863 48.6576 101.015 48.6633 101.168 48.6633C105.487 48.6633 109 45.1503 109 40.8318C109 36.5134 105.487 33 101.168 33ZM35.8315 98.6406C34.2365 98.6406 32.9391 97.3431 32.9391 95.7481C32.9391 94.1531 34.2367 92.8557 35.8315 92.8557C37.4264 92.8557 38.7239 94.1531 38.7239 95.7481C38.7239 97.3431 37.4265 98.6406 35.8315 98.6406ZM57.402 57.1378C55.807 57.1378 54.5096 55.8404 54.5096 54.2454C54.5096 52.6504 55.8072 51.353 57.402 51.353C58.9968 51.353 60.2944 52.6504 60.2944 54.2454C60.2944 55.8404 58.9968 57.1378 57.402 57.1378ZM79.0043 81.2378C77.4093 81.2378 76.1119 79.9402 76.1119 78.3452C76.1119 76.7502 77.4094 75.4528 79.0043 75.4528C80.5991 75.4528 81.8967 76.7502 81.8967 78.3452C81.8967 79.9402 80.599 81.2378 79.0043 81.2378ZM101.168 43.7241C99.5733 43.7241 98.2759 42.4267 98.2759 40.8317C98.2759 39.2367 99.5735 37.9393 101.168 37.9393C102.763 37.9393 104.061 39.2365 104.061 40.8315C104.061 42.4265 102.763 43.7241 101.168 43.7241Z" fill="#F7F5DD"/>
<path d="M126.167 34C126.167 20.6709 115.329 9.83333 102 9.83333H34C20.6709 9.83333 9.83333 20.6709 9.83333 34V102C9.83333 115.329 20.6709 126.167 34 126.167H102C115.329 126.167 126.167 115.329 126.167 102V34ZM34 1.5H102C119.951 1.5 134.5 16.0491 134.5 34V102C134.5 119.951 119.951 134.5 102 134.5H34C16.0491 134.5 1.5 119.951 1.5 102V34C1.5 16.0491 16.0491 1.5 34 1.5Z" fill="#F7F5DD" stroke="#28252D" stroke-width="3"/>
<path d="M99.5328 97.5795C103.226 98.8264 106.167 101.766 107.417 105.457C107.688 106.35 108.518 107 109.5 107C110.478 107 111.305 106.355 111.579 105.467C112.826 101.774 115.766 98.8329 119.457 97.5829C120.35 97.3118 121 96.4818 121 95.5001C121 94.5224 120.355 93.6953 119.467 93.4206C115.774 92.1737 112.833 89.2344 111.583 85.5431C111.312 84.6498 110.482 84 109.5 84C108.522 84 107.695 84.6451 107.421 85.5328C106.174 89.2254 103.234 92.1671 99.543 93.4171C98.6498 93.6882 98 94.5182 98 95.5C98 96.4777 98.6452 97.3049 99.5328 97.5795ZM109.5 91.0234C110.699 92.7796 112.22 94.3013 113.977 95.4999C112.22 96.6986 110.699 98.2201 109.5 99.9764C108.302 98.2201 106.78 96.6984 105.024 95.4999C106.78 94.3013 108.302 92.7798 109.5 91.0234Z" fill="#F7F5DD"/>
<path d="M45.7337 24.7822C42.6831 23.7521 40.253 21.3239 39.2206 18.2745C38.9967 17.5368 38.311 17 37.5001 17C36.6924 17 36.0091 17.5329 35.7822 18.2663C34.7521 21.3168 32.324 23.7468 29.2747 24.7794C28.5368 25.0033 28 25.689 28 26.4999C28 27.3076 28.5329 27.9909 29.2663 28.2178C32.3168 29.2479 34.7468 31.676 35.7794 34.7253C36.0033 35.4632 36.689 36 37.4999 36C38.3076 36 38.9909 35.4671 39.2177 34.7337C40.2476 31.6833 42.6759 29.2532 45.7253 28.2206C46.4632 27.9967 47 27.311 47 26.5001C47 25.6924 46.467 25.0091 45.7337 24.7822ZM37.4999 30.1982C36.5097 28.7473 35.2528 27.4903 33.8019 26.5002C35.2528 25.5099 36.5098 24.253 37.4999 22.8022C38.4901 24.253 39.7471 25.5101 41.1979 26.5002C39.7471 27.4903 38.4901 28.7472 37.4999 30.1982Z" fill="#F7F5DD"/>
<path d="M93.7337 105.782C90.6831 104.752 88.253 102.324 87.2206 99.2745C86.9967 98.5368 86.311 98 85.5001 98C84.6924 98 84.0091 98.5329 83.7822 99.2663C82.7521 102.317 80.324 104.747 77.2747 105.779C76.5368 106.003 76 106.689 76 107.5C76 108.308 76.5329 108.991 77.2663 109.218C80.3168 110.248 82.7468 112.676 83.7794 115.725C84.0033 116.463 84.689 117 85.4999 117C86.3076 117 86.9909 116.467 87.2177 115.734C88.2476 112.683 90.6759 110.253 93.7253 109.221C94.4632 108.997 95 108.311 95 107.5C95 106.692 94.467 106.009 93.7337 105.782ZM85.4999 111.198C84.5097 109.747 83.2528 108.49 81.8019 107.5C83.2528 106.51 84.5098 105.253 85.4999 103.802C86.4901 105.253 87.7471 106.51 89.1979 107.5C87.7471 108.49 86.4901 109.747 85.4999 111.198Z" fill="#F7F5DD"/>
</svg>
