<svg width="15" height="15" viewBox="0 0 15 15" fill="none" xmlns="http://www.w3.org/2000/svg">
<path fill-rule="evenodd" clip-rule="evenodd" d="M7.125 1.22143C3.86455 1.22143 1.22143 3.86455 1.22143 7.125C1.22143 10.3855 3.86455 13.0286 7.125 13.0286C10.3855 13.0286 13.0286 10.3855 13.0286 7.125C13.0286 3.86455 10.3855 1.22143 7.125 1.22143ZM0 7.125C0 3.18997 3.18997 0 7.125 0C11.06 0 14.25 3.18997 14.25 7.125C14.25 11.06 11.06 14.25 7.125 14.25C3.18997 14.25 0 11.06 0 7.125Z" fill="#BBBABC"/>
<path fill-rule="evenodd" clip-rule="evenodd" d="M7.12487 2.44281C7.46215 2.44281 7.73559 2.71624 7.73559 3.05352V6.78645L9.89141 8.13385C10.1775 8.31259 10.2644 8.68936 10.0856 8.97542C9.90688 9.26148 9.53011 9.34836 9.24405 9.16962L6.8012 7.64284C6.62262 7.5312 6.51416 7.33553 6.51416 7.12495V3.05352C6.51416 2.71624 6.7876 2.44281 7.12487 2.44281Z" fill="#BBBABC"/>
</svg>
