<svg width="18" height="21" viewBox="0 0 18 21" fill="none" xmlns="http://www.w3.org/2000/svg">
<path fill-rule="evenodd" clip-rule="evenodd" d="M5.64788 11.9999C5.6644 11.9991 5.68093 11.9987 5.69746 11.9987H12.3019C12.3185 11.9987 12.335 11.9991 12.3515 11.9999C14.6646 12.1147 16.7148 13.5224 17.6536 15.6376C18.328 16.9866 17.952 18.3222 17.0911 19.2419C16.2573 20.1325 14.9656 20.6643 13.6231 20.6643H4.3763C3.03431 20.6643 1.74298 20.1323 0.909396 19.2419C0.0485599 18.3224 -0.327845 16.987 0.345575 15.6379C1.28444 13.5224 3.33479 12.1148 5.64788 11.9999ZM5.7236 13.9985C4.16794 14.0845 2.79187 15.0382 2.16577 16.4663C2.15801 16.484 2.14974 16.5015 2.14098 16.5187C1.89031 17.0107 1.98391 17.4636 2.36924 17.8752C2.78748 18.3219 3.53057 18.6645 4.3763 18.6645H13.6231C14.4697 18.6645 15.213 18.3218 15.6311 17.8752C16.0163 17.4639 16.1097 17.0114 15.8587 16.5192C15.8499 16.5019 15.8415 16.4841 15.8336 16.4663C15.2076 15.0382 13.8315 14.0845 12.2758 13.9985H5.7236Z" fill="black"/>
<path fill-rule="evenodd" clip-rule="evenodd" d="M8.99971 1.99974C7.34312 1.99974 6.00011 3.34272 6.00011 4.99936C6.00011 6.656 7.34312 7.99897 8.99971 7.99897C10.6564 7.99897 11.9993 6.656 11.9993 4.99936C11.9993 4.20381 11.6834 3.44085 11.1208 2.87831C10.5582 2.31577 9.79521 1.99974 8.99971 1.99974ZM4.00037 4.99936C4.00037 2.23829 6.23865 0 8.99971 0C10.3257 0 11.5972 0.526719 12.5349 1.46428C13.4723 2.40184 13.9991 3.67345 13.9991 4.99936C13.9991 7.76047 11.7608 9.99872 8.99971 9.99872C6.23865 9.99872 4.00037 7.76047 4.00037 4.99936Z" fill="black"/>
</svg>
