<svg width="14" height="24" viewBox="0 0 14 24" fill="none" xmlns="http://www.w3.org/2000/svg">
<path d="M11.4753 8.50913C11.4753 8.40004 11.4753 8.29095 11.3662 8.29095C10.9298 7.20003 10.2753 6.54548 9.40253 6.00003C9.94799 5.34548 10.2753 4.58184 10.2753 3.70911C10.2753 1.63637 8.63889 0 6.56616 0C4.49342 0 2.85705 1.63637 2.85705 3.70911C2.85705 4.58184 3.18432 5.34548 3.72978 6.00003C2.85705 6.54548 2.2025 7.20003 1.76613 8.29095C1.76613 8.40004 1.65704 8.40004 1.65704 8.50913L0.0206729 16.8001C-0.0884185 17.3456 0.238856 18.0001 0.893404 18.1092C1.43886 18.2183 2.09341 17.891 2.2025 17.2365L3.83887 9.16371C4.38433 7.96367 5.14797 7.52731 6.56616 7.52731C7.98434 7.52731 8.74798 7.96367 9.29344 9.16371L10.9298 17.2365C11.0389 17.7819 11.4753 18.1092 12.0207 18.1092C12.1298 18.1092 12.1298 18.1092 12.2389 18.1092C12.7844 18.0001 13.2207 17.4547 13.1116 16.8001L11.4753 8.50913ZM6.56616 2.18183C7.43889 2.18183 8.09344 2.83638 8.09344 3.70911C8.09344 4.58184 7.43889 5.1273 6.56616 5.1273C5.69343 5.1273 5.03888 4.47275 5.03888 3.60002C5.03888 2.72728 5.69343 2.18183 6.56616 2.18183Z" fill="black"/>
<path d="M8.7479 17.8909C8.09336 17.8909 7.65699 18.3272 7.65699 18.9818V20.9454C7.65699 21.3818 7.22062 21.8182 6.56608 21.8182C5.91153 21.8182 5.47516 21.3818 5.47516 20.9454V18.9818C5.47516 18.3272 5.0388 17.8909 4.38425 17.8909C3.7297 17.8909 3.29333 18.3272 3.29333 18.9818V20.9454C3.29333 22.5818 4.71152 24 6.56608 24C8.42063 24 9.83882 22.5818 9.83882 20.9454V18.9818C9.83882 18.3272 9.40245 17.8909 8.7479 17.8909Z" fill="black"/>
</svg>
