<svg width="15" height="22" viewBox="0 0 15 22" fill="none" xmlns="http://www.w3.org/2000/svg">
<path d="M10.4 22H3.6C1.6 22 0 20.4 0 18.4V3.6C0 1.6 1.6 0 3.6 0H10.5C12.5 0 14.1 1.6 14.1 3.6V18.5C14 20.4 12.4 22 10.4 22ZM3.6 2C2.7 2 2 2.7 2 3.6V18.5C2 19.3 2.7 20 3.6 20H10.5C11.4 20 12.1 19.3 12.1 18.4V3.6C12 2.7 11.3 2 10.4 2H3.6Z" fill="black"/>
<path d="M8.29994 5.2998H5.69994C5.09994 5.2998 4.69995 4.8998 4.69995 4.2998C4.69995 3.6998 5.09994 3.2998 5.69994 3.2998H8.39994C8.99994 3.2998 9.39994 3.6998 9.39994 4.2998C9.39994 4.8998 8.89994 5.2998 8.29994 5.2998Z" fill="black"/>
</svg>
