<?xml version="1.0" encoding="iso-8859-1"?>
<!-- Generator: Adobe Illustrator 18.0.0, SVG Export Plug-In . SVG Version: 6.00 Build 0)  -->
<!DOCTYPE svg PUBLIC "-//W3C//DTD SVG 1.1//EN" "http://www.w3.org/Graphics/SVG/1.1/DTD/svg11.dtd">
<svg version="1.1" id="Capa_1" xmlns="http://www.w3.org/2000/svg" xmlns:xlink="http://www.w3.org/1999/xlink" x="0px" y="0px"
	 viewBox="0 0 58 58" style="enable-background:new 0 0 58 58;" xml:space="preserve" fill="#E15561">
<g>
	<path d="M54,34.5c0-3.859-3.14-7-7-7s-7,3.141-7,7v1h-4v18h22v-18h-4V34.5z M42,34.5c0-2.757,2.243-5,5-5s5,2.243,5,5v1H42V34.5z
		 M56,37.5v14H38v-14h2h14H56z"/>
	<path d="M46,47.358V48.5c0,0.553,0.448,1,1,1s1-0.447,1-1v-1.142c1.72-0.447,3-1.999,3-3.858c0-2.206-1.794-4-4-4s-4,1.794-4,4
		C43,45.359,44.28,46.911,46,47.358z M47,41.5c1.103,0,2,0.897,2,2s-0.897,2-2,2s-2-0.897-2-2S45.897,41.5,47,41.5z"/>
	<path d="M0,5.732v37.962c5.233-4.049,16.986-13.204,22.449-17.944L0,5.732z"/>
	<path d="M35.587,25.717l3.439,2.774C40.853,26.073,43.743,24.5,47,24.5c4.829,0,8.869,3.441,9.798,8H58V5.732L35.587,25.717z"/>
	<path d="M31.299,26.861L56.376,4.5H1.624l25.076,22.36C27.968,27.993,30.031,27.993,31.299,26.861z"/>
	<path d="M37.978,30.215l-3.904-3.149l-1.444,1.287c-1,0.893-2.315,1.34-3.63,1.34s-2.63-0.447-3.631-1.34l-1.414-1.261
		c-5.521,4.814-17.851,14.41-23.007,18.398C0.966,45.49,0.981,45.5,1,45.5h32v-13h4.202C37.365,31.698,37.635,30.936,37.978,30.215z
		"/>
</g>
<g>
</g>
<g>
</g>
<g>
</g>
<g>
</g>
<g>
</g>
<g>
</g>
<g>
</g>
<g>
</g>
<g>
</g>
<g>
</g>
<g>
</g>
<g>
</g>
<g>
</g>
<g>
</g>
<g>
</g>
</svg>
