<svg width="16" height="18" viewBox="0 0 16 18" fill="none" xmlns="http://www.w3.org/2000/svg">
<path fill-rule="evenodd" clip-rule="evenodd" d="M3.5 4.29993C3.5 1.9563 5.40279 0.0564117 7.75 0.0564117C10.0972 0.0564117 12 1.9563 12 4.29993C12 6.64356 10.0972 8.54345 7.75 8.54345C5.40279 8.54345 3.5 6.64356 3.5 4.29993ZM7.75 1.55413C6.2312 1.55413 5 2.78347 5 4.29993C5 5.8164 6.2312 7.04574 7.75 7.04574C9.2688 7.04574 10.5 5.8164 10.5 4.29993C10.5 2.78347 9.2688 1.55413 7.75 1.55413Z" fill="#F7F5DD"/>
<path fill-rule="evenodd" clip-rule="evenodd" d="M3.75 11.5389C2.50736 11.5389 1.5 12.5447 1.5 13.7855V14.9719C1.5 14.99 1.51311 15.0054 1.53097 15.0083C5.64972 15.6798 9.8503 15.6798 13.969 15.0083C13.9869 15.0054 14 14.99 14 14.9719V13.7855C14 12.5447 12.9926 11.5389 11.75 11.5389H11.4091C11.3828 11.5389 11.3566 11.5431 11.3315 11.5512L10.466 11.8334C8.7012 12.4088 6.7988 12.4088 5.03398 11.8334L4.16847 11.5512C4.14342 11.5431 4.11722 11.5389 4.09087 11.5389H3.75ZM0 13.7855C0 11.7175 1.67893 10.0412 3.75 10.0412H4.09087C4.27536 10.0412 4.45869 10.0703 4.63407 10.1274L5.49959 10.4097C6.9619 10.8864 8.5381 10.8864 10.0004 10.4097L10.8659 10.1274C11.0413 10.0703 11.2246 10.0412 11.4091 10.0412H11.75C13.8211 10.0412 15.5 11.7175 15.5 13.7855V14.9719C15.5 15.724 14.9541 16.3652 14.2107 16.4864C9.9319 17.184 5.5681 17.184 1.28927 16.4864C0.54588 16.3652 0 15.724 0 14.9719V13.7855Z" fill="#F7F5DD"/>
</svg>
