<svg width="100" height="126" viewBox="0 0 100 126" fill="none" xmlns="http://www.w3.org/2000/svg">
<path d="M66.0161 9.67742V8.17742H64.5161H17.7419C12.4596 8.17742 8.17742 12.4596 8.17742 17.7419V108.065C8.17742 113.347 12.4596 117.629 17.7419 117.629H82.2581C87.5407 117.629 91.8226 113.347 91.8226 108.065V42.8842V41.3842H90.3226H69.3548C67.511 41.3842 66.0161 39.8894 66.0161 38.0455V9.67742ZM1.5 17.7419C1.5 8.77178 8.77178 1.5 17.7419 1.5H69.369C72.4387 1.5 75.3299 2.9394 77.1807 5.38849L96.5212 30.9861C97.8052 32.6858 98.5 34.7579 98.5 36.8881V108.065C98.5 117.035 91.2283 124.306 82.2581 124.306H17.7419C8.77178 124.306 1.5 117.035 1.5 108.065V17.7419Z" fill="#F7F5DD" stroke="#28252D" stroke-width="3"/>
<path d="M69.355 91.8228C71.1989 91.8228 72.6937 93.3176 72.6937 95.1615C72.6937 97.0053 71.1989 98.5002 69.355 98.5002H30.6453C28.8015 98.5002 27.3066 97.0053 27.3066 95.1615C27.3066 93.3176 28.8015 91.8228 30.6453 91.8228H69.355Z" fill="#F7F5DD" stroke="#28252D" stroke-width="3"/>
<path d="M69.355 66.0163C71.1989 66.0163 72.6937 67.5111 72.6937 69.355C72.6937 71.1988 71.1989 72.6937 69.355 72.6937H30.6453C28.8015 72.6937 27.3066 71.1988 27.3066 69.355C27.3066 67.5111 28.8015 66.0163 30.6453 66.0163H69.355Z" fill="#F7F5DD" stroke="#28252D" stroke-width="3"/>
</svg>
