<svg width="132" height="122" viewBox="0 0 132 122" fill="none" xmlns="http://www.w3.org/2000/svg">
<path d="M14.9977 34.4475C10.3365 42.5232 7.88328 51.6836 7.88469 61.0079H120.5C120.498 74.1055 116.175 86.8365 108.2 97.2266C100.226 107.617 89.0459 115.085 76.3942 118.474C63.7425 121.863 50.3262 120.982 38.226 115.969C26.1257 110.956 16.0178 102.09 9.46966 90.7467C2.92156 79.4034 0.299279 66.2164 2.00949 53.2309C3.7197 40.2454 9.66684 28.187 18.9286 18.9259C28.1903 9.66473 40.2491 3.71837 53.2347 2.00899C66.2185 0.299857 79.4034 2.922 90.7452 9.46878C91.4705 9.89531 91.9981 10.591 92.2132 11.4045C92.4286 12.2195 92.313 13.0867 91.8915 13.8167C91.47 14.5467 90.7769 15.0804 89.9633 15.3013C89.1512 15.5218 88.2849 15.4126 87.5529 14.9978C79.4789 10.3374 70.3205 7.88409 60.998 7.88445C51.6736 7.88482 42.5136 10.3398 34.4388 15.0026C26.364 19.6655 19.6589 26.3718 14.9977 34.4475ZM7.88469 61.0081C7.88475 75.0951 13.4808 88.6051 23.4418 98.5661C33.4029 108.527 46.913 114.123 61 114.123C75.0871 114.123 88.5972 108.527 98.5583 98.5661C108.519 88.605 114.115 75.0949 114.115 61.0079C114.115 60.1612 114.452 59.3492 115.05 58.7506C115.649 58.1519 116.461 57.8156 117.308 57.8156C118.154 57.8156 118.966 58.1519 119.565 58.7506C120.164 59.3492 120.5 60.1611 120.5 61.0077L7.88469 61.0081Z" fill="#4DA723" stroke="#28252D" stroke-width="3"/>
<path d="M59.9394 74.2023L61.0001 75.2634L62.061 74.2024L124.431 11.823C124.728 11.526 125.081 11.2904 125.469 11.1297C125.857 10.969 126.272 10.8862 126.692 10.8862C127.112 10.8862 127.528 10.969 127.916 11.1297C128.304 11.2904 128.657 11.526 128.954 11.823C129.251 12.12 129.487 12.4725 129.647 12.8605C129.808 13.2486 129.891 13.6644 129.891 14.0845C129.891 14.5045 129.808 14.9204 129.647 15.3084C129.487 15.6964 129.251 16.049 128.954 16.346L63.2617 82.0382L63.2604 82.0396C62.9639 82.3368 62.6116 82.5727 62.2238 82.7336L62.7987 84.1191L62.2237 82.7336C61.8359 82.8946 61.4201 82.9774 61.0002 82.9774C60.5804 82.9774 60.1646 82.8946 59.7768 82.7336L59.2018 84.1191L59.7767 82.7336C59.3889 82.5727 59.0366 82.3368 58.7401 82.0396L58.7388 82.0382L30.5849 53.8844C30.288 53.5874 30.0524 53.2348 29.8916 52.8468C29.7309 52.4588 29.6482 52.0429 29.6482 51.6229C29.6482 51.2029 29.7309 50.787 29.8916 50.399C30.0524 50.011 30.288 49.6584 30.5849 49.3614C30.8819 49.0644 31.2345 48.8288 31.6225 48.6681C32.0105 48.5074 32.4264 48.4247 32.8464 48.4247C33.2664 48.4247 33.6823 48.5074 34.0703 48.6681C34.4584 48.8288 34.8109 49.0644 35.1079 49.3614L59.9394 74.2023Z" fill="#4DA723" stroke="#28252D" stroke-width="3"/>
</svg>
