<svg width="33" height="33" viewBox="0 0 33 33" fill="none" xmlns="http://www.w3.org/2000/svg">
<g style="mix-blend-mode:multiply">
<g style="mix-blend-mode:multiply" opacity="0.09">
<path d="M16.5 0.175232C12.1572 0.175232 8.08578 1.87147 5.03279 4.92567C1.97981 7.97744 0.283569 12.0489 0.283569 16.3917C0.283569 20.7345 1.97981 24.806 5.03401 27.859C8.087 30.912 12.1585 32.6094 16.5013 32.6094C20.8441 32.6094 24.9155 30.9132 27.9685 27.859C31.0215 24.806 32.719 20.7345 32.719 16.3917C32.719 12.0489 31.0227 7.97744 27.9685 4.92446C24.9143 1.87147 20.8429 0.175232 16.5 0.175232Z" fill="#FCFCFC"/>
</g>
<g style="mix-blend-mode:multiply" opacity="0.18">
<path d="M16.5 0.349243C12.2217 0.349243 8.22321 2.02601 5.23349 5.01573C2.24257 8.00665 0.565796 12.0051 0.565796 16.2834C0.565796 20.5617 2.24257 24.5602 5.23228 27.5499C8.22199 30.5396 12.2217 32.2164 16.4988 32.2164C20.7759 32.2164 24.7755 30.5396 27.7652 27.5499C30.755 24.5602 32.4317 20.5605 32.4317 16.2834C32.4317 12.0063 30.755 8.00665 27.7652 5.01694C24.7767 2.02601 20.7783 0.349243 16.5 0.349243Z" fill="#FAFAFA"/>
</g>
<g style="mix-blend-mode:multiply" opacity="0.27">
<path d="M16.5 0.524445C12.2862 0.524445 8.36076 2.18175 5.4331 5.10818C2.50667 8.03584 0.849365 11.9613 0.849365 16.1751C0.849365 20.3889 2.50667 24.3144 5.4331 27.242C8.36076 30.1697 12.2862 31.8258 16.5 31.8258C20.7139 31.8258 24.6393 30.1685 27.567 27.242C30.4946 24.3144 32.1507 20.3889 32.1507 16.1751C32.1507 11.9613 30.4934 8.03584 27.567 5.10818C24.6393 2.18053 20.7139 0.524445 16.5 0.524445Z" fill="#F7F7F7"/>
</g>
<g style="mix-blend-mode:multiply" opacity="0.36">
<path d="M16.5001 0.698456C12.3507 0.698456 8.49709 2.33507 5.63393 5.19945C2.76955 8.06383 1.13293 11.9175 1.13293 16.0668C1.13293 20.2162 2.76955 24.0698 5.63393 26.933C8.49831 29.7973 12.352 31.434 16.5001 31.434C20.6482 31.434 24.5031 29.7973 27.3662 26.933C30.2306 24.0686 31.8672 20.2149 31.8672 16.0668C31.8672 11.9187 30.2306 8.06383 27.3662 5.20067C24.5031 2.33629 20.6494 0.698456 16.5001 0.698456Z" fill="#F4F4F4"/>
</g>
<g style="mix-blend-mode:multiply" opacity="0.45">
<path d="M16.5 0.873688C12.4164 0.873688 8.63452 2.49083 5.83342 5.29194C3.03353 8.09305 1.41638 11.8737 1.41638 15.9573C1.41638 20.0409 3.03353 23.8228 5.83463 26.6239C8.63574 29.425 12.4164 31.0422 16.5012 31.0422C20.5861 31.0422 24.3667 29.425 27.1678 26.6239C29.9689 23.8228 31.5861 20.0422 31.5861 15.9573C31.5861 11.8725 29.9689 8.09183 27.1678 5.29072C24.3655 2.49083 20.5849 0.873688 16.5 0.873688Z" fill="#F2F2F2"/>
</g>
<g style="mix-blend-mode:multiply" opacity="0.55">
<path d="M16.5001 1.04768C12.4809 1.04768 8.77207 2.64536 6.03424 5.38319C3.29641 8.12102 1.69873 11.8299 1.69873 15.849C1.69873 19.8681 3.29641 23.577 6.03424 26.3148C8.77207 29.0527 12.4809 30.6503 16.5001 30.6503C20.5192 30.6503 24.228 29.0527 26.9659 26.3148C29.7037 23.577 31.3014 19.8681 31.3014 15.849C31.3014 11.8299 29.7037 8.12102 26.9659 5.38319C24.228 2.64536 20.5192 1.04768 16.5001 1.04768Z" fill="#EFEFEF"/>
</g>
<g style="mix-blend-mode:multiply" opacity="0.64">
<path d="M16.5 1.2229C12.5453 1.2229 8.9095 2.79989 6.23372 5.47567C3.55916 8.15022 1.98096 11.7861 1.98096 15.7419C1.98096 19.6978 3.55795 23.3324 6.23372 26.0082C8.90828 28.6827 12.5441 30.261 16.5 30.261C20.4558 30.261 24.0905 28.684 26.7662 26.0082C29.4408 23.3336 31.019 19.6978 31.019 15.7419C31.019 11.7861 29.442 8.15144 26.7662 5.47567C24.0917 2.80111 20.4558 1.2229 16.5 1.2229Z" fill="#EDEDED"/>
</g>
<g style="mix-blend-mode:multiply" opacity="0.73">
<path d="M16.5 1.39813C12.6099 1.39813 9.04584 2.95565 6.43455 5.56694C3.82327 8.17822 2.26575 11.7423 2.26575 15.6324C2.26575 19.5226 3.82327 23.0866 6.43455 25.6979C9.04584 28.3092 12.6099 29.8667 16.5 29.8667C20.3902 29.8667 23.9542 28.3092 26.5655 25.6979C29.1768 23.0866 30.7343 19.5226 30.7343 15.6324C30.7343 11.7423 29.1768 8.17822 26.5655 5.56694C23.9542 2.95565 20.3902 1.39813 16.5 1.39813Z" fill="#EAEAEA"/>
</g>
<g style="mix-blend-mode:multiply" opacity="0.82">
<path d="M16.5 1.57213C12.6743 1.57213 9.18326 3.11018 6.63526 5.65819C4.08725 8.2062 2.54919 11.6985 2.54919 15.5229C2.54919 19.3473 4.08725 22.8396 6.63526 25.3876C9.18326 27.9356 12.6755 29.4737 16.5 29.4737C20.3244 29.4737 23.8167 27.9356 26.3647 25.3876C28.9127 22.8396 30.4507 19.3473 30.4507 15.5229C30.4507 11.6985 28.9127 8.2062 26.3647 5.65819C23.8167 3.11018 20.3244 1.57213 16.5 1.57213Z" fill="#E7E7E7"/>
</g>
<g style="mix-blend-mode:multiply" opacity="0.91">
<path d="M16.5 1.74734C12.7388 1.74734 9.32081 3.26593 6.83486 5.75066C4.34891 8.23661 2.83154 11.6546 2.83154 15.4158C2.83154 19.177 4.35013 22.595 6.83486 25.081C9.32081 27.5669 12.7388 29.0843 16.5 29.0843C20.2612 29.0843 23.6792 27.5657 26.1652 25.081C28.6511 22.595 30.1685 19.177 30.1685 15.4158C30.1685 11.6546 28.6499 8.23661 26.1652 5.75066C23.6792 3.26471 20.2612 1.74734 16.5 1.74734Z" fill="#E5E5E5"/>
</g>
<g style="mix-blend-mode:multiply">
<path d="M25.9656 24.7722C31.1927 19.545 31.1927 11.0701 25.9656 5.84298C20.7384 0.615829 12.2635 0.615828 7.03637 5.84298C1.80922 11.0701 1.80922 19.545 7.03637 24.7722C12.2635 29.9993 20.7384 29.9993 25.9656 24.7722Z" fill="#E2E2E2"/>
</g>
</g>
<path d="M26.4958 25.2878C32.0166 19.767 32.0166 10.816 26.4958 5.29519C20.975 -0.225632 12.024 -0.225633 6.50317 5.29519C0.982346 10.816 0.982345 19.767 6.50317 25.2878C12.024 30.8087 20.975 30.8087 26.4958 25.2878Z" fill="url(#paint0_radial_0_470)"/>
<path d="M16.3139 23.5466C14.6042 23.4894 13.4032 23.1657 13.3521 23.1523C12.678 22.9686 12.2801 22.2714 12.4626 21.5985C12.6172 21.029 13.1368 20.6457 13.7257 20.6652C13.823 20.6688 13.9204 20.6834 14.0141 20.709C14.0238 20.7114 15.0131 20.9694 16.4027 21.0156C16.8432 21.0302 17.2812 21.0229 17.7047 20.9925C20.3379 20.8063 22.4308 19.8073 23.9238 18.0235C24.1757 17.7229 24.5456 17.5574 24.9386 17.5708C25.2234 17.5805 25.4886 17.6828 25.7077 17.8653C26.2431 18.3131 26.3136 19.1137 25.8659 19.6491C23.925 21.9684 21.1361 23.3081 17.7996 23.5247C17.3129 23.5563 16.8128 23.5636 16.3114 23.5466H16.3139Z" fill="url(#paint1_linear_0_470)"/>
<path d="M16.3175 23.4395C14.6261 23.3823 13.4434 23.0659 13.3813 23.0489C12.7644 22.881 12.3993 22.2446 12.5685 21.6264C12.7364 21.0095 13.3716 20.6457 13.9885 20.8124C14.0201 20.8209 15.6531 21.2456 17.7156 21.0996C20.3792 20.911 22.4964 19.8998 24.0089 18.0916C24.419 17.6012 25.1503 17.5355 25.6407 17.9468C26.1311 18.3569 26.1968 19.0882 25.7855 19.5785C23.8641 21.8747 21.102 23.201 17.7959 23.4164C17.2739 23.4505 16.7774 23.4541 16.3187 23.4383L16.3175 23.4395Z" fill="url(#paint2_radial_0_470)"/>
<path d="M10.6544 14.1954C9.5702 14.2027 8.68071 13.1039 8.67098 11.7459C8.66124 10.388 9.53613 9.277 10.6203 9.26848C11.7045 9.26118 12.594 10.36 12.6037 11.7179C12.6135 13.0759 11.7386 14.1868 10.6544 14.1954Z" fill="url(#paint3_linear_0_470)"/>
<path d="M8.63936 11.7703C8.62963 10.3587 9.50695 9.20886 10.5997 9.20156C11.6923 9.19426 12.5867 10.332 12.5964 11.7423C12.6062 13.1538 11.7289 14.3037 10.6362 14.311C9.54346 14.3183 8.6491 13.1805 8.63936 11.7703Z" fill="#4C2207"/>
<path d="M8.70748 11.769C8.69775 10.4062 9.54587 9.29647 10.6008 9.28795C11.6558 9.28065 12.5198 10.3794 12.5295 11.7411C12.5392 13.1039 11.6911 14.2136 10.6361 14.2221C9.58115 14.2294 8.71722 13.1307 8.7087 11.769H8.70748Z" fill="#4E2408"/>
<path d="M8.7756 11.769C8.76586 10.4549 9.58356 9.38408 10.6008 9.37678C11.6181 9.36948 12.4504 10.4293 12.4601 11.7423C12.4698 13.0564 11.6521 14.1272 10.6349 14.1345C9.61763 14.1418 8.78533 13.082 8.7756 11.769Z" fill="#502509"/>
<path d="M8.84382 11.7678C8.8353 10.5023 9.62136 9.4717 10.6021 9.46439C11.5817 9.45709 12.3835 10.478 12.392 11.7423C12.4006 13.0078 11.6145 14.0384 10.6338 14.0457C9.65422 14.053 8.85234 13.0321 8.84382 11.7678Z" fill="#52260B"/>
<path d="M8.91194 11.7678C8.90342 10.551 9.66028 9.5593 10.6021 9.55322C11.5439 9.54714 12.3154 10.5279 12.3239 11.7435C12.3324 12.9603 11.5755 13.952 10.6337 13.9581C9.69191 13.9642 8.92045 12.9834 8.91194 11.7678Z" fill="#54280C"/>
<path d="M8.98005 11.7678C8.97154 10.5997 9.69797 9.64813 10.6033 9.64204C11.5074 9.63596 12.2472 10.5778 12.2557 11.7447C12.2642 12.9128 11.5378 13.8644 10.6325 13.8705C9.72839 13.8766 8.98857 12.9347 8.98005 11.7678Z" fill="#56290D"/>
<path d="M9.04817 11.7666C9.03966 10.6471 9.73689 9.73574 10.6033 9.72844C11.4696 9.72236 12.179 10.624 12.1876 11.7435C12.1961 12.863 11.4988 13.7743 10.6325 13.7816C9.76609 13.7877 9.05669 12.8861 9.04817 11.7666Z" fill="#582A0E"/>
<path d="M9.11639 11.7666C9.10909 10.6958 9.77469 9.82335 10.6033 9.81726C11.432 9.81118 12.111 10.6739 12.1183 11.7447C12.1256 12.8155 11.46 13.6879 10.6313 13.694C9.80268 13.7001 9.12369 12.8374 9.11639 11.7666Z" fill="#592C0F"/>
<path d="M9.18451 11.7654C9.17721 10.7433 9.81239 9.91096 10.6045 9.90488C11.3955 9.8988 12.0428 10.7226 12.0501 11.7447C12.0574 12.7668 11.4222 13.5991 10.6301 13.6052C9.83916 13.6113 9.19181 12.7875 9.18451 11.7654Z" fill="#5B2D10"/>
<path d="M9.25263 11.7654C9.24533 10.7919 9.8513 9.99857 10.6045 9.99371C11.3577 9.98884 11.9746 10.7725 11.9819 11.7459C11.9892 12.7194 11.3833 13.5127 10.6301 13.5176C9.87685 13.5225 9.25993 12.7388 9.25263 11.7654Z" fill="#5C2E10"/>
<path d="M9.32073 11.7654C9.31464 10.8406 9.88898 10.0874 10.6057 10.0825C11.3212 10.0777 11.9077 10.8224 11.9138 11.7471C11.9198 12.6719 11.3455 13.4251 10.6288 13.43C9.91332 13.4349 9.32681 12.6902 9.32073 11.7654Z" fill="#5E2F11"/>
<path d="M9.38897 11.7642C9.38288 10.8881 9.92802 10.1738 10.6058 10.1689C11.2835 10.1641 11.8396 10.8698 11.8457 11.7459C11.8518 12.622 11.3067 13.3363 10.6289 13.3399C9.95113 13.3436 9.39505 12.6391 9.38897 11.763V11.7642Z" fill="#5F3012"/>
<path d="M9.45831 11.7642C9.45222 10.9367 9.96693 10.2626 10.6082 10.2577C11.2482 10.2529 11.7727 10.9197 11.7788 11.7471C11.7849 12.5746 11.2701 13.2487 10.6289 13.2535C9.98884 13.2584 9.46439 12.5916 9.45831 11.7642Z" fill="#603013"/>
<path d="M9.52642 11.763C9.52034 10.9842 10.0058 10.3502 10.6082 10.3454C11.2117 10.3405 11.7045 10.9684 11.7094 11.7471C11.7155 12.5259 11.2312 13.1599 10.6276 13.1647C10.0241 13.1696 9.53129 12.5417 9.52642 11.763Z" fill="#613113"/>
<path d="M9.59452 11.763C9.58965 11.0329 10.0435 10.4378 10.6081 10.4342C11.1739 10.4305 11.6363 11.0183 11.6412 11.7484C11.6461 12.4784 11.1922 13.0735 10.6276 13.0771C10.0618 13.0808 9.59939 12.493 9.59452 11.763Z" fill="#623214"/>
<path d="M9.66276 11.7629C9.65789 11.0815 10.0813 10.5267 10.6094 10.523C11.1375 10.5194 11.5683 11.0681 11.5732 11.7496C11.578 12.431 11.1546 12.9858 10.6265 12.9895C10.0984 12.9931 9.66763 12.4444 9.66276 11.7629Z" fill="#633315"/>
<path d="M9.73088 11.7617C9.72601 11.129 10.1203 10.6131 10.6094 10.6106C11.0998 10.607 11.5001 11.1168 11.505 11.7496C11.5099 12.3823 11.1156 12.8982 10.6265 12.9007C10.1361 12.9043 9.73575 12.3945 9.73088 11.7617Z" fill="#643315"/>
<path d="M9.79898 11.7617C9.79533 11.1777 10.1579 10.7019 10.6106 10.6982C11.0632 10.6946 11.4332 11.1655 11.4368 11.7496C11.4405 12.3336 11.0778 12.8094 10.6252 12.8131C10.1725 12.8167 9.80263 12.3458 9.79898 11.7617Z" fill="#653416"/>
<path d="M9.8671 11.7605C9.86344 11.2251 10.1969 10.7895 10.6106 10.7859C11.0255 10.7834 11.3638 11.2142 11.3686 11.7496C11.3723 12.285 11.0389 12.7206 10.6252 12.7242C10.2115 12.7279 9.87196 12.2959 9.86831 11.7605H9.8671Z" fill="#663516"/>
<path d="M9.93521 11.7605C9.93156 11.2738 10.2345 10.8771 10.6118 10.8747C10.989 10.8722 11.2968 11.2641 11.3005 11.7508C11.3041 12.2375 11.0011 12.6342 10.6239 12.6366C10.2467 12.6391 9.93886 12.2472 9.93521 11.7605Z" fill="#663516"/>
<path d="M10.0035 11.7605C9.9998 11.3225 10.2724 10.9659 10.6119 10.9635C10.9514 10.9611 11.2288 11.3139 11.2312 11.752C11.2349 12.19 10.9623 12.5466 10.6228 12.549C10.2833 12.5514 10.0059 12.1986 10.0035 11.7605Z" fill="#673517"/>
<path d="M10.0716 11.7593C10.0691 11.3699 10.3113 11.0523 10.613 11.0511C10.9148 11.0487 11.1606 11.3626 11.1643 11.752C11.1667 12.1414 10.9245 12.459 10.6228 12.4602C10.321 12.4626 10.0752 12.1487 10.0716 11.7593Z" fill="#673617"/>
<path d="M10.1397 11.7593C10.1372 11.4186 10.349 11.1412 10.613 11.1387C10.8771 11.1363 11.0924 11.4113 11.0949 11.752C11.0973 12.0927 10.8856 12.3701 10.6215 12.3726C10.3575 12.375 10.1421 12.1 10.1397 11.7593Z" fill="#683617"/>
<path d="M10.2078 11.7581C10.2054 11.4661 10.3879 11.2276 10.613 11.2263C10.8393 11.2251 11.0243 11.46 11.0267 11.752C11.0291 12.044 10.8466 12.2825 10.6215 12.2837C10.3952 12.285 10.2102 12.0501 10.2078 11.7581Z" fill="#683618"/>
<path d="M10.276 11.7581C10.2748 11.5147 10.4257 11.3164 10.6143 11.3152C10.8029 11.3139 10.9574 11.5099 10.9586 11.7532C10.9599 11.9966 10.809 12.1949 10.6204 12.1961C10.4318 12.1974 10.2772 12.0014 10.276 11.7581Z" fill="#693718"/>
<path d="M10.3453 11.7581C10.3441 11.5634 10.4646 11.4052 10.6155 11.404C10.7664 11.404 10.8893 11.5597 10.8905 11.7544C10.8917 11.9491 10.7712 12.1073 10.6203 12.1085C10.4695 12.1085 10.3466 11.9528 10.3453 11.7581Z" fill="#693718"/>
<path d="M10.4135 11.7569C10.4135 11.6109 10.5035 11.4916 10.6167 11.4916C10.7298 11.4916 10.8223 11.6084 10.8235 11.7544C10.8235 11.9005 10.7335 12.0197 10.6203 12.0197C10.5071 12.0197 10.4147 11.9029 10.4135 11.7569Z" fill="#693718"/>
<path d="M10.4816 11.7569C10.4816 11.6595 10.5412 11.5804 10.6166 11.5792C10.6921 11.5792 10.7541 11.6571 10.7541 11.7544C10.7541 11.8518 10.6945 11.9309 10.6191 11.9321C10.5436 11.9321 10.4816 11.8542 10.4816 11.7569Z" fill="#693718"/>
<path d="M10.5498 11.7557C10.5498 11.707 10.5802 11.6668 10.6179 11.6668C10.6557 11.6668 10.6861 11.7058 10.6873 11.7544C10.6873 11.8031 10.6569 11.8433 10.6192 11.8433C10.5814 11.8433 10.551 11.8043 10.5498 11.7557Z" fill="#693718"/>
<path d="M25.2635 13.7865C25.1297 13.789 24.997 13.7561 24.879 13.6916L21.9368 12.0769C21.8783 12.0453 21.8139 12.0294 21.7481 12.0307C21.6703 12.0319 21.5948 12.0574 21.5303 12.1037L19.8232 13.3533C19.4447 13.6186 19.1722 13.7731 18.8984 13.778C18.5601 13.7841 18.2583 13.5578 17.8872 13.0224C17.5964 12.6013 17.4881 12.2387 17.555 11.9114C17.6463 11.4636 18.0588 11.1558 18.4494 10.9124C18.9726 10.5875 20.9767 9.62137 21.0619 9.58L21.2091 9.50577C21.343 9.43885 21.4853 9.40234 21.6338 9.39991C21.8613 9.39626 22.0852 9.4717 22.2665 9.61407L25.7113 12.3336C26.0545 12.605 26.1348 13.0929 25.8938 13.4458C25.7503 13.6563 25.5142 13.7841 25.2635 13.789V13.7865Z" fill="url(#paint4_linear_0_470)"/>
<path d="M25.6358 12.4298L22.191 9.71019C21.9331 9.50699 21.5741 9.45831 21.2626 9.61528L21.1129 9.69072C21.1129 9.69072 19.0358 10.6909 18.5114 11.0171C17.7545 11.4867 17.3177 11.9808 17.9857 12.9481C18.6367 13.8912 19.0042 13.7731 19.7501 13.2499L21.4573 12.0002C21.6143 11.8846 21.8224 11.8713 21.9927 11.9649L24.935 13.5797C25.2246 13.7391 25.5945 13.6575 25.7916 13.3704C25.9972 13.0698 25.9181 12.6524 25.6346 12.4286L25.6358 12.4298Z" fill="url(#paint5_radial_0_470)"/>
<defs>
<radialGradient id="paint0_radial_0_470" cx="0" cy="0" r="1" gradientUnits="userSpaceOnUse" gradientTransform="translate(19.7261 12.0346) rotate(179.59) scale(20.4376)">
<stop stop-color="#FFEF99"/>
<stop offset="0.52" stop-color="#FFD71B"/>
<stop offset="1" stop-color="#E69900"/>
</radialGradient>
<linearGradient id="paint1_linear_0_470" x1="12.4738" y1="20.2852" x2="26.0979" y2="20.7467" gradientUnits="userSpaceOnUse">
<stop stop-color="#FFD71B"/>
<stop offset="1" stop-color="#E69900"/>
</linearGradient>
<radialGradient id="paint2_radial_0_470" cx="0" cy="0" r="1" gradientUnits="userSpaceOnUse" gradientTransform="translate(19.2864 20.516) rotate(1.94) scale(5.2031 5.2031)">
<stop stop-color="#693718"/>
<stop offset="0.38" stop-color="#653415"/>
<stop offset="0.73" stop-color="#592C0F"/>
<stop offset="1" stop-color="#4C2207"/>
</radialGradient>
<linearGradient id="paint3_linear_0_470" x1="10.6207" y1="9.26974" x2="10.656" y2="14.1953" gradientUnits="userSpaceOnUse">
<stop stop-color="#FFD71B"/>
<stop offset="1" stop-color="#E69900"/>
</linearGradient>
<linearGradient id="paint4_linear_0_470" x1="17.5574" y1="11.6974" x2="26.0704" y2="11.5444" gradientUnits="userSpaceOnUse">
<stop stop-color="#FFD71B"/>
<stop offset="1" stop-color="#E69900"/>
</linearGradient>
<radialGradient id="paint5_radial_0_470" cx="0" cy="0" r="1" gradientUnits="userSpaceOnUse" gradientTransform="translate(22.1908 11.8222) rotate(-1.03) scale(3.82905 3.90719)">
<stop stop-color="#693718"/>
<stop offset="0.38" stop-color="#653415"/>
<stop offset="0.73" stop-color="#592C0F"/>
<stop offset="1" stop-color="#4C2207"/>
</radialGradient>
</defs>
</svg>
