<svg width="28" height="30" viewBox="0 0 28 30" fill="none" xmlns="http://www.w3.org/2000/svg">
<path d="M16.1106 1.11853C14.2212 2.37382 13.1587 4.43015 13.0577 6.55975L22.2404 0.459135C20.2789 -0.302831 18 -0.136762 16.1106 1.12341V1.11853Z" fill="url(#paint0_linear_0_527)"/>
<path d="M22.2404 0.459137L13.0577 6.55976C15.0193 7.32172 17.2981 7.15077 19.1875 5.89548C21.077 4.64019 22.1395 2.58385 22.2404 0.459137Z" fill="url(#paint1_linear_0_527)"/>
<path d="M11.5 1.9782C13.3991 2.89646 14.6395 4.64996 14.9952 6.60372L5.75964 2.15403C7.47599 1.20158 9.59618 1.05993 11.5 1.97331V1.9782Z" fill="url(#paint2_linear_0_527)"/>
<path d="M5.75964 2.15404L14.9952 6.60373C13.2789 7.55619 11.1587 7.69783 9.25484 6.78445C7.3558 5.86618 6.11541 4.11268 5.75964 2.15892V2.15404Z" fill="url(#paint3_linear_0_527)"/>
<path d="M14 4.90395C4.57692 1.99773 0 6.75025 0 14.6044C0 22.4585 8.29808 27.7971 14 30C20.7452 24.3048 21.7019 10.3354 14 4.90395Z" fill="url(#paint4_radial_0_527)"/>
<path d="M14 4.90395C21.7019 10.3354 20.7452 24.2999 14 30C19.4663 27.89 28 22.4585 28 14.6044C28 6.75026 22.8125 2.19311 14 4.90395Z" fill="url(#paint5_radial_0_527)"/>
<defs>
<linearGradient id="paint0_linear_0_527" x1="17.7948" y1="3.72749" x2="15.7661" y2="0.674894" gradientUnits="userSpaceOnUse">
<stop stop-color="#3E7400"/>
<stop offset="1" stop-color="#254500"/>
</linearGradient>
<linearGradient id="paint1_linear_0_527" x1="19.8644" y1="5.58558" x2="17.5171" y2="3.44807" gradientUnits="userSpaceOnUse">
<stop stop-color="#3E7400"/>
<stop offset="1" stop-color="#254500"/>
</linearGradient>
<linearGradient id="paint2_linear_0_527" x1="10.2797" y1="4.58562" x2="11.763" y2="1.50537" gradientUnits="userSpaceOnUse">
<stop stop-color="#3E7400"/>
<stop offset="1" stop-color="#254500"/>
</linearGradient>
<linearGradient id="paint3_linear_0_527" x1="8.60466" y1="6.56813" x2="10.5041" y2="4.2899" gradientUnits="userSpaceOnUse">
<stop stop-color="#3E7400"/>
<stop offset="1" stop-color="#254500"/>
</linearGradient>
<radialGradient id="paint4_radial_0_527" cx="0" cy="0" r="1" gradientUnits="userSpaceOnUse" gradientTransform="translate(8.97596 10.5259) scale(20.0962 20.4168)">
<stop stop-color="#F4C0B2"/>
<stop offset="0.53" stop-color="#F17A50"/>
<stop offset="0.81" stop-color="#ED341C"/>
<stop offset="1" stop-color="#822C1A"/>
</radialGradient>
<radialGradient id="paint5_radial_0_527" cx="0" cy="0" r="1" gradientUnits="userSpaceOnUse" gradientTransform="translate(21.0769 9.14362) scale(21.2837 21.6233)">
<stop stop-color="#F4C0B2"/>
<stop offset="0.53" stop-color="#F17A50"/>
<stop offset="0.81" stop-color="#ED341C"/>
<stop offset="1" stop-color="#822C1A"/>
</radialGradient>
</defs>
</svg>
