<svg width="22" height="22" viewBox="0 0 22 22" fill="none" xmlns="http://www.w3.org/2000/svg">
<path d="M10.75 9.21428C11.2589 9.21428 11.6715 9.62683 11.6715 10.1357V16.2786C11.6715 16.7874 11.2589 17.2 10.75 17.2C10.2412 17.2 9.82861 16.7874 9.82861 16.2786V10.1357C9.82861 9.62683 10.2412 9.21428 10.75 9.21428Z" fill="#F7F5DD"/>
<path d="M10.7501 7.06429C11.4286 7.06429 11.9786 6.51423 11.9786 5.83572C11.9786 5.1572 11.4286 4.60715 10.7501 4.60715C10.0715 4.60715 9.52148 5.1572 9.52148 5.83572C9.52148 6.51423 10.0715 7.06429 10.7501 7.06429Z" fill="#F7F5DD"/>
<path fill-rule="evenodd" clip-rule="evenodd" d="M0 10.75C0 4.81294 4.81294 0 10.75 0C16.6871 0 21.5 4.81294 21.5 10.75C21.5 16.6871 16.6871 21.5 10.75 21.5C4.81294 21.5 0 16.6871 0 10.75ZM10.75 1.84286C5.83073 1.84286 1.84286 5.83073 1.84286 10.75C1.84286 15.6693 5.83073 19.6571 10.75 19.6571C15.6693 19.6571 19.6571 15.6693 19.6571 10.75C19.6571 5.83073 15.6693 1.84286 10.75 1.84286Z" fill="#F7F5DD"/>
</svg>
