<svg width="20" height="20" viewBox="0 0 20 20" fill="none" xmlns="http://www.w3.org/2000/svg">
<path d="M10 20C15.5228 20 20 15.5228 20 10C20 4.47715 15.5228 0 10 0C4.47715 0 0 4.47715 0 10C0 15.5228 4.47715 20 10 20Z" fill="url(#paint0_linear_0_823)"/>
<path style="mix-blend-mode:screen" d="M10.0001 19.9535C15.4973 19.9535 19.9536 15.4972 19.9536 10C19.9536 4.50284 15.4973 0.0465088 10.0001 0.0465088C4.50296 0.0465088 0.0466309 4.50284 0.0466309 10C0.0466309 15.4972 4.50296 19.9535 10.0001 19.9535Z" fill="url(#paint1_radial_0_823)"/>
<path opacity="0.3" d="M10 19.6992C4.52713 19.6992 0.0826873 15.3034 0.00206718 9.85013C0.00206718 9.89974 0 9.95039 0 10C0 15.5225 4.47752 20 10 20C15.5225 20 20 15.5225 20 10C20 9.94935 19.999 9.89974 19.9979 9.85013C19.9173 15.3034 15.4729 19.7003 10 19.7003V19.6992Z" fill="#FFEA83"/>
<path d="M10 0.376227C15.4605 0.376227 19.8977 4.75245 19.9979 10.1881C19.999 10.1251 20 10.063 20 10C20 4.47752 15.5225 0 10 0C4.47752 0 0 4.47752 0 10C0 10.063 0.00103359 10.1251 0.00206718 10.1881C0.102326 4.75245 4.53953 0.376227 10 0.376227Z" fill="#FFEA83"/>
<path style="mix-blend-mode:screen" opacity="0.5" d="M10.0001 0.0372009C4.59133 0.0372009 0.189267 4.35038 0.0466309 9.72506C1.14741 10.3773 2.87867 9.85529 4.01046 9.28888C4.9841 8.83927 6.18203 8.98914 7.23009 9.06459C9.85025 9.28888 12.396 10.4124 15.0161 9.73849C15.5402 9.58862 16.2885 8.91472 16.8125 9.36433C17.7355 10.1333 18.9758 10.2005 19.9536 9.73229C19.8141 4.35451 15.411 0.0372009 10.0001 0.0372009Z" fill="url(#paint2_linear_0_823)"/>
<path d="M10.0001 17.7447C14.2774 17.7447 17.7448 14.2773 17.7448 10C17.7448 5.72273 14.2774 2.25531 10.0001 2.25531C5.72279 2.25531 2.25537 5.72273 2.25537 10C2.25537 14.2773 5.72279 17.7447 10.0001 17.7447Z" fill="url(#paint3_linear_0_823)"/>
<path d="M10.0001 17.3685C14.0696 17.3685 17.3685 14.0695 17.3685 10C17.3685 5.93051 14.0696 2.63153 10.0001 2.63153C5.93057 2.63153 2.63159 5.93051 2.63159 10C2.63159 14.0695 5.93057 17.3685 10.0001 17.3685Z" fill="#D68738"/>
<path d="M10.0001 17.0677C13.9035 17.0677 17.0678 13.9034 17.0678 10C17.0678 6.09663 13.9035 2.93231 10.0001 2.93231C6.09669 2.93231 2.93237 6.09663 2.93237 10C2.93237 13.9034 6.09669 17.0677 10.0001 17.0677Z" fill="url(#paint4_radial_0_823)"/>
<path opacity="0.2" d="M10.0001 16.5416C6.15925 16.5416 3.0347 13.6289 2.93444 9.81189C2.93237 9.87391 2.93237 9.93695 2.93237 10C2.93237 13.9039 6.0962 17.0677 10.0001 17.0677C13.9039 17.0677 17.0678 13.9039 17.0678 10C17.0678 9.93695 17.0678 9.87494 17.0657 9.81189C16.9665 13.6279 13.8409 16.5416 10.0001 16.5416Z" fill="#FFEA83"/>
<path opacity="0.1" d="M14.4197 9.02634C14.3453 8.79792 14.152 8.63461 13.9143 8.6005L11.598 8.26355L10.5623 6.16433C10.4559 5.94934 10.2409 5.81497 10.0011 5.81497C9.76129 5.81497 9.54631 5.94831 9.43985 6.16433L8.40419 8.26355L6.08791 8.6005C5.85018 8.63461 5.6569 8.79792 5.58248 9.02634C5.50806 9.25477 5.56904 9.50076 5.74062 9.6682L7.41711 11.3023L7.02124 13.6093C6.98093 13.846 7.07602 14.0806 7.27034 14.2212C7.46052 14.3597 7.72098 14.3783 7.92977 14.2687L10.0021 13.1793L12.0745 14.2687C12.1675 14.3173 12.2667 14.3411 12.367 14.3411C12.4962 14.3411 12.6243 14.3008 12.7339 14.2212C12.9282 14.0806 13.0233 13.8449 12.983 13.6093L12.5871 11.3023L14.2636 9.6682C14.4352 9.50076 14.4962 9.25477 14.4218 9.02634H14.4197Z" fill="#FFEA83"/>
<path d="M14.2759 8.99742C14.219 8.82378 14.0723 8.69974 13.8914 8.6739L11.4966 8.32558L10.4257 6.15607C10.3451 5.99277 10.1818 5.89044 9.99888 5.89044C9.81593 5.89044 9.65262 5.99173 9.572 6.15607L8.5012 8.32558L6.10637 8.6739C5.92549 8.69974 5.77872 8.82378 5.72187 8.99742C5.66503 9.17106 5.71154 9.35814 5.84177 9.48527L7.4242 11.0987L7.0149 13.4842C6.98389 13.6641 7.05521 13.8708 7.20301 13.9783C7.28673 14.0393 7.54099 14.1788 7.85521 14.061L9.99681 12.9344L12.1384 14.06C12.2997 14.1447 12.5684 14.1468 12.7162 14.0393C12.864 13.9318 13.0108 13.6631 12.9798 13.4832L12.5705 11.0977L14.1529 9.48424C14.2831 9.35711 14.3296 9.17003 14.2728 8.99639L14.2759 8.99742Z" fill="url(#paint5_linear_0_823)"/>
<path opacity="0.1" d="M14.2759 8.54676C14.219 8.37312 14.0723 8.24909 13.8914 8.22325L11.4966 7.87493L10.4257 5.70438C10.3451 5.54108 10.1818 5.43875 9.99888 5.43875C9.81593 5.43875 9.65262 5.54004 9.572 5.70438L8.5012 7.87493L6.10637 8.22325C5.92549 8.24909 5.77872 8.37312 5.72187 8.54676C5.66503 8.72041 5.71154 8.90749 5.84177 9.03462L7.5751 10.7235L7.1658 13.109C7.13479 13.2889 7.20714 13.4667 7.35495 13.5742C7.43867 13.6351 7.53583 13.6651 7.63402 13.6651C7.70947 13.6651 7.78596 13.6465 7.85624 13.6103L9.99784 12.4837L12.1394 13.6093C12.3007 13.694 12.4929 13.6806 12.6407 13.5731C12.7885 13.4656 12.8609 13.2878 12.8299 13.108L12.4206 10.7225L14.1539 9.03358C14.2841 8.90645 14.3307 8.71937 14.2738 8.54573L14.2759 8.54676Z" fill="#D37F24"/>
<path d="M10.3255 5.9049L11.4232 8.12816L13.8769 8.48475C14.1746 8.52816 14.2934 8.89405 14.0785 9.10387L12.3027 10.8341L12.7213 13.2775C12.772 13.5742 12.4609 13.8005 12.1952 13.6599L10.0009 12.5065L7.80662 13.6599C7.53995 13.7995 7.22884 13.5742 7.28052 13.2775L7.69913 10.8341L5.92341 9.10387C5.70843 8.89405 5.82729 8.52816 6.12496 8.48475L8.57871 8.12816L9.67639 5.9049C9.80972 5.63513 10.1942 5.63513 10.3275 5.9049H10.3255Z" fill="url(#paint6_linear_0_823)"/>
<path opacity="0.3" d="M7.66508 11.0274L7.27955 13.2775C7.26921 13.3364 7.27438 13.3933 7.28988 13.4439L7.69919 11.0594L7.66611 11.0274H7.66508Z" fill="#FFEA83"/>
<path d="M6.12407 8.71007L8.72769 8.35348L9.82536 6.13022C9.95869 5.86045 10.0424 5.86045 10.1757 6.13022L11.2734 8.35348L13.877 8.71007C14.0259 8.73177 14.1292 8.8341 14.1695 8.95606C14.2357 8.75451 14.1127 8.51782 13.877 8.48371L11.4233 8.12712L10.3256 5.90386C10.1923 5.6341 9.80779 5.6341 9.67445 5.90386L8.57678 8.12712L6.12303 8.48371C5.88737 8.51782 5.76438 8.75451 5.83053 8.95606C5.87084 8.83306 5.9742 8.73074 6.12303 8.71007H6.12407Z" fill="#FFEA83"/>
<path opacity="0.3" d="M12.3348 11.0274L12.3018 11.0594L12.7111 13.4439C12.7266 13.3922 12.7317 13.3364 12.7214 13.2775L12.3359 11.0274H12.3348Z" fill="#FFEA83"/>
<path style="mix-blend-mode:screen" opacity="0.8" d="M10.3255 5.9049L11.4232 8.12816L13.8769 8.48475C14.1746 8.52816 14.2934 8.89405 14.0785 9.10387L12.3027 10.8341L12.7213 13.2775C12.772 13.5742 12.4609 13.8005 12.1952 13.6599L10.0009 12.5065L7.80662 13.6599C7.53995 13.7995 7.22884 13.5742 7.28052 13.2775L7.69913 10.8341L5.92341 9.10387C5.70843 8.89405 5.82729 8.52816 6.12496 8.48475L8.57871 8.12816L9.67639 5.9049C9.80972 5.63513 10.1942 5.63513 10.3275 5.9049H10.3255Z" fill="url(#paint7_radial_0_823)"/>
<path style="mix-blend-mode:screen" opacity="0.6" d="M13.8761 8.48475L11.4223 8.12816L10.3246 5.9049C10.1913 5.63513 9.80682 5.63513 9.67348 5.9049L8.57581 8.12816L6.12206 8.48475C5.99596 8.50335 5.90191 8.57984 5.85229 8.67699C6.16341 9.06562 6.28227 9.13384 6.78976 9.49146C8.34325 10.369 12.2285 10.2181 13.3066 9.34159C13.7076 9.01498 13.8513 8.97157 14.0942 8.60361C14.0404 8.54263 13.966 8.49818 13.874 8.48475H13.8761Z" fill="url(#paint8_linear_0_823)"/>
<defs>
<linearGradient id="paint0_linear_0_823" x1="10" y1="0" x2="10" y2="20" gradientUnits="userSpaceOnUse">
<stop stop-color="#F8BE4F"/>
<stop offset="0.11" stop-color="#FBC450"/>
<stop offset="0.3" stop-color="#FFCB52"/>
<stop offset="1" stop-color="#D17D3D"/>
</linearGradient>
<radialGradient id="paint1_radial_0_823" cx="0" cy="0" r="1" gradientUnits="userSpaceOnUse" gradientTransform="translate(9.89986 -1.37571) scale(7.96383)">
<stop stop-color="#FFDF7D"/>
<stop offset="1"/>
</radialGradient>
<linearGradient id="paint2_linear_0_823" x1="10.0001" y1="19.8232" x2="10.0001" y2="5.31162" gradientUnits="userSpaceOnUse">
<stop stop-color="#FFCA85"/>
<stop offset="1"/>
</linearGradient>
<linearGradient id="paint3_linear_0_823" x1="10.0001" y1="17.7447" x2="10.0001" y2="-1.28474" gradientUnits="userSpaceOnUse">
<stop stop-color="#FBC450"/>
<stop offset="1" stop-color="#E09744"/>
</linearGradient>
<radialGradient id="paint4_radial_0_823" cx="0" cy="0" r="1" gradientUnits="userSpaceOnUse" gradientTransform="translate(9.93806 6.03102) scale(13.7674)">
<stop offset="0.3" stop-color="#FFCB52"/>
<stop offset="1" stop-color="#D17D3D"/>
</radialGradient>
<linearGradient id="paint5_linear_0_823" x1="9.99991" y1="8" x2="9.99991" y2="14.1426" gradientUnits="userSpaceOnUse">
<stop stop-color="#F2A746"/>
<stop offset="0.31" stop-color="#E89A43"/>
<stop offset="1" stop-color="#D17D3D"/>
</linearGradient>
<linearGradient id="paint6_linear_0_823" x1="9.9999" y1="5.70232" x2="9.9999" y2="19.6723" gradientUnits="userSpaceOnUse">
<stop stop-color="#FFD863"/>
<stop offset="0.71" stop-color="#ECAB49"/>
<stop offset="1" stop-color="#FCC550"/>
</linearGradient>
<radialGradient id="paint7_radial_0_823" cx="0" cy="0" r="1" gradientUnits="userSpaceOnUse" gradientTransform="translate(9.92445 4.05064) scale(7.0677)">
<stop stop-color="#FFE06E"/>
<stop offset="1"/>
</radialGradient>
<linearGradient id="paint8_linear_0_823" x1="9.97529" y1="13.6176" x2="9.97529" y2="8.64909" gradientUnits="userSpaceOnUse">
<stop stop-color="#FFDD8F"/>
<stop offset="1"/>
</linearGradient>
</defs>
</svg>
