<svg width="32" height="25" viewBox="0 0 32 25" fill="none" xmlns="http://www.w3.org/2000/svg">
<path fill-rule="evenodd" clip-rule="evenodd" d="M0 8.24104C0 3.585 4.33214 0 9.41714 0C12.0383 0 14.3448 1.15886 16 2.65833C17.6552 1.15886 19.9616 0 22.5829 0C27.6679 0 32 3.585 32 8.24104C32 11.4305 30.5574 14.2352 28.559 16.606C26.5638 18.9729 23.9543 20.9816 21.4555 22.6138C20.501 23.2372 19.5355 23.8122 18.652 24.2366C17.8222 24.635 16.868 25 16 25C15.132 25 14.1778 24.635 13.348 24.2366C12.4645 23.8122 11.4989 23.2372 10.5445 22.6138C8.04581 20.9816 5.43611 18.9729 3.44104 16.606C1.44252 14.2352 0 11.4305 0 8.24104ZM9.41714 2.58621C5.61508 2.58621 2.74286 5.22259 2.74286 8.24104C2.74286 10.6609 3.8323 12.9138 5.58828 14.9969C7.34771 17.0841 9.71505 18.9257 12.1065 20.4879C13.0114 21.079 13.8637 21.5819 14.5929 21.9321C15.3757 22.3079 15.8294 22.4138 16 22.4138C16.1706 22.4138 16.6243 22.3079 17.4071 21.9321C18.1363 21.5819 18.9886 21.079 19.8936 20.4879C22.285 18.9257 24.6523 17.0841 26.4117 14.9969C28.1677 12.9138 29.2571 10.6609 29.2571 8.24104C29.2571 5.22259 26.3848 2.58621 22.5829 2.58621C20.3992 2.58621 18.3603 3.81624 17.0873 5.37745C16.8276 5.69579 16.4259 5.88235 16 5.88235C15.5741 5.88235 15.1724 5.69579 14.9127 5.37745C13.6397 3.81624 11.6007 2.58621 9.41714 2.58621Z" fill="white"/>
</svg>
