<svg width="2211" height="2158" viewBox="0 0 2211 2158" fill="none" xmlns="http://www.w3.org/2000/svg">
<g filter="url(#filter0_dd_1198_3380)">
<path d="M1120.88 1036.73C1138.99 1044.65 1154.42 1057.67 1165.27 1074.2C1176.12 1090.73 1181.93 1110.06 1182 1129.83L1126.84 1130.02C1126.81 1120.94 1124.14 1112.06 1119.16 1104.47C1114.17 1096.88 1107.09 1090.9 1098.77 1087.26L1120.88 1036.73Z" fill="#F15761"/>
</g>
<g filter="url(#filter1_dd_1198_3380)">
<path d="M1028.57 1042.09C1043.56 1033.34 1060.54 1028.56 1077.89 1028.2C1095.24 1027.84 1112.4 1031.91 1127.73 1040.03L1101.91 1088.8C1094.87 1085.07 1086.99 1083.2 1079.03 1083.37C1071.07 1083.53 1063.27 1085.73 1056.4 1089.74L1028.57 1042.09Z" fill="#F19B62"/>
</g>
<g filter="url(#filter2_dd_1198_3380)">
<path d="M978 1130.18C978 1111.98 982.869 1094.11 992.102 1078.43C1001.34 1062.74 1014.6 1049.82 1030.51 1040.99L1057.18 1089.06C1049.85 1093.13 1043.73 1099.09 1039.47 1106.32C1035.22 1113.55 1032.97 1121.79 1032.97 1130.18L978 1130.18Z" fill="#449C7D"/>
</g>
<g filter="url(#filter3_dddddd_1198_3380)">
<path d="M1128.82 1040.62C1144.81 1049.34 1158.18 1062.17 1167.53 1077.8C1176.88 1093.43 1181.87 1111.27 1182 1129.49L1159.35 1129.64C1159.25 1115.47 1155.37 1101.59 1148.09 1089.43C1140.82 1077.27 1130.42 1067.29 1117.98 1060.51L1128.82 1040.62Z" fill="#F4767D"/>
</g>
<g filter="url(#filter4_f_1198_3380)">
<mask id="path-7-inside-1_1198_3380" fill="white">
<path d="M1128.82 1040.62C1144.81 1049.34 1158.18 1062.17 1167.53 1077.8C1176.88 1093.43 1181.87 1111.27 1182 1129.49L1159.35 1129.64C1159.25 1115.47 1155.37 1101.59 1148.09 1089.43C1140.82 1077.27 1130.42 1067.29 1117.98 1060.51L1128.82 1040.62Z"/>
</mask>
<path d="M1128.82 1040.62C1144.81 1049.34 1158.18 1062.17 1167.53 1077.8C1176.88 1093.43 1181.87 1111.27 1182 1129.49L1159.35 1129.64C1159.25 1115.47 1155.37 1101.59 1148.09 1089.43C1140.82 1077.27 1130.42 1067.29 1117.98 1060.51L1128.82 1040.62Z" stroke="white" stroke-width="2" mask="url(#path-7-inside-1_1198_3380)"/>
</g>
<g filter="url(#filter6_f_1198_3380)">
<mask id="path-9-inside-2_1198_3380" fill="white">
<path d="M1028.57 1042.09C1043.56 1033.34 1060.54 1028.56 1077.89 1028.2C1095.24 1027.84 1112.4 1031.91 1127.73 1040.03L1117.08 1060.15C1105.17 1053.84 1091.84 1050.68 1078.36 1050.96C1064.88 1051.23 1051.69 1054.95 1040.05 1061.75L1028.57 1042.09Z"/>
</mask>
<path d="M1028.57 1042.09C1043.56 1033.34 1060.54 1028.56 1077.89 1028.2C1095.24 1027.84 1112.4 1031.91 1127.73 1040.03L1117.08 1060.15C1105.17 1053.84 1091.84 1050.68 1078.36 1050.96C1064.88 1051.23 1051.69 1054.95 1040.05 1061.75L1028.57 1042.09Z" stroke="white" stroke-width="2" mask="url(#path-9-inside-2_1198_3380)"/>
</g>
<g filter="url(#filter8_f_1198_3380)">
<mask id="path-11-inside-3_1198_3380" fill="white">
<path d="M978 1130.18C978 1111.98 982.869 1094.11 992.102 1078.43C1001.34 1062.74 1014.6 1049.82 1030.51 1040.99L1041.59 1060.95C1029.24 1067.81 1018.95 1077.84 1011.78 1090.01C1004.61 1102.18 1000.83 1116.05 1000.83 1130.18L978 1130.18Z"/>
</mask>
<path d="M978 1130.18C978 1111.98 982.869 1094.11 992.102 1078.43C1001.34 1062.74 1014.6 1049.82 1030.51 1040.99L1041.59 1060.95C1029.24 1067.81 1018.95 1077.84 1011.78 1090.01C1004.61 1102.18 1000.83 1116.05 1000.83 1130.18L978 1130.18Z" fill="#45B292"/>
<path d="M978 1130.18C978 1111.98 982.869 1094.11 992.102 1078.43C1001.34 1062.74 1014.6 1049.82 1030.51 1040.99L1041.59 1060.95C1029.24 1067.81 1018.95 1077.84 1011.78 1090.01C1004.61 1102.18 1000.83 1116.05 1000.83 1130.18L978 1130.18Z" stroke="white" stroke-width="2" mask="url(#path-11-inside-3_1198_3380)"/>
</g>
<rect width="3.52052" height="55.5414" transform="matrix(-0.882549 -0.47022 -0.47022 0.882549 1129.22 1040.65)" fill="#252229"/>
<rect x="1059" y="1088.42" width="3.52052" height="55.4275" transform="rotate(150.698 1059 1088.42)" fill="#252229"/>
<path d="M993.99 1120.11L986.067 1119.01L986.76 1114.04L987.789 1114.18L987.263 1117.95L989.677 1118.29L990.167 1114.78L991.192 1114.92L990.702 1118.44L993.128 1118.77L993.661 1114.96L994.69 1115.1L993.99 1120.11Z" fill="white"/>
<path d="M995.112 1112.85L994.829 1114.1L987.663 1109.52L987.971 1108.16L996.41 1107.12L996.126 1108.37L989.242 1109.13L989.228 1109.19L995.112 1112.85ZM992.104 1111.95L993.023 1107.9L994.013 1108.12L993.095 1112.17L992.104 1111.95Z" fill="white"/>
<path d="M992.46 1100.07C992.095 1100 991.77 1100.07 991.485 1100.3C991.197 1100.52 990.983 1100.85 990.843 1101.29C990.743 1101.6 990.706 1101.89 990.732 1102.15C990.755 1102.41 990.832 1102.63 990.963 1102.81C991.092 1102.99 991.264 1103.11 991.48 1103.18C991.661 1103.24 991.831 1103.25 991.989 1103.2C992.149 1103.16 992.295 1103.08 992.429 1102.97C992.561 1102.86 992.683 1102.73 992.794 1102.59C992.902 1102.44 992.999 1102.3 993.084 1102.17L993.516 1101.49C993.653 1101.26 993.814 1101.04 993.997 1100.82C994.181 1100.59 994.391 1100.4 994.627 1100.23C994.863 1100.07 995.125 1099.96 995.413 1099.9C995.703 1099.85 996.018 1099.87 996.361 1099.98C996.792 1100.12 997.139 1100.35 997.403 1100.68C997.667 1101.01 997.828 1101.42 997.886 1101.9C997.946 1102.38 997.88 1102.92 997.689 1103.52C997.506 1104.09 997.258 1104.55 996.943 1104.91C996.629 1105.27 996.268 1105.51 995.86 1105.64C995.45 1105.77 995.011 1105.77 994.544 1105.65L994.914 1104.5C995.196 1104.56 995.454 1104.55 995.688 1104.45C995.92 1104.35 996.12 1104.19 996.287 1103.97C996.454 1103.75 996.584 1103.5 996.679 1103.2C996.783 1102.88 996.824 1102.57 996.804 1102.29C996.782 1102 996.702 1101.75 996.565 1101.54C996.426 1101.34 996.233 1101.2 995.985 1101.12C995.759 1101.04 995.554 1101.05 995.368 1101.13C995.184 1101.21 995.01 1101.35 994.846 1101.53C994.682 1101.72 994.521 1101.94 994.362 1102.19L993.828 1103.01C993.466 1103.57 993.067 1103.97 992.63 1104.23C992.194 1104.48 991.711 1104.52 991.18 1104.35C990.741 1104.21 990.396 1103.96 990.145 1103.62C989.894 1103.28 989.743 1102.88 989.692 1102.41C989.639 1101.94 989.694 1101.46 989.858 1100.95C990.023 1100.43 990.259 1100 990.567 1099.67C990.875 1099.33 991.224 1099.1 991.615 1098.97C992.003 1098.84 992.403 1098.84 992.816 1098.96L992.46 1100.07Z" fill="white"/>
<path d="M991.496 1096.38L992.03 1095.12L996.194 1094.61L996.227 1094.53L993.692 1091.19L994.226 1089.92L997.571 1094.49L1000.46 1095.71L999.995 1096.82L997.102 1095.6L991.496 1096.38Z" fill="white"/>
<path d="M997.306 1086.1L996.406 1085.58L999.496 1080.21L1000.4 1080.73L999.15 1082.89L1005.18 1086.37L1004.58 1087.41L998.55 1083.94L997.306 1086.1Z" fill="white"/>
<path d="M1008.18 1074.66C1008.87 1075.16 1009.38 1075.71 1009.7 1076.32C1010.02 1076.93 1010.15 1077.55 1010.11 1078.19C1010.06 1078.82 1009.84 1079.41 1009.44 1079.98C1009.04 1080.54 1008.55 1080.95 1007.96 1081.2C1007.38 1081.45 1006.75 1081.53 1006.07 1081.43C1005.38 1081.33 1004.7 1081.03 1004 1080.54C1003.31 1080.04 1002.8 1079.49 1002.48 1078.88C1002.16 1078.27 1002.02 1077.65 1002.07 1077.02C1002.12 1076.38 1002.34 1075.78 1002.74 1075.22C1003.14 1074.65 1003.63 1074.25 1004.22 1074C1004.8 1073.74 1005.43 1073.67 1006.11 1073.77C1006.79 1073.87 1007.48 1074.17 1008.18 1074.66ZM1007.48 1075.64C1006.95 1075.26 1006.45 1075.03 1005.96 1074.94C1005.47 1074.85 1005.03 1074.89 1004.64 1075.05C1004.24 1075.21 1003.9 1075.48 1003.64 1075.85C1003.37 1076.23 1003.23 1076.63 1003.21 1077.06C1003.18 1077.49 1003.29 1077.92 1003.54 1078.35C1003.78 1078.78 1004.17 1079.18 1004.7 1079.56C1005.23 1079.93 1005.74 1080.17 1006.22 1080.26C1006.71 1080.34 1007.15 1080.31 1007.55 1080.15C1007.94 1079.98 1008.28 1079.71 1008.54 1079.34C1008.81 1078.97 1008.95 1078.56 1008.97 1078.14C1009 1077.71 1008.89 1077.28 1008.64 1076.85C1008.4 1076.42 1008.02 1076.01 1007.48 1075.64Z" fill="white"/>
<path d="M1013.94 1065.85C1013.72 1065.74 1013.49 1065.67 1013.27 1065.64C1013.04 1065.6 1012.82 1065.6 1012.61 1065.64C1012.39 1065.68 1012.18 1065.75 1011.97 1065.87C1011.77 1065.98 1011.58 1066.14 1011.4 1066.33C1011.09 1066.66 1010.9 1067.04 1010.82 1067.46C1010.75 1067.88 1010.8 1068.32 1010.98 1068.78C1011.17 1069.24 1011.5 1069.69 1011.97 1070.13C1012.45 1070.57 1012.92 1070.86 1013.39 1071.01C1013.86 1071.17 1014.31 1071.18 1014.73 1071.07C1015.15 1070.96 1015.52 1070.74 1015.84 1070.39C1016.13 1070.07 1016.33 1069.74 1016.42 1069.38C1016.51 1069.02 1016.5 1068.67 1016.38 1068.32C1016.26 1067.96 1016.04 1067.64 1015.72 1067.34L1015.98 1067.15L1014.42 1068.82L1013.69 1068.15L1015.83 1065.84L1016.5 1066.46C1016.99 1066.92 1017.32 1067.42 1017.49 1067.97C1017.65 1068.51 1017.66 1069.06 1017.52 1069.61C1017.37 1070.16 1017.08 1070.67 1016.64 1071.14C1016.15 1071.67 1015.59 1072.02 1014.98 1072.2C1014.36 1072.37 1013.73 1072.36 1013.07 1072.17C1012.42 1071.97 1011.78 1071.58 1011.16 1071.01C1010.69 1070.58 1010.33 1070.12 1010.08 1069.65C1009.83 1069.17 1009.68 1068.69 1009.64 1068.22C1009.6 1067.74 1009.66 1067.28 1009.82 1066.83C1009.98 1066.38 1010.23 1065.97 1010.59 1065.59C1010.88 1065.27 1011.2 1065.02 1011.55 1064.83C1011.9 1064.64 1012.26 1064.52 1012.63 1064.47C1013 1064.41 1013.37 1064.43 1013.74 1064.5C1014.1 1064.58 1014.45 1064.73 1014.78 1064.94L1013.94 1065.85Z" fill="white"/>
<path d="M1020 1067.53L1014.63 1061.6L1018.36 1058.23L1019.05 1059.01L1016.23 1061.56L1017.86 1063.37L1020.49 1060.99L1021.19 1061.76L1018.55 1064.14L1020.2 1065.95L1023.06 1063.37L1023.75 1064.14L1020 1067.53Z" fill="white"/>
<path d="M1020.75 1057.56L1020.12 1056.73L1025.05 1052.98L1025.68 1053.81L1023.69 1055.32L1027.91 1060.86L1026.95 1061.59L1022.74 1056.05L1020.75 1057.56Z" fill="white"/>
<path d="M1128.1 1058.64L1132.88 1052.22L1133.85 1052.94L1131.77 1055.73L1134.97 1058.11L1137.04 1055.32L1138.02 1056.04L1133.24 1062.46L1132.27 1061.74L1134.35 1058.94L1131.15 1056.56L1129.07 1059.36L1128.1 1058.64Z" fill="white"/>
<path d="M1135.37 1064.25L1134.42 1063.39L1141.92 1059.38L1142.95 1060.32L1139.73 1068.19L1138.78 1067.33L1141.48 1060.95L1141.44 1060.91L1135.37 1064.25ZM1137.63 1062.07L1140.71 1064.86L1140.03 1065.61L1136.95 1062.82L1137.63 1062.07Z" fill="white"/>
<path d="M1140.61 1069.11L1146.47 1063.66L1148.41 1065.75C1148.84 1066.2 1149.11 1066.65 1149.23 1067.09C1149.35 1067.54 1149.35 1067.97 1149.21 1068.37C1149.07 1068.78 1148.82 1069.15 1148.46 1069.48C1148.1 1069.82 1147.72 1070.03 1147.31 1070.14C1146.9 1070.24 1146.48 1070.21 1146.05 1070.05C1145.62 1069.89 1145.19 1069.58 1144.77 1069.13L1143.3 1067.55L1144.06 1066.84L1145.46 1068.34C1145.72 1068.63 1145.98 1068.82 1146.23 1068.93C1146.48 1069.03 1146.72 1069.05 1146.96 1068.99C1147.19 1068.93 1147.42 1068.8 1147.64 1068.59C1147.86 1068.39 1148.01 1068.17 1148.09 1067.93C1148.18 1067.69 1148.18 1067.45 1148.09 1067.19C1148.01 1066.92 1147.84 1066.65 1147.57 1066.36L1146.54 1065.25L1141.44 1069.99L1140.61 1069.11ZM1145.95 1069.54L1144.65 1073.45L1143.71 1072.44L1145.04 1068.56L1145.95 1069.54Z" fill="white"/>
<path d="M1147.01 1076.39L1145.42 1074.34L1151.73 1069.43L1153.37 1071.54C1153.85 1072.16 1154.14 1072.78 1154.23 1073.43C1154.33 1074.06 1154.23 1074.69 1153.95 1075.29C1153.66 1075.89 1153.19 1076.45 1152.54 1076.96C1151.88 1077.47 1151.22 1077.79 1150.56 1077.92C1149.9 1078.05 1149.27 1077.99 1148.66 1077.73C1148.06 1077.48 1147.51 1077.03 1147.01 1076.39ZM1146.99 1074.65L1147.8 1075.69C1148.17 1076.17 1148.58 1076.5 1149 1076.67C1149.44 1076.85 1149.89 1076.88 1150.35 1076.77C1150.82 1076.66 1151.31 1076.41 1151.81 1076.02C1152.3 1075.64 1152.66 1075.23 1152.88 1074.8C1153.11 1074.38 1153.19 1073.94 1153.12 1073.49C1153.06 1073.04 1152.85 1072.59 1152.49 1072.13L1151.64 1071.03L1146.99 1074.65Z" fill="white"/>
<path d="M1157.59 1079.11L1158.48 1078.58L1161.66 1083.88L1160.77 1084.42L1159.49 1082.28L1153.52 1085.86L1152.9 1084.83L1158.87 1081.25L1157.59 1079.11Z" fill="white"/>
<path d="M1162.32 1094.22C1161.55 1094.59 1160.82 1094.76 1160.13 1094.75C1159.45 1094.73 1158.84 1094.54 1158.3 1094.19C1157.78 1093.85 1157.36 1093.36 1157.07 1092.74C1156.77 1092.11 1156.65 1091.48 1156.71 1090.85C1156.78 1090.22 1157.02 1089.63 1157.44 1089.08C1157.86 1088.54 1158.45 1088.08 1159.22 1087.72C1159.99 1087.35 1160.72 1087.17 1161.41 1087.19C1162.1 1087.21 1162.71 1087.39 1163.24 1087.74C1163.77 1088.09 1164.19 1088.58 1164.48 1089.2C1164.78 1089.82 1164.9 1090.45 1164.83 1091.08C1164.77 1091.72 1164.53 1092.3 1164.11 1092.85C1163.69 1093.4 1163.1 1093.85 1162.32 1094.22ZM1161.81 1093.14C1162.4 1092.86 1162.85 1092.53 1163.16 1092.15C1163.47 1091.77 1163.66 1091.36 1163.71 1090.94C1163.76 1090.51 1163.69 1090.09 1163.49 1089.68C1163.29 1089.26 1163.01 1088.94 1162.65 1088.71C1162.28 1088.48 1161.85 1088.37 1161.36 1088.37C1160.87 1088.38 1160.33 1088.52 1159.74 1088.8C1159.15 1089.08 1158.7 1089.41 1158.39 1089.79C1158.07 1090.17 1157.89 1090.58 1157.84 1091C1157.79 1091.43 1157.86 1091.85 1158.06 1092.26C1158.26 1092.68 1158.54 1093 1158.9 1093.23C1159.27 1093.46 1159.69 1093.57 1160.19 1093.57C1160.68 1093.56 1161.22 1093.42 1161.81 1093.14Z" fill="white"/>
<path d="M1167.17 1103.4C1167.37 1103.25 1167.54 1103.09 1167.68 1102.91C1167.82 1102.73 1167.93 1102.54 1168 1102.33C1168.08 1102.13 1168.11 1101.91 1168.11 1101.67C1168.11 1101.44 1168.07 1101.2 1167.98 1100.94C1167.85 1100.51 1167.61 1100.16 1167.28 1099.89C1166.95 1099.62 1166.53 1099.45 1166.04 1099.39C1165.55 1099.33 1165 1099.4 1164.39 1099.6C1163.77 1099.8 1163.28 1100.07 1162.92 1100.41C1162.56 1100.74 1162.33 1101.12 1162.22 1101.54C1162.11 1101.97 1162.13 1102.4 1162.28 1102.84C1162.41 1103.26 1162.61 1103.59 1162.88 1103.84C1163.15 1104.1 1163.46 1104.26 1163.83 1104.33C1164.19 1104.4 1164.58 1104.37 1165 1104.23L1165.04 1104.55L1164.34 1102.37L1165.28 1102.06L1166.25 1105.05L1165.39 1105.33C1164.75 1105.54 1164.15 1105.59 1163.59 1105.47C1163.04 1105.35 1162.55 1105.09 1162.14 1104.7C1161.73 1104.3 1161.43 1103.8 1161.23 1103.18C1161.01 1102.5 1160.97 1101.84 1161.12 1101.22C1161.27 1100.6 1161.58 1100.05 1162.07 1099.57C1162.56 1099.09 1163.21 1098.72 1164.01 1098.46C1164.62 1098.26 1165.19 1098.17 1165.73 1098.18C1166.27 1098.19 1166.75 1098.3 1167.19 1098.49C1167.63 1098.69 1168 1098.96 1168.32 1099.32C1168.63 1099.68 1168.87 1100.1 1169.03 1100.6C1169.16 1101.01 1169.23 1101.41 1169.22 1101.8C1169.21 1102.2 1169.15 1102.57 1169.01 1102.92C1168.88 1103.27 1168.69 1103.59 1168.44 1103.87C1168.2 1104.16 1167.9 1104.39 1167.55 1104.58L1167.17 1103.4Z" fill="white"/>
<path d="M1162.83 1108.19L1170.63 1106.42L1171.74 1111.31L1170.73 1111.54L1169.89 1107.83L1167.51 1108.37L1168.29 1111.83L1167.28 1112.05L1166.5 1108.59L1164.11 1109.14L1164.96 1112.9L1163.95 1113.13L1162.83 1108.19Z" fill="white"/>
<path d="M1171.14 1113.64L1172.16 1113.5L1173.02 1119.63L1171.99 1119.77L1171.65 1117.3L1164.75 1118.26L1164.59 1117.07L1171.48 1116.11L1171.14 1113.64Z" fill="white"/>
<path d="M1045.69 1041.84L1047.08 1041.37L1051.46 1046.47L1051.54 1046.44L1052 1039.73L1053.39 1039.27L1055.91 1046.86L1054.82 1047.22L1053 1041.73L1052.93 1041.76L1052.51 1047.98L1051.61 1048.28L1047.54 1043.54L1047.47 1043.57L1049.3 1049.06L1048.21 1049.43L1045.69 1041.84Z" fill="white"/>
<path d="M1063.47 1041.03C1063.66 1041.87 1063.66 1042.62 1063.49 1043.29C1063.31 1043.95 1062.99 1044.5 1062.53 1044.94C1062.07 1045.38 1061.51 1045.67 1060.83 1045.82C1060.16 1045.97 1059.52 1045.94 1058.92 1045.73C1058.32 1045.53 1057.8 1045.16 1057.36 1044.62C1056.92 1044.09 1056.62 1043.41 1056.43 1042.57C1056.25 1041.74 1056.25 1040.99 1056.42 1040.32C1056.6 1039.66 1056.91 1039.11 1057.37 1038.67C1057.83 1038.23 1058.4 1037.94 1059.08 1037.79C1059.75 1037.64 1060.39 1037.67 1060.99 1037.88C1061.59 1038.08 1062.11 1038.45 1062.55 1038.99C1062.98 1039.52 1063.29 1040.2 1063.47 1041.03ZM1062.31 1041.29C1062.17 1040.65 1061.95 1040.14 1061.65 1039.75C1061.35 1039.36 1061 1039.09 1060.59 1038.94C1060.19 1038.79 1059.76 1038.77 1059.31 1038.86C1058.86 1038.96 1058.49 1039.16 1058.18 1039.47C1057.88 1039.77 1057.67 1040.16 1057.56 1040.64C1057.45 1041.12 1057.47 1041.68 1057.61 1042.32C1057.74 1042.95 1057.96 1043.47 1058.26 1043.86C1058.56 1044.25 1058.92 1044.52 1059.32 1044.67C1059.72 1044.82 1060.15 1044.84 1060.6 1044.74C1061.05 1044.64 1061.42 1044.44 1061.73 1044.14C1062.03 1043.84 1062.24 1043.45 1062.35 1042.97C1062.46 1042.48 1062.45 1041.93 1062.31 1041.29Z" fill="white"/>
<path d="M1068.53 1044.37L1065.96 1044.68L1065.01 1036.73L1067.66 1036.41C1068.44 1036.32 1069.13 1036.4 1069.72 1036.65C1070.32 1036.9 1070.8 1037.3 1071.17 1037.86C1071.54 1038.41 1071.77 1039.1 1071.87 1039.92C1071.97 1040.75 1071.91 1041.48 1071.68 1042.11C1071.45 1042.74 1071.07 1043.25 1070.54 1043.64C1070.01 1044.03 1069.34 1044.27 1068.53 1044.37ZM1067.03 1043.48L1068.34 1043.33C1068.95 1043.25 1069.43 1043.08 1069.81 1042.8C1070.18 1042.53 1070.44 1042.16 1070.59 1041.7C1070.73 1041.24 1070.77 1040.69 1070.69 1040.07C1070.62 1039.44 1070.46 1038.93 1070.21 1038.52C1069.96 1038.11 1069.62 1037.81 1069.21 1037.63C1068.79 1037.45 1068.29 1037.4 1067.71 1037.47L1066.33 1037.64L1067.03 1043.48Z" fill="white"/>
<path d="M1073.45 1043.84L1073.14 1035.85L1078.15 1035.66L1078.19 1036.69L1074.39 1036.84L1074.48 1039.28L1078.03 1039.14L1078.07 1040.18L1074.52 1040.31L1074.62 1042.76L1078.47 1042.61L1078.51 1043.65L1073.45 1043.84Z" fill="white"/>
<path d="M1080.61 1043.63L1080.98 1035.64L1083.83 1035.77C1084.45 1035.8 1084.96 1035.93 1085.36 1036.17C1085.76 1036.4 1086.05 1036.71 1086.24 1037.09C1086.42 1037.48 1086.5 1037.92 1086.48 1038.41C1086.46 1038.9 1086.34 1039.32 1086.11 1039.68C1085.89 1040.04 1085.57 1040.32 1085.15 1040.5C1084.73 1040.69 1084.22 1040.77 1083.6 1040.74L1081.44 1040.64L1081.49 1039.6L1083.54 1039.7C1083.93 1039.72 1084.25 1039.67 1084.5 1039.57C1084.75 1039.47 1084.94 1039.32 1085.06 1039.11C1085.18 1038.9 1085.25 1038.65 1085.27 1038.35C1085.28 1038.05 1085.23 1037.79 1085.13 1037.56C1085.02 1037.33 1084.85 1037.15 1084.61 1037.03C1084.37 1036.9 1084.05 1036.82 1083.65 1036.8L1082.14 1036.73L1081.82 1043.69L1080.61 1043.63ZM1084.72 1040.21L1086.53 1043.91L1085.16 1043.84L1083.39 1040.15L1084.72 1040.21Z" fill="white"/>
<path d="M1088.68 1044.12L1087.41 1043.95L1091.34 1036.41L1092.72 1036.6L1094.5 1044.91L1093.23 1044.74L1091.87 1037.95L1091.81 1037.94L1088.68 1044.12ZM1089.32 1041.05L1093.43 1041.61L1093.3 1042.61L1089.18 1042.05L1089.32 1041.05Z" fill="white"/>
<path d="M1096.83 1038.26L1097.06 1037.25L1103.1 1038.62L1102.87 1039.63L1100.43 1039.08L1098.9 1045.87L1097.72 1045.6L1099.26 1038.82L1096.83 1038.26Z" fill="white"/>
<path d="M1102.87 1046.84L1105.28 1039.22L1110.06 1040.73L1109.75 1041.72L1106.12 1040.57L1105.38 1042.89L1108.77 1043.96L1108.45 1044.95L1105.07 1043.88L1104.33 1046.22L1108.01 1047.38L1107.7 1048.37L1102.87 1046.84Z" fill="white"/>
<defs>
<filter id="filter0_dd_1198_3380" x="1080.77" y="1019.73" width="115.228" height="125.291" filterUnits="userSpaceOnUse" color-interpolation-filters="sRGB">
<feFlood flood-opacity="0" result="BackgroundImageFix"/>
<feColorMatrix in="SourceAlpha" type="matrix" values="0 0 0 0 0 0 0 0 0 0 0 0 0 0 0 0 0 0 127 0" result="hardAlpha"/>
<feOffset dx="4" dy="4"/>
<feGaussianBlur stdDeviation="2"/>
<feComposite in2="hardAlpha" operator="out"/>
<feColorMatrix type="matrix" values="0 0 0 0 0 0 0 0 0 0 0 0 0 0 0 0 0 0 0.25 0"/>
<feBlend mode="normal" in2="BackgroundImageFix" result="effect1_dropShadow_1198_3380"/>
<feColorMatrix in="SourceAlpha" type="matrix" values="0 0 0 0 0 0 0 0 0 0 0 0 0 0 0 0 0 0 127 0" result="hardAlpha"/>
<feOffset dx="-2" dy="-1"/>
<feGaussianBlur stdDeviation="8"/>
<feComposite in2="hardAlpha" operator="out"/>
<feColorMatrix type="matrix" values="0 0 0 0 1 0 0 0 0 1 0 0 0 0 1 0 0 0 0.25 0"/>
<feBlend mode="normal" in2="effect1_dropShadow_1198_3380" result="effect2_dropShadow_1198_3380"/>
<feBlend mode="normal" in="SourceGraphic" in2="effect2_dropShadow_1198_3380" result="shape"/>
</filter>
<filter id="filter1_dd_1198_3380" x="1010.57" y="1011.18" width="131.159" height="93.5676" filterUnits="userSpaceOnUse" color-interpolation-filters="sRGB">
<feFlood flood-opacity="0" result="BackgroundImageFix"/>
<feColorMatrix in="SourceAlpha" type="matrix" values="0 0 0 0 0 0 0 0 0 0 0 0 0 0 0 0 0 0 127 0" result="hardAlpha"/>
<feOffset dx="4" dy="4"/>
<feGaussianBlur stdDeviation="2"/>
<feComposite in2="hardAlpha" operator="out"/>
<feColorMatrix type="matrix" values="0 0 0 0 0 0 0 0 0 0 0 0 0 0 0 0 0 0 0.25 0"/>
<feBlend mode="normal" in2="BackgroundImageFix" result="effect1_dropShadow_1198_3380"/>
<feColorMatrix in="SourceAlpha" type="matrix" values="0 0 0 0 0 0 0 0 0 0 0 0 0 0 0 0 0 0 127 0" result="hardAlpha"/>
<feOffset dx="-2" dy="-1"/>
<feGaussianBlur stdDeviation="8"/>
<feComposite in2="hardAlpha" operator="out"/>
<feColorMatrix type="matrix" values="0 0 0 0 1 0 0 0 0 1 0 0 0 0 1 0 0 0 0.25 0"/>
<feBlend mode="normal" in2="effect1_dropShadow_1198_3380" result="effect2_dropShadow_1198_3380"/>
<feBlend mode="normal" in="SourceGraphic" in2="effect2_dropShadow_1198_3380" result="shape"/>
</filter>
<filter id="filter2_dd_1198_3380" x="960" y="1023.99" width="111.182" height="121.189" filterUnits="userSpaceOnUse" color-interpolation-filters="sRGB">
<feFlood flood-opacity="0" result="BackgroundImageFix"/>
<feColorMatrix in="SourceAlpha" type="matrix" values="0 0 0 0 0 0 0 0 0 0 0 0 0 0 0 0 0 0 127 0" result="hardAlpha"/>
<feOffset dx="4" dy="4"/>
<feGaussianBlur stdDeviation="2"/>
<feComposite in2="hardAlpha" operator="out"/>
<feColorMatrix type="matrix" values="0 0 0 0 0 0 0 0 0 0 0 0 0 0 0 0 0 0 0.25 0"/>
<feBlend mode="normal" in2="BackgroundImageFix" result="effect1_dropShadow_1198_3380"/>
<feColorMatrix in="SourceAlpha" type="matrix" values="0 0 0 0 0 0 0 0 0 0 0 0 0 0 0 0 0 0 127 0" result="hardAlpha"/>
<feOffset dx="-2" dy="-1"/>
<feGaussianBlur stdDeviation="8"/>
<feComposite in2="hardAlpha" operator="out"/>
<feColorMatrix type="matrix" values="0 0 0 0 1 0 0 0 0 1 0 0 0 0 1 0 0 0 0.25 0"/>
<feBlend mode="normal" in2="effect1_dropShadow_1198_3380" result="effect2_dropShadow_1198_3380"/>
<feBlend mode="normal" in="SourceGraphic" in2="effect2_dropShadow_1198_3380" result="shape"/>
</filter>
<filter id="filter3_dddddd_1198_3380" x="89.8219" y="12.4596" width="2120.34" height="2145.34" filterUnits="userSpaceOnUse" color-interpolation-filters="sRGB">
<feFlood flood-opacity="0" result="BackgroundImageFix"/>
<feColorMatrix in="SourceAlpha" type="matrix" values="0 0 0 0 0 0 0 0 0 0 0 0 0 0 0 0 0 0 127 0" result="hardAlpha"/>
<feOffset/>
<feGaussianBlur stdDeviation="12.24"/>
<feColorMatrix type="matrix" values="0 0 0 0 1 0 0 0 0 0.0392157 0 0 0 0 0.329412 0 0 0 1 0"/>
<feBlend mode="normal" in2="BackgroundImageFix" result="effect1_dropShadow_1198_3380"/>
<feColorMatrix in="SourceAlpha" type="matrix" values="0 0 0 0 0 0 0 0 0 0 0 0 0 0 0 0 0 0 127 0" result="hardAlpha"/>
<feOffset/>
<feGaussianBlur stdDeviation="24.48"/>
<feColorMatrix type="matrix" values="0 0 0 0 1 0 0 0 0 0.0392157 0 0 0 0 0.329412 0 0 0 1 0"/>
<feBlend mode="normal" in2="effect1_dropShadow_1198_3380" result="effect2_dropShadow_1198_3380"/>
<feColorMatrix in="SourceAlpha" type="matrix" values="0 0 0 0 0 0 0 0 0 0 0 0 0 0 0 0 0 0 127 0" result="hardAlpha"/>
<feOffset/>
<feGaussianBlur stdDeviation="85.68"/>
<feColorMatrix type="matrix" values="0 0 0 0 1 0 0 0 0 0.0392157 0 0 0 0 0.329412 0 0 0 1 0"/>
<feBlend mode="normal" in2="effect2_dropShadow_1198_3380" result="effect3_dropShadow_1198_3380"/>
<feColorMatrix in="SourceAlpha" type="matrix" values="0 0 0 0 0 0 0 0 0 0 0 0 0 0 0 0 0 0 127 0" result="hardAlpha"/>
<feOffset/>
<feGaussianBlur stdDeviation="171.36"/>
<feColorMatrix type="matrix" values="0 0 0 0 1 0 0 0 0 0.0392157 0 0 0 0 0.329412 0 0 0 1 0"/>
<feBlend mode="normal" in2="effect3_dropShadow_1198_3380" result="effect4_dropShadow_1198_3380"/>
<feColorMatrix in="SourceAlpha" type="matrix" values="0 0 0 0 0 0 0 0 0 0 0 0 0 0 0 0 0 0 127 0" result="hardAlpha"/>
<feOffset/>
<feGaussianBlur stdDeviation="293.76"/>
<feColorMatrix type="matrix" values="0 0 0 0 1 0 0 0 0 0.0392157 0 0 0 0 0.329412 0 0 0 1 0"/>
<feBlend mode="normal" in2="effect4_dropShadow_1198_3380" result="effect5_dropShadow_1198_3380"/>
<feColorMatrix in="SourceAlpha" type="matrix" values="0 0 0 0 0 0 0 0 0 0 0 0 0 0 0 0 0 0 127 0" result="hardAlpha"/>
<feOffset/>
<feGaussianBlur stdDeviation="514.08"/>
<feColorMatrix type="matrix" values="0 0 0 0 1 0 0 0 0 0.0392157 0 0 0 0 0.329412 0 0 0 1 0"/>
<feBlend mode="normal" in2="effect5_dropShadow_1198_3380" result="effect6_dropShadow_1198_3380"/>
<feBlend mode="normal" in="SourceGraphic" in2="effect6_dropShadow_1198_3380" result="shape"/>
</filter>
<filter id="filter4_f_1198_3380" x="1114.98" y="1037.62" width="70.0159" height="95.0195" filterUnits="userSpaceOnUse" color-interpolation-filters="sRGB">
<feFlood flood-opacity="0" result="BackgroundImageFix"/>
<feBlend mode="normal" in="SourceGraphic" in2="BackgroundImageFix" result="shape"/>
<feGaussianBlur stdDeviation="1.5" result="effect1_foregroundBlur_1198_3380"/>
</filter>
<filter id="filter5_dddddd_1198_3380" x="0.414185" y="0.0161133" width="2155.48" height="2089.89" filterUnits="userSpaceOnUse" color-interpolation-filters="sRGB">
<feFlood flood-opacity="0" result="BackgroundImageFix"/>
<feColorMatrix in="SourceAlpha" type="matrix" values="0 0 0 0 0 0 0 0 0 0 0 0 0 0 0 0 0 0 127 0" result="hardAlpha"/>
<feOffset/>
<feGaussianBlur stdDeviation="12.24"/>
<feColorMatrix type="matrix" values="0 0 0 0 1 0 0 0 0 0.580392 0 0 0 0 0.301961 0 0 0 1 0"/>
<feBlend mode="normal" in2="BackgroundImageFix" result="effect1_dropShadow_1198_3380"/>
<feColorMatrix in="SourceAlpha" type="matrix" values="0 0 0 0 0 0 0 0 0 0 0 0 0 0 0 0 0 0 127 0" result="hardAlpha"/>
<feOffset/>
<feGaussianBlur stdDeviation="24.48"/>
<feColorMatrix type="matrix" values="0 0 0 0 1 0 0 0 0 0.580392 0 0 0 0 0.301961 0 0 0 1 0"/>
<feBlend mode="normal" in2="effect1_dropShadow_1198_3380" result="effect2_dropShadow_1198_3380"/>
<feColorMatrix in="SourceAlpha" type="matrix" values="0 0 0 0 0 0 0 0 0 0 0 0 0 0 0 0 0 0 127 0" result="hardAlpha"/>
<feOffset/>
<feGaussianBlur stdDeviation="85.68"/>
<feColorMatrix type="matrix" values="0 0 0 0 1 0 0 0 0 0.580392 0 0 0 0 0.301961 0 0 0 1 0"/>
<feBlend mode="normal" in2="effect2_dropShadow_1198_3380" result="effect3_dropShadow_1198_3380"/>
<feColorMatrix in="SourceAlpha" type="matrix" values="0 0 0 0 0 0 0 0 0 0 0 0 0 0 0 0 0 0 127 0" result="hardAlpha"/>
<feOffset/>
<feGaussianBlur stdDeviation="171.36"/>
<feColorMatrix type="matrix" values="0 0 0 0 1 0 0 0 0 0.580392 0 0 0 0 0.301961 0 0 0 1 0"/>
<feBlend mode="normal" in2="effect3_dropShadow_1198_3380" result="effect4_dropShadow_1198_3380"/>
<feColorMatrix in="SourceAlpha" type="matrix" values="0 0 0 0 0 0 0 0 0 0 0 0 0 0 0 0 0 0 127 0" result="hardAlpha"/>
<feOffset/>
<feGaussianBlur stdDeviation="293.76"/>
<feColorMatrix type="matrix" values="0 0 0 0 1 0 0 0 0 0.580392 0 0 0 0 0.301961 0 0 0 1 0"/>
<feBlend mode="normal" in2="effect4_dropShadow_1198_3380" result="effect5_dropShadow_1198_3380"/>
<feColorMatrix in="SourceAlpha" type="matrix" values="0 0 0 0 0 0 0 0 0 0 0 0 0 0 0 0 0 0 127 0" result="hardAlpha"/>
<feOffset/>
<feGaussianBlur stdDeviation="514.08"/>
<feColorMatrix type="matrix" values="0 0 0 0 1 0 0 0 0 0.580392 0 0 0 0 0.301961 0 0 0 1 0"/>
<feBlend mode="normal" in2="effect5_dropShadow_1198_3380" result="effect6_dropShadow_1198_3380"/>
<feBlend mode="normal" in="SourceGraphic" in2="effect6_dropShadow_1198_3380" result="shape"/>
</filter>
<filter id="filter6_f_1198_3380" x="1024.57" y="1024.18" width="107.159" height="41.5704" filterUnits="userSpaceOnUse" color-interpolation-filters="sRGB">
<feFlood flood-opacity="0" result="BackgroundImageFix"/>
<feBlend mode="normal" in="SourceGraphic" in2="BackgroundImageFix" result="shape"/>
<feGaussianBlur stdDeviation="2" result="effect1_foregroundBlur_1198_3380"/>
</filter>
<filter id="filter7_dddddd_1198_3380" x="206.88" y="269.867" width="1605.83" height="1631.43" filterUnits="userSpaceOnUse" color-interpolation-filters="sRGB">
<feFlood flood-opacity="0" result="BackgroundImageFix"/>
<feColorMatrix in="SourceAlpha" type="matrix" values="0 0 0 0 0 0 0 0 0 0 0 0 0 0 0 0 0 0 127 0" result="hardAlpha"/>
<feOffset/>
<feGaussianBlur stdDeviation="9.18"/>
<feColorMatrix type="matrix" values="0 0 0 0 0.364706 0 0 0 0 0.87451 0 0 0 0 0.721569 0 0 0 1 0"/>
<feBlend mode="normal" in2="BackgroundImageFix" result="effect1_dropShadow_1198_3380"/>
<feColorMatrix in="SourceAlpha" type="matrix" values="0 0 0 0 0 0 0 0 0 0 0 0 0 0 0 0 0 0 127 0" result="hardAlpha"/>
<feOffset/>
<feGaussianBlur stdDeviation="18.36"/>
<feColorMatrix type="matrix" values="0 0 0 0 0.364706 0 0 0 0 0.87451 0 0 0 0 0.721569 0 0 0 1 0"/>
<feBlend mode="normal" in2="effect1_dropShadow_1198_3380" result="effect2_dropShadow_1198_3380"/>
<feColorMatrix in="SourceAlpha" type="matrix" values="0 0 0 0 0 0 0 0 0 0 0 0 0 0 0 0 0 0 127 0" result="hardAlpha"/>
<feOffset/>
<feGaussianBlur stdDeviation="64.26"/>
<feColorMatrix type="matrix" values="0 0 0 0 0.364706 0 0 0 0 0.87451 0 0 0 0 0.721569 0 0 0 1 0"/>
<feBlend mode="normal" in2="effect2_dropShadow_1198_3380" result="effect3_dropShadow_1198_3380"/>
<feColorMatrix in="SourceAlpha" type="matrix" values="0 0 0 0 0 0 0 0 0 0 0 0 0 0 0 0 0 0 127 0" result="hardAlpha"/>
<feOffset/>
<feGaussianBlur stdDeviation="128.52"/>
<feColorMatrix type="matrix" values="0 0 0 0 0.364706 0 0 0 0 0.87451 0 0 0 0 0.721569 0 0 0 1 0"/>
<feBlend mode="normal" in2="effect3_dropShadow_1198_3380" result="effect4_dropShadow_1198_3380"/>
<feColorMatrix in="SourceAlpha" type="matrix" values="0 0 0 0 0 0 0 0 0 0 0 0 0 0 0 0 0 0 127 0" result="hardAlpha"/>
<feOffset/>
<feGaussianBlur stdDeviation="220.32"/>
<feColorMatrix type="matrix" values="0 0 0 0 0.364706 0 0 0 0 0.87451 0 0 0 0 0.721569 0 0 0 1 0"/>
<feBlend mode="normal" in2="effect4_dropShadow_1198_3380" result="effect5_dropShadow_1198_3380"/>
<feColorMatrix in="SourceAlpha" type="matrix" values="0 0 0 0 0 0 0 0 0 0 0 0 0 0 0 0 0 0 127 0" result="hardAlpha"/>
<feOffset/>
<feGaussianBlur stdDeviation="385.56"/>
<feColorMatrix type="matrix" values="0 0 0 0 0.364706 0 0 0 0 0.87451 0 0 0 0 0.721569 0 0 0 1 0"/>
<feBlend mode="normal" in2="effect5_dropShadow_1198_3380" result="effect6_dropShadow_1198_3380"/>
<feBlend mode="normal" in="SourceGraphic" in2="effect6_dropShadow_1198_3380" result="shape"/>
</filter>
<filter id="filter8_f_1198_3380" x="973" y="1035.99" width="73.5886" height="99.1887" filterUnits="userSpaceOnUse" color-interpolation-filters="sRGB">
<feFlood flood-opacity="0" result="BackgroundImageFix"/>
<feBlend mode="normal" in="SourceGraphic" in2="BackgroundImageFix" result="shape"/>
<feGaussianBlur stdDeviation="2.5" result="effect1_foregroundBlur_1198_3380"/>
</filter>
</defs>
</svg>
