<svg width="236" height="121" viewBox="3 0 236 121" fill="none" xmlns="http://www.w3.org/2000/svg">
<g filter="url(#filter0_dd_0_307)">
<path d="M160.879 25.5501C178.995 33.4747 194.417 46.4938 205.268 63.0233C216.119 79.5528 221.932 98.88 221.999 118.653L166.839 118.841C166.808 109.761 164.139 100.886 159.156 93.2951C154.173 85.7047 147.091 79.7262 138.772 76.0871L160.879 25.5501Z" fill="#F15761"/>
</g>
<g filter="url(#filter1_dd_0_307)">
<path d="M68.5739 30.9128C83.5621 22.1626 100.535 17.3815 117.887 17.022C135.239 16.6624 152.395 20.7363 167.733 28.858L141.91 77.6246C134.869 73.8967 126.995 72.0267 119.03 72.1918C111.066 72.3568 103.275 74.5514 96.3953 78.5677L68.5739 30.9128Z" fill="#F19B62"/>
</g>
<g filter="url(#filter2_dd_0_307)">
<path d="M18 119C18 100.801 22.8691 82.9337 32.1022 67.251C41.3352 51.5683 54.596 38.6414 70.5091 29.8112L97.1824 77.8798C89.8457 81.9509 83.7319 87.9108 79.475 95.1413C75.2181 102.372 72.9732 110.61 72.9732 119L18 119Z" fill="#449C7D"/>
</g>
<g filter="url(#filter3_dd_0_307)">
<path d="M168.823 29.4436C184.812 38.1604 198.176 50.9991 207.527 66.6263C216.878 82.2534 221.874 100.099 221.998 118.31L199.349 118.463C199.253 104.296 195.366 90.4129 188.092 78.2557C180.817 66.0986 170.421 56.1107 157.982 49.3294L168.823 29.4436Z" fill="#F4767D"/>
</g>
<g filter="url(#filter4_dd_0_307)">
<path d="M68.5739 30.9128C83.5621 22.1626 100.535 17.3815 117.887 17.022C135.239 16.6624 152.395 20.7363 167.733 28.858L157.081 48.9742C145.166 42.6649 131.838 39.5002 118.358 39.7795C104.879 40.0588 91.6936 43.773 80.0502 50.5705L68.5739 30.9128Z" fill="#F4AC7D"/>
</g>
<g filter="url(#filter5_dd_0_307)">
<path d="M18 119C18 100.801 22.8691 82.9337 32.1022 67.251C41.3352 51.5683 54.596 38.6414 70.5091 29.8112L81.5885 49.7777C69.2379 56.6311 58.9457 66.6641 51.7797 78.836C44.6136 91.0078 40.8346 104.875 40.8346 119L18 119Z" fill="#45B292"/>
</g>
<rect width="3.52052" height="55.5414" transform="matrix(-0.882549 -0.47022 -0.47022 0.882549 169.224 29.4695)" fill="#252229"/>
<rect x="98.9983" y="77.2426" width="3.52052" height="55.4275" transform="rotate(150.698 98.9983 77.2426)" fill="#252229"/>
<path d="M33.9899 108.937L26.0667 107.831L26.7601 102.864L27.7892 103.007L27.2627 106.779L29.6768 107.116L30.1671 103.603L31.1923 103.746L30.702 107.259L33.1277 107.598L33.6607 103.779L34.6897 103.923L33.9899 108.937Z" fill="white"/>
<path d="M35.1122 101.675L34.8291 102.925L27.663 98.349L27.9712 96.9889L36.4096 95.949L36.1265 97.1986L29.2417 97.9577L29.2278 98.0186L35.1122 101.675ZM32.1043 100.773L33.0228 96.7197L34.0133 96.9441L33.0948 100.998L32.1043 100.773Z" fill="white"/>
<path d="M32.4602 88.8934C32.0954 88.8202 31.7701 88.8965 31.4845 89.1222C31.1964 89.3471 30.9825 89.6778 30.8426 90.1143C30.7425 90.4268 30.7055 90.713 30.7316 90.9729C30.7552 91.2321 30.8324 91.4523 30.963 91.6336C31.0919 91.8116 31.2642 91.9352 31.48 92.0043C31.661 92.0623 31.8308 92.0702 31.9892 92.028C32.1485 91.9833 32.295 91.9058 32.4287 91.7956C32.5608 91.682 32.6825 91.5542 32.7936 91.412C32.9023 91.2691 32.9991 91.1292 33.084 90.9923L33.5158 90.3103C33.6531 90.0863 33.8136 89.8629 33.9971 89.64C34.1806 89.4172 34.3904 89.2232 34.6265 89.0582C34.8626 88.8932 35.1248 88.7831 35.4133 88.7278C35.7025 88.6701 36.0182 88.696 36.3604 88.8057C36.792 88.9439 37.1394 89.1783 37.4027 89.5088C37.6667 89.8367 37.828 90.2425 37.8863 90.7261C37.9455 91.2072 37.8797 91.7453 37.6891 92.3405C37.5063 92.9109 37.2577 93.3754 36.9432 93.7341C36.6286 94.0927 36.2675 94.3366 35.8597 94.4657C35.4494 94.5941 35.0109 94.5972 34.5441 94.475L34.9136 93.3218C35.196 93.3876 35.454 93.3719 35.6876 93.2744C35.9195 93.1737 36.1194 93.0149 36.2874 92.798C36.4536 92.5778 36.584 92.3201 36.6786 92.025C36.7826 91.7001 36.8244 91.3949 36.8037 91.1094C36.7814 90.8206 36.7019 90.5736 36.5653 90.3685C36.4262 90.1626 36.2326 90.0199 35.9846 89.9404C35.7589 89.8681 35.5535 89.8734 35.3683 89.9563C35.184 90.0367 35.0097 90.1709 34.8456 90.359C34.6822 90.5445 34.5209 90.7622 34.3615 91.012L33.8276 91.8335C33.466 92.3904 33.0668 92.7957 32.63 93.0496C32.1939 93.3009 31.7106 93.3416 31.1799 93.1715C30.7409 93.0309 30.3959 92.7891 30.1448 92.4462C29.8937 92.1032 29.7428 91.6994 29.692 91.2346C29.6388 90.7691 29.6941 90.2809 29.8577 89.77C30.023 89.2542 30.2593 88.8281 30.5667 88.4918C30.8748 88.153 31.2242 87.9204 31.6147 87.7939C32.0028 87.6667 32.403 87.6636 32.8154 87.7848L32.4602 88.8934Z" fill="white"/>
<path d="M31.4962 85.2021L32.0303 83.9393L36.1938 83.4312L36.2273 83.3521L33.692 80.0106L34.2261 78.7478L37.571 83.3139L40.4635 84.5373L39.9948 85.6454L37.1023 84.422L31.4962 85.2021Z" fill="white"/>
<path d="M37.3061 74.9193L36.4057 74.4007L39.4957 69.0355L40.3961 69.5541L39.1503 71.7171L45.1824 75.1912L44.5819 76.2337L38.5499 72.7597L37.3061 74.9193Z" fill="white"/>
<path d="M48.177 63.4851C48.8732 63.98 49.3813 64.5328 49.7012 65.1435C50.0189 65.7528 50.1549 66.3751 50.1092 67.0103C50.0628 67.6419 49.8397 68.2389 49.4399 68.8014C49.0386 69.366 48.5465 69.7751 47.9638 70.0286C47.3804 70.2785 46.7477 70.3528 46.0657 70.2514C45.3837 70.1501 44.6957 69.8528 44.0016 69.3594C43.3054 68.8645 42.7984 68.3125 42.4807 67.7032C42.1608 67.0924 42.024 66.4713 42.0704 65.8397C42.1161 65.2044 42.3397 64.6045 42.741 64.0399C43.1408 63.4774 43.6324 63.0712 44.2158 62.8213C44.7986 62.5678 45.4309 62.4917 46.1129 62.5931C46.7928 62.6929 47.4808 62.9902 48.177 63.4851ZM47.4845 64.4594C46.9539 64.0822 46.446 63.8506 45.9608 63.7645C45.475 63.6748 45.0331 63.7122 44.6351 63.8766C44.2365 64.0373 43.9044 64.3045 43.6388 64.6781C43.3718 65.0538 43.2279 65.4563 43.2071 65.8856C43.1842 66.3134 43.2941 66.743 43.537 67.1745C43.7793 67.6023 44.1657 68.0048 44.6964 68.3819C45.227 68.7591 45.7353 68.9926 46.221 69.0823C46.7062 69.1683 47.1481 69.131 47.5467 68.9702C47.9432 68.8079 48.275 68.5389 48.5421 68.1632C48.8076 67.7897 48.9518 67.389 48.9747 66.9612C48.9971 66.5297 48.8871 66.1001 48.6448 65.6723C48.4019 65.2409 48.0152 64.8366 47.4845 64.4594Z" fill="white"/>
<path d="M53.9405 54.6753C53.7155 54.5692 53.4909 54.4991 53.2667 54.4648C53.0424 54.4269 52.8222 54.4266 52.6061 54.464C52.3881 54.4995 52.1771 54.5754 51.9731 54.6915C51.7709 54.8057 51.5794 54.9601 51.3985 55.1546C51.0917 55.4846 50.8999 55.861 50.8232 56.2839C50.7464 56.7068 50.8002 57.148 50.9846 57.6075C51.1689 58.0633 51.4975 58.5111 51.9704 58.9509C52.4453 59.3924 52.9186 59.6885 53.3902 59.839C53.8619 59.9895 54.3076 60.0093 54.7274 59.8982C55.1471 59.7871 55.5166 59.5599 55.8358 59.2167C56.132 58.8982 56.3251 58.5604 56.4154 58.2033C56.5073 57.8444 56.4954 57.4901 56.3795 57.1405C56.2635 56.7873 56.0443 56.4608 55.722 56.1611L55.9777 55.9721L54.4189 57.6485L53.6895 56.9702L55.8308 54.6674L56.4973 55.2871C56.9893 55.7447 57.319 56.2468 57.4863 56.7935C57.6534 57.3365 57.6641 57.8834 57.5183 58.4341C57.3742 58.9829 57.0823 59.4938 56.6425 59.9668C56.1495 60.497 55.5948 60.8488 54.9783 61.0223C54.3636 61.1939 53.7284 61.1829 53.0727 60.9893C52.4152 60.7939 51.7774 60.409 51.1595 59.8344C50.6923 59.4 50.333 58.945 50.0817 58.4695C49.8304 57.994 49.6842 57.5184 49.6429 57.0427C49.6015 56.5632 49.6603 56.1004 49.8191 55.6543C49.9778 55.2044 50.2336 54.7898 50.5865 54.4102C50.8808 54.0937 51.2015 53.8425 51.5486 53.6566C51.8974 53.4689 52.2569 53.348 52.6272 53.2941C52.9992 53.2381 53.369 53.2496 53.7368 53.3283C54.1026 53.4053 54.4515 53.552 54.7837 53.7684L53.9405 54.6753Z" fill="white"/>
<path d="M59.9968 56.3572L54.6349 50.42L58.3573 47.0584L59.0537 47.8295L56.2271 50.3821L57.8608 52.1911L60.4931 49.8139L61.1869 50.5821L58.5546 52.9594L60.1962 54.7771L63.0575 52.193L63.7539 52.9641L59.9968 56.3572Z" fill="white"/>
<path d="M60.7541 46.3837L60.1247 45.5571L65.0506 41.8062L65.68 42.6329L63.6941 44.1451L67.9112 49.6832L66.954 50.4121L62.7369 44.8739L60.7541 46.3837Z" fill="white"/>
<path d="M168.1 47.4597L172.877 41.0422L173.845 41.7628L171.769 44.5517L174.968 46.933L177.044 44.1441L178.016 44.8672L173.239 51.2847L172.268 50.5616L174.35 47.7634L171.151 45.3821L169.068 48.1804L168.1 47.4597Z" fill="white"/>
<path d="M175.369 53.0752L174.418 52.2165L181.917 48.2088L182.952 49.1435L179.726 57.0103L178.776 56.1515L181.485 49.7769L181.439 49.735L175.369 53.0752ZM177.628 50.8942L180.713 53.6799L180.032 54.4336L176.948 51.648L177.628 50.8942Z" fill="white"/>
<path d="M180.613 57.9299L186.472 52.4823L188.413 54.5705C188.835 55.0244 189.107 55.4738 189.229 55.9186C189.353 56.3653 189.346 56.7917 189.208 57.1975C189.072 57.6017 188.823 57.9713 188.463 58.3064C188.104 58.6398 187.719 58.858 187.306 58.9609C186.897 59.064 186.477 59.0349 186.046 58.8736C185.617 58.7143 185.191 58.4077 184.769 57.9538L183.298 56.3719L184.059 55.6643L185.456 57.1662C185.722 57.4522 185.979 57.6468 186.228 57.7498C186.478 57.8547 186.721 57.8764 186.955 57.8149C187.189 57.7534 187.416 57.6207 187.636 57.4168C187.857 57.2111 188.008 56.9899 188.091 56.7534C188.175 56.5188 188.176 56.2709 188.093 56.01C188.014 55.7491 187.839 55.4728 187.568 55.181L186.535 54.0711L181.435 58.8138L180.613 57.9299ZM185.945 58.3642L184.648 62.2695L183.712 61.2625L185.036 57.3858L185.945 58.3642Z" fill="white"/>
<path d="M187.008 65.212L185.417 63.1688L191.728 58.2529L193.37 60.3608C193.852 60.9792 194.139 61.6087 194.232 62.2493C194.327 62.8883 194.231 63.5092 193.945 64.1119C193.662 64.7151 193.193 65.2719 192.538 65.7824C191.88 66.2944 191.222 66.6143 190.562 66.742C189.904 66.8717 189.271 66.8098 188.664 66.5562C188.06 66.3011 187.508 65.853 187.008 65.212ZM186.991 63.473L187.8 64.5115C188.174 64.9923 188.576 65.3215 189.005 65.4991C189.435 65.6751 189.885 65.7078 190.353 65.5972C190.824 65.4849 191.309 65.2344 191.808 64.8455C192.303 64.4599 192.662 64.0535 192.884 63.6265C193.107 63.2015 193.187 62.7643 193.124 62.3149C193.062 61.8654 192.851 61.4106 192.492 60.9504L191.638 59.8533L186.991 63.473Z" fill="white"/>
<path d="M197.585 67.9351L198.476 67.4L201.664 72.7074L200.773 73.2425L199.488 71.1028L193.521 74.6873L192.901 73.6559L198.868 70.0714L197.585 67.9351Z" fill="white"/>
<path d="M202.325 83.045C201.554 83.4126 200.824 83.5875 200.134 83.5699C199.447 83.5512 198.838 83.3673 198.305 83.0183C197.776 82.6706 197.362 82.1852 197.065 81.5623C196.767 80.937 196.649 80.3081 196.711 79.6756C196.777 79.0443 197.02 78.4554 197.44 77.9089C197.86 77.3623 198.455 76.9058 199.223 76.5394C199.994 76.1718 200.723 75.9974 201.41 76.0161C202.1 76.0338 202.709 76.2165 203.238 76.5642C203.771 76.9132 204.186 77.4003 204.484 78.0256C204.781 78.6486 204.897 79.2757 204.832 79.9069C204.77 80.5394 204.528 81.129 204.108 81.6755C203.69 82.2209 203.096 82.6774 202.325 83.045ZM201.81 81.966C202.398 81.6859 202.847 81.3548 203.159 80.9727C203.473 80.5919 203.656 80.1877 203.706 79.76C203.759 79.3335 203.687 78.9134 203.49 78.4996C203.292 78.0836 203.01 77.762 202.645 77.535C202.282 77.3069 201.853 77.194 201.358 77.1963C200.867 77.1999 200.327 77.3417 199.739 77.6219C199.152 77.902 198.701 78.2325 198.386 78.6133C198.075 78.9954 197.892 79.3996 197.839 79.8261C197.788 80.2515 197.861 80.6722 198.06 81.0883C198.257 81.502 198.537 81.8229 198.9 82.0511C199.266 82.2804 199.695 82.3933 200.186 82.3898C200.681 82.3874 201.223 82.2462 201.81 81.966Z" fill="white"/>
<path d="M207.167 92.2219C207.369 92.0769 207.539 91.9148 207.678 91.7355C207.82 91.558 207.928 91.3657 208 91.1587C208.075 90.951 208.112 90.7297 208.109 90.495C208.108 90.2628 208.066 90.0203 207.984 89.7677C207.845 89.3391 207.609 88.9885 207.277 88.7157C206.945 88.443 206.533 88.2754 206.042 88.2131C205.554 88.1524 205.003 88.2217 204.389 88.4211C203.772 88.6212 203.283 88.8908 202.922 89.2297C202.561 89.5686 202.327 89.9484 202.22 90.3692C202.113 90.79 202.132 91.2234 202.277 91.6692C202.411 92.0829 202.612 92.4159 202.88 92.6684C203.149 92.9234 203.465 93.0852 203.826 93.154C204.191 93.2244 204.583 93.1917 205.002 93.0558L205.043 93.3712L204.336 91.1939L205.284 90.8864L206.254 93.8774L205.388 94.1583C204.749 94.3657 204.15 94.4096 203.591 94.2898C203.036 94.1718 202.553 93.9151 202.142 93.5199C201.733 93.1271 201.428 92.6235 201.229 92.0093C201.005 91.3206 200.968 90.6648 201.116 90.0418C201.265 89.4212 201.584 88.8715 202.072 88.3928C202.562 87.9133 203.209 87.5433 204.011 87.2828C204.618 87.0859 205.19 86.9932 205.728 87.0049C206.266 87.0166 206.753 87.1201 207.188 87.3154C207.627 87.5125 208.003 87.7888 208.316 88.1446C208.632 88.5021 208.869 88.9273 209.029 89.4202C209.163 89.8314 209.226 90.2338 209.22 90.6274C209.214 91.0234 209.145 91.3964 209.012 91.7461C208.88 92.0984 208.69 92.416 208.443 92.699C208.197 92.9811 207.9 93.2147 207.549 93.3997L207.167 92.2219Z" fill="white"/>
<path d="M202.831 97.0124L210.634 95.2446L211.742 100.136L210.729 100.366L209.887 96.6514L207.51 97.19L208.293 100.649L207.284 100.878L206.5 97.4188L204.111 97.96L204.963 101.72L203.95 101.95L202.831 97.0124Z" fill="white"/>
<path d="M211.135 102.464L212.164 102.32L213.02 108.452L211.991 108.596L211.646 106.124L204.752 107.086L204.585 105.894L211.48 104.932L211.135 102.464Z" fill="white"/>
<path d="M85.6852 30.6593L87.075 30.1966L91.4558 35.2926L91.5447 35.263L91.997 28.5581L93.3868 28.0954L95.9137 35.6859L94.824 36.0486L92.9955 30.5559L92.9251 30.5794L92.5113 36.8062L91.607 37.1072L87.5423 32.3672L87.4719 32.3906L89.3017 37.887L88.212 38.2498L85.6852 30.6593Z" fill="white"/>
<path d="M103.475 29.8585C103.657 30.693 103.661 31.4438 103.487 32.1109C103.313 32.7755 102.995 33.3275 102.534 33.7668C102.074 34.203 101.508 34.4948 100.834 34.6422C100.157 34.7901 99.5177 34.7619 98.9159 34.5576C98.3161 34.3501 97.7979 33.9796 97.3614 33.4459C96.9249 32.9122 96.6157 32.2294 96.4338 31.3975C96.2514 30.5631 96.2475 29.8135 96.4221 29.1489C96.5962 28.4818 96.9128 27.9301 97.3719 27.4939C97.833 27.0546 98.4019 26.7609 99.0786 26.613C99.7528 26.4657 100.39 26.4957 100.99 26.7031C101.591 26.9075 102.111 27.2765 102.547 27.8101C102.983 28.3413 103.292 29.0241 103.475 29.8585ZM102.307 30.1138C102.168 29.4778 101.948 28.9647 101.647 28.5747C101.347 28.1816 100.995 27.9121 100.59 27.7661C100.187 27.6169 99.7616 27.5913 99.3138 27.6892C98.8635 27.7876 98.4863 27.9887 98.1822 28.2924C97.8775 28.5936 97.6699 28.9855 97.5595 29.4681C97.4511 29.9476 97.4664 30.5054 97.6054 31.1414C97.7444 31.7775 97.9635 32.292 98.2627 32.6851C98.5638 33.0751 98.916 33.3447 99.3191 33.4938C99.7217 33.6404 100.148 33.6645 100.598 33.566C101.046 33.4682 101.422 33.2686 101.727 32.9675C102.034 32.6632 102.241 32.2713 102.35 31.7918C102.46 31.3091 102.446 30.7498 102.307 30.1138Z" fill="white"/>
<path d="M108.532 33.1906L105.96 33.4993L105.007 25.5563L107.66 25.2379C108.438 25.1444 109.125 25.2232 109.722 25.4742C110.318 25.7226 110.801 26.125 111.169 26.6814C111.54 27.2349 111.775 27.9241 111.874 28.7489C111.973 29.5763 111.907 30.3055 111.676 30.9365C111.448 31.5672 111.068 32.077 110.538 32.4659C110.007 32.8522 109.338 33.0938 108.532 33.1906ZM107.033 32.3082L108.34 32.1513C108.945 32.0787 109.434 31.9046 109.808 31.6289C110.181 31.3507 110.441 30.9824 110.588 30.5242C110.735 30.0633 110.77 29.5187 110.695 28.8904C110.62 28.2673 110.457 27.7505 110.206 27.34C109.957 26.9292 109.624 26.6348 109.207 26.4567C108.789 26.2786 108.291 26.2243 107.712 26.2939L106.331 26.4596L107.033 32.3082Z" fill="white"/>
<path d="M113.45 32.6684L113.141 24.6744L118.153 24.4808L118.193 25.5191L114.387 25.6661L114.481 28.1018L118.025 27.9649L118.065 28.9993L114.521 29.1362L114.616 31.5835L118.468 31.4348L118.508 32.4731L113.45 32.6684Z" fill="white"/>
<path d="M120.611 32.4575L120.982 24.4661L123.83 24.5981C124.449 24.6268 124.958 24.7572 125.357 24.9895C125.758 25.2218 126.051 25.5313 126.237 25.9179C126.422 26.3019 126.503 26.7397 126.481 27.2314C126.458 27.7205 126.335 28.1462 126.113 28.5087C125.893 28.8687 125.572 29.1419 125.152 29.3284C124.734 29.515 124.215 29.5939 123.596 29.5652L121.438 29.4652L121.486 28.4273L123.535 28.5222C123.925 28.5403 124.245 28.4991 124.495 28.3985C124.747 28.2981 124.935 28.1439 125.06 27.9359C125.184 27.7279 125.253 27.4743 125.267 27.1752C125.281 26.8734 125.235 26.6092 125.128 26.3827C125.024 26.1563 124.851 25.9788 124.609 25.8503C124.37 25.7193 124.052 25.6446 123.654 25.6261L122.14 25.556L121.817 32.5134L120.611 32.4575ZM124.723 29.0348L126.531 32.7318L125.157 32.6681L123.389 28.973L124.723 29.0348Z" fill="white"/>
<path d="M128.682 32.9472L127.412 32.775L131.34 25.2346L132.722 25.4221L134.499 33.7365L133.23 33.5642L131.869 26.7727L131.807 26.7643L128.682 32.9472ZM129.316 29.8717L133.434 30.4304L133.298 31.4368L129.179 30.8781L129.316 29.8717Z" fill="white"/>
<path d="M136.83 27.0891L137.059 26.0757L143.098 27.4439L142.868 28.4573L140.434 27.9057L138.896 34.6946L137.722 34.4287L139.26 27.6398L136.83 27.0891Z" fill="white"/>
<path d="M142.87 35.6674L145.282 28.0397L150.065 29.5519L149.751 30.5426L146.12 29.3943L145.385 31.7184L148.767 32.7878L148.455 33.7748L145.073 32.7054L144.334 35.0406L148.01 36.2031L147.697 37.1938L142.87 35.6674Z" fill="white"/>
<defs>
<filter id="filter0_dd_0_307" x="120.772" y="8.55009" width="115.227" height="125.291" filterUnits="userSpaceOnUse" color-interpolation-filters="sRGB">
<feFlood flood-opacity="0" result="BackgroundImageFix"/>
<feColorMatrix in="SourceAlpha" type="matrix" values="0 0 0 0 0 0 0 0 0 0 0 0 0 0 0 0 0 0 127 0" result="hardAlpha"/>
<feOffset dx="4" dy="4"/>
<feGaussianBlur stdDeviation="2"/>
<feComposite in2="hardAlpha" operator="out"/>
<feColorMatrix type="matrix" values="0 0 0 0 0 0 0 0 0 0 0 0 0 0 0 0 0 0 0.25 0"/>
<feBlend mode="normal" in2="BackgroundImageFix" result="effect1_dropShadow_0_307"/>
<feColorMatrix in="SourceAlpha" type="matrix" values="0 0 0 0 0 0 0 0 0 0 0 0 0 0 0 0 0 0 127 0" result="hardAlpha"/>
<feOffset dx="-2" dy="-1"/>
<feGaussianBlur stdDeviation="8"/>
<feComposite in2="hardAlpha" operator="out"/>
<feColorMatrix type="matrix" values="0 0 0 0 1 0 0 0 0 1 0 0 0 0 1 0 0 0 0.25 0"/>
<feBlend mode="normal" in2="effect1_dropShadow_0_307" result="effect2_dropShadow_0_307"/>
<feBlend mode="normal" in="SourceGraphic" in2="effect2_dropShadow_0_307" result="shape"/>
</filter>
<filter id="filter1_dd_0_307" x="50.574" y="6.10352e-05" width="131.159" height="93.5677" filterUnits="userSpaceOnUse" color-interpolation-filters="sRGB">
<feFlood flood-opacity="0" result="BackgroundImageFix"/>
<feColorMatrix in="SourceAlpha" type="matrix" values="0 0 0 0 0 0 0 0 0 0 0 0 0 0 0 0 0 0 127 0" result="hardAlpha"/>
<feOffset dx="4" dy="4"/>
<feGaussianBlur stdDeviation="2"/>
<feComposite in2="hardAlpha" operator="out"/>
<feColorMatrix type="matrix" values="0 0 0 0 0 0 0 0 0 0 0 0 0 0 0 0 0 0 0.25 0"/>
<feBlend mode="normal" in2="BackgroundImageFix" result="effect1_dropShadow_0_307"/>
<feColorMatrix in="SourceAlpha" type="matrix" values="0 0 0 0 0 0 0 0 0 0 0 0 0 0 0 0 0 0 127 0" result="hardAlpha"/>
<feOffset dx="-2" dy="-1"/>
<feGaussianBlur stdDeviation="8"/>
<feComposite in2="hardAlpha" operator="out"/>
<feColorMatrix type="matrix" values="0 0 0 0 1 0 0 0 0 1 0 0 0 0 1 0 0 0 0.25 0"/>
<feBlend mode="normal" in2="effect1_dropShadow_0_307" result="effect2_dropShadow_0_307"/>
<feBlend mode="normal" in="SourceGraphic" in2="effect2_dropShadow_0_307" result="shape"/>
</filter>
<filter id="filter2_dd_0_307" x="6.10352e-05" y="12.8112" width="111.182" height="121.189" filterUnits="userSpaceOnUse" color-interpolation-filters="sRGB">
<feFlood flood-opacity="0" result="BackgroundImageFix"/>
<feColorMatrix in="SourceAlpha" type="matrix" values="0 0 0 0 0 0 0 0 0 0 0 0 0 0 0 0 0 0 127 0" result="hardAlpha"/>
<feOffset dx="4" dy="4"/>
<feGaussianBlur stdDeviation="2"/>
<feComposite in2="hardAlpha" operator="out"/>
<feColorMatrix type="matrix" values="0 0 0 0 0 0 0 0 0 0 0 0 0 0 0 0 0 0 0.25 0"/>
<feBlend mode="normal" in2="BackgroundImageFix" result="effect1_dropShadow_0_307"/>
<feColorMatrix in="SourceAlpha" type="matrix" values="0 0 0 0 0 0 0 0 0 0 0 0 0 0 0 0 0 0 127 0" result="hardAlpha"/>
<feOffset dx="-2" dy="-1"/>
<feGaussianBlur stdDeviation="8"/>
<feComposite in2="hardAlpha" operator="out"/>
<feColorMatrix type="matrix" values="0 0 0 0 1 0 0 0 0 1 0 0 0 0 1 0 0 0 0.25 0"/>
<feBlend mode="normal" in2="effect1_dropShadow_0_307" result="effect2_dropShadow_0_307"/>
<feBlend mode="normal" in="SourceGraphic" in2="effect2_dropShadow_0_307" result="shape"/>
</filter>
<filter id="filter3_dd_0_307" x="139.982" y="12.4436" width="96.0161" height="121.02" filterUnits="userSpaceOnUse" color-interpolation-filters="sRGB">
<feFlood flood-opacity="0" result="BackgroundImageFix"/>
<feColorMatrix in="SourceAlpha" type="matrix" values="0 0 0 0 0 0 0 0 0 0 0 0 0 0 0 0 0 0 127 0" result="hardAlpha"/>
<feOffset dx="-4" dy="4"/>
<feGaussianBlur stdDeviation="2"/>
<feComposite in2="hardAlpha" operator="out"/>
<feColorMatrix type="matrix" values="0 0 0 0 0 0 0 0 0 0 0 0 0 0 0 0 0 0 0.25 0"/>
<feBlend mode="normal" in2="BackgroundImageFix" result="effect1_dropShadow_0_307"/>
<feColorMatrix in="SourceAlpha" type="matrix" values="0 0 0 0 0 0 0 0 0 0 0 0 0 0 0 0 0 0 127 0" result="hardAlpha"/>
<feOffset dx="-2" dy="-1"/>
<feGaussianBlur stdDeviation="8"/>
<feComposite in2="hardAlpha" operator="out"/>
<feColorMatrix type="matrix" values="0 0 0 0 1 0 0 0 0 1 0 0 0 0 1 0 0 0 0.25 0"/>
<feBlend mode="normal" in2="effect1_dropShadow_0_307" result="effect2_dropShadow_0_307"/>
<feBlend mode="normal" in="SourceGraphic" in2="effect2_dropShadow_0_307" result="shape"/>
</filter>
<filter id="filter4_dd_0_307" x="50.574" y="6.10352e-05" width="131.159" height="65.5704" filterUnits="userSpaceOnUse" color-interpolation-filters="sRGB">
<feFlood flood-opacity="0" result="BackgroundImageFix"/>
<feColorMatrix in="SourceAlpha" type="matrix" values="0 0 0 0 0 0 0 0 0 0 0 0 0 0 0 0 0 0 127 0" result="hardAlpha"/>
<feOffset dx="4" dy="4"/>
<feGaussianBlur stdDeviation="2"/>
<feComposite in2="hardAlpha" operator="out"/>
<feColorMatrix type="matrix" values="0 0 0 0 0 0 0 0 0 0 0 0 0 0 0 0 0 0 0.25 0"/>
<feBlend mode="normal" in2="BackgroundImageFix" result="effect1_dropShadow_0_307"/>
<feColorMatrix in="SourceAlpha" type="matrix" values="0 0 0 0 0 0 0 0 0 0 0 0 0 0 0 0 0 0 127 0" result="hardAlpha"/>
<feOffset dx="-2" dy="-1"/>
<feGaussianBlur stdDeviation="8"/>
<feComposite in2="hardAlpha" operator="out"/>
<feColorMatrix type="matrix" values="0 0 0 0 1 0 0 0 0 1 0 0 0 0 1 0 0 0 0.25 0"/>
<feBlend mode="normal" in2="effect1_dropShadow_0_307" result="effect2_dropShadow_0_307"/>
<feBlend mode="normal" in="SourceGraphic" in2="effect2_dropShadow_0_307" result="shape"/>
</filter>
<filter id="filter5_dd_0_307" x="6.10352e-05" y="12.8112" width="95.5884" height="121.189" filterUnits="userSpaceOnUse" color-interpolation-filters="sRGB">
<feFlood flood-opacity="0" result="BackgroundImageFix"/>
<feColorMatrix in="SourceAlpha" type="matrix" values="0 0 0 0 0 0 0 0 0 0 0 0 0 0 0 0 0 0 127 0" result="hardAlpha"/>
<feOffset dx="4" dy="4"/>
<feGaussianBlur stdDeviation="2"/>
<feComposite in2="hardAlpha" operator="out"/>
<feColorMatrix type="matrix" values="0 0 0 0 0 0 0 0 0 0 0 0 0 0 0 0 0 0 0.25 0"/>
<feBlend mode="normal" in2="BackgroundImageFix" result="effect1_dropShadow_0_307"/>
<feColorMatrix in="SourceAlpha" type="matrix" values="0 0 0 0 0 0 0 0 0 0 0 0 0 0 0 0 0 0 127 0" result="hardAlpha"/>
<feOffset dx="-2" dy="-1"/>
<feGaussianBlur stdDeviation="8"/>
<feComposite in2="hardAlpha" operator="out"/>
<feColorMatrix type="matrix" values="0 0 0 0 1 0 0 0 0 1 0 0 0 0 1 0 0 0 0.25 0"/>
<feBlend mode="normal" in2="effect1_dropShadow_0_307" result="effect2_dropShadow_0_307"/>
<feBlend mode="normal" in="SourceGraphic" in2="effect2_dropShadow_0_307" result="shape"/>
</filter>
</defs>
</svg>
