<svg width="19" height="18" viewBox="0 0 19 18" fill="none" xmlns="http://www.w3.org/2000/svg">
<path fill-rule="evenodd" clip-rule="evenodd" d="M4.65634 3.23553V2.06575C4.65634 1.1995 5.29008 0.463613 6.14674 0.335113L7.36666 0.152122C8.71884 -0.0507075 10.0938 -0.0507075 11.446 0.152122L12.6659 0.335113C13.5226 0.463613 14.1563 1.1995 14.1563 2.06575V3.23553L15.8703 3.37388C17.1827 3.47982 18.2533 4.46796 18.4637 5.76768C18.9289 8.64025 18.9289 11.5689 18.4637 14.4415C18.2533 15.7412 17.1827 16.7293 15.8703 16.8353L13.9984 16.9864C10.942 17.2331 7.87064 17.2331 4.81421 16.9864L2.94229 16.8353C1.62991 16.7293 0.559373 15.7412 0.348893 14.4415C-0.116297 11.5689 -0.116297 8.64025 0.348893 5.76768C0.559373 4.46796 1.62991 3.47982 2.9423 3.37388L4.65634 3.23553ZM7.58914 1.63553C8.79384 1.45482 10.0188 1.45482 11.2235 1.63553L12.4434 1.81851C12.5658 1.83687 12.6563 1.942 12.6563 2.06575V3.13035C10.4914 3.00688 8.32124 3.00688 6.15634 3.13035V2.06575C6.15634 1.942 6.24687 1.83687 6.36925 1.81851L7.58914 1.63553ZM4.9349 4.71792C7.91104 4.47769 10.9016 4.47769 13.8777 4.71792L15.7496 4.86902C16.3738 4.9194 16.8829 5.38934 16.983 6.00747C17.0454 6.3924 17.0989 6.77835 17.1435 7.16515C12.2659 9.56695 6.54672 9.56695 1.66912 7.16515C1.71377 6.77835 1.76726 6.3924 1.8296 6.00747C1.9297 5.38934 2.43883 4.9194 3.06298 4.86902L4.9349 4.71792ZM1.53523 8.76125C6.53463 11.035 12.278 11.035 17.2774 8.76125C17.3727 10.5774 17.2746 12.4012 16.983 14.2017C16.8829 14.8198 16.3738 15.2898 15.7496 15.3401L13.8777 15.4912C10.9016 15.7315 7.91104 15.7315 4.9349 15.4912L3.06298 15.3401C2.43883 15.2898 1.9297 14.8198 1.8296 14.2017C1.53803 12.4012 1.4399 10.5774 1.53523 8.76125Z" fill="#F7F5DD"/>
</svg>
