<svg width="19" height="19" viewBox="0 0 19 19" fill="none" xmlns="http://www.w3.org/2000/svg">
<path fill-rule="evenodd" clip-rule="evenodd" d="M7.96925 1.81853C8.65129 0.635679 10.3487 0.635689 11.0308 1.81853L13.1196 5.44094C13.3121 5.77484 13.6449 6.0027 14.0242 6.06035L17.4927 6.58752C19.0047 6.81732 19.535 8.73838 18.3575 9.71996L15.8303 11.827C15.4756 12.1227 15.3088 12.5892 15.395 13.0446L16.1029 16.7856C16.3802 18.2511 14.8514 19.3898 13.5397 18.6947L10.089 16.8663C9.72028 16.6709 9.27974 16.6709 8.91101 16.8663L5.46031 18.6947C4.1486 19.3898 2.61983 18.2511 2.89714 16.7856L3.60505 13.0446C3.69122 12.5892 3.52443 12.1227 3.16971 11.827L0.642479 9.71996C-0.535012 8.73838 -0.00465594 6.81732 1.50728 6.58752L4.97582 6.06035C5.35513 6.0027 5.68791 5.77484 5.88044 5.44094L7.96925 1.81853ZM9.71866 2.5847C9.62127 2.41572 9.37875 2.41572 9.28136 2.5847L7.19255 6.2071C6.76898 6.94168 6.03686 7.44296 5.20237 7.56979L1.73384 8.09701C1.51785 8.12978 1.44208 8.40426 1.6103 8.5445L4.13753 10.6515C4.91791 11.3021 5.28485 12.3284 5.09528 13.3301L4.38736 17.0712C4.34775 17.2805 4.56614 17.4433 4.75353 17.3439L8.20428 15.5155C9.01528 15.0857 9.98474 15.0857 10.7957 15.5155L14.2465 17.3439C14.4339 17.4433 14.6523 17.2805 14.6126 17.0712L13.9048 13.3301C13.7152 12.3284 14.0821 11.3021 14.8625 10.6515L17.3898 8.5445C17.5579 8.40426 17.4822 8.12978 17.2662 8.09701L13.7977 7.56979C12.9631 7.44296 12.231 6.94168 11.8075 6.2071L9.71866 2.5847Z" fill="#F7F5DD"/>
</svg>
