<svg width="15" height="14" viewBox="0 0 15 14" fill="none" xmlns="http://www.w3.org/2000/svg">
<path d="M1.30286 6.41507H13.8836C14.0466 6.41507 14.203 6.47985 14.3184 6.59517C14.4337 6.71049 14.4985 6.86689 14.4985 7.02997C14.4985 7.19306 14.4337 7.34946 14.3184 7.46478C14.203 7.5801 14.0466 7.64488 13.8836 7.64488H1.30286C1.13978 7.64488 0.983376 7.5801 0.868059 7.46478C0.752741 7.34946 0.687957 7.19306 0.687957 7.02997C0.687957 6.86689 0.752741 6.71049 0.868059 6.59517C0.983376 6.47985 1.13978 6.41507 1.30286 6.41507Z" fill="white" stroke="white" stroke-width="0.0282574"/>
<path d="M1.55308 7.02028L1.54309 7.03028L1.55308 7.04027L6.77029 12.2562C6.88576 12.3717 6.95063 12.5283 6.95063 12.6916C6.95063 12.8549 6.88576 13.0115 6.77029 13.127C6.65483 13.2424 6.49822 13.3073 6.33493 13.3073C6.17163 13.3073 6.01503 13.2424 5.89956 13.127L0.23825 7.46564L0.238237 7.46563C0.180973 7.40851 0.135541 7.34065 0.104542 7.26595C0.0735424 7.19124 0.0575857 7.11116 0.0575857 7.03028C0.0575857 6.94939 0.0735424 6.86931 0.104542 6.7946C0.135541 6.7199 0.180973 6.65204 0.238237 6.59492L0.23825 6.59491L5.89956 0.933599C6.01503 0.818133 6.17163 0.753264 6.33493 0.753264C6.49822 0.753264 6.65483 0.818133 6.77029 0.933599C6.88576 1.04906 6.95063 1.20567 6.95063 1.36896C6.95063 1.53226 6.88576 1.68886 6.77029 1.80433L1.55308 7.02028Z" fill="white" stroke="white" stroke-width="0.0282574"/>
</svg>
