<svg width="26" height="26" viewBox="0 0 26 26" fill="none" xmlns="http://www.w3.org/2000/svg">
<path d="M13 0C5.832 0 0 5.832 0 13C0 20.168 5.832 26 13 26C20.168 26 26 20.168 26 13C26 5.832 20.168 0 13 0ZM13 2C19.086 2 24 6.914 24 13C24 19.086 19.086 24 13 24C6.914 24 2 19.086 2 13C2 6.914 6.914 2 13 2ZM13 5C10.25 5 8 7.25 8 10C8 11.516 8.707 12.863 9.781 13.781C8.6415 14.3717 7.68621 15.2642 7.01943 16.3609C6.35264 17.4576 6 18.7165 6 20H8C8 17.227 10.227 15 13 15C15.773 15 18 17.227 18 20H20C20 17.3 18.469 14.95 16.219 13.781C17.293 12.863 18 11.516 18 10C18 7.25 15.75 5 13 5ZM13 7C14.668 7 16 8.332 16 10C16 11.668 14.668 13 13 13C11.332 13 10 11.668 10 10C10 8.332 11.332 7 13 7Z" fill="white" fill-opacity="0.5"/>
</svg>
