<svg width="26" height="26" viewBox="0 0 26 26" fill="none" xmlns="http://www.w3.org/2000/svg">
<path d="M13.9743 11.375C13.3243 11.2125 12.6744 10.8875 12.1869 10.4C11.6994 10.2375 11.5369 9.75 11.5369 9.425C11.5369 9.1 11.6994 8.6125 12.0244 8.45C12.5119 8.125 12.9994 7.8 13.4868 7.9625C14.4618 7.9625 15.2742 8.45 15.7617 9.1L17.2241 7.15C16.7367 6.6625 16.2492 6.3375 15.7617 6.0125C15.2742 5.6875 14.6243 5.525 13.9743 5.525V3.25H12.0244V5.525C11.2119 5.6875 10.3995 6.175 9.74951 6.825C9.09955 7.6375 8.61207 8.6125 8.77456 9.5875C8.77456 10.5625 9.09955 11.5375 9.74951 12.1875C10.562 13 11.6994 13.4875 12.6744 13.975C13.1618 14.1375 13.8118 14.4625 14.2993 14.7875C14.6243 15.1125 14.7868 15.6 14.7868 16.0875C14.7868 16.575 14.6243 17.0625 14.2993 17.55C13.8118 18.0375 13.1618 18.2 12.6744 18.2C12.0244 18.2 11.2119 18.0375 10.7245 17.55C10.237 17.225 9.74951 16.7375 9.42453 16.25L7.79961 18.0375C8.28709 18.6875 8.77456 19.175 9.42453 19.6625C10.237 20.15 11.2119 20.6375 12.1869 20.6375V22.75H13.9743V20.3125C14.9493 20.15 15.7617 19.6625 16.4117 19.0125C17.2241 18.2 17.7116 16.9 17.7116 15.7625C17.7116 14.7875 17.3866 13.65 16.5742 13C15.7617 12.1875 14.9493 11.7 13.9743 11.375ZM12.9994 0C5.84971 0 0 5.85 0 13C0 20.15 5.84971 26 12.9994 26C20.149 26 25.9987 20.15 25.9987 13C25.9987 5.85 20.149 0 12.9994 0ZM12.9994 24.2125C6.82466 24.2125 1.78741 19.175 1.78741 13C1.78741 6.825 6.82466 1.7875 12.9994 1.7875C19.174 1.7875 24.2113 6.825 24.2113 13C24.2113 19.175 19.174 24.2125 12.9994 24.2125Z" fill="white" fill-opacity="0.5"/>
</svg>
