<svg width="35" height="28" viewBox="0 0 35 28" fill="none" xmlns="http://www.w3.org/2000/svg">
<g filter="url(#filter0_f_1_504)">
<path d="M30 21.2563C30 21.9438 29.4425 22.5 28.7562 22.5H18.7437C18.4139 22.5 18.0975 22.369 17.8643 22.1357C17.631 21.9025 17.5 21.5861 17.5 21.2563C17.5 20.9264 17.631 20.61 17.8643 20.3768C18.0975 20.1435 18.4139 20.0125 18.7437 20.0125H28.7562C29.4437 20.0125 30 20.5688 30 21.2563Z" fill="url(#paint0_linear_1_504)"/>
<path d="M30 13.75C30 14.4375 29.4425 14.9937 28.7562 14.9937H6.24375C5.91389 14.9937 5.59753 14.8627 5.36429 14.6294C5.13104 14.3962 5 14.0798 5 13.75C5 13.4201 5.13104 13.1038 5.36429 12.8705C5.59753 12.6373 5.91389 12.5062 6.24375 12.5062H28.7562C29.4437 12.5062 30 13.0637 30 13.75Z" fill="url(#paint1_linear_1_504)"/>
<path d="M28.7562 7.4875C29.0861 7.4875 29.4025 7.35646 29.6357 7.12321C29.869 6.88997 30 6.57361 30 6.24375C30 5.91389 29.869 5.59753 29.6357 5.36429C29.4025 5.13104 29.0861 5 28.7562 5H13.7437C13.5804 5 13.4187 5.03217 13.2678 5.09467C13.1169 5.15718 12.9798 5.24879 12.8643 5.36429C12.7488 5.47978 12.6572 5.61689 12.5947 5.76779C12.5322 5.91869 12.5 6.08042 12.5 6.24375C12.5 6.40708 12.5322 6.56881 12.5947 6.71971C12.6572 6.87061 12.7488 7.00772 12.8643 7.12321C12.9798 7.23871 13.1169 7.33032 13.2678 7.39282C13.4187 7.45533 13.5804 7.4875 13.7437 7.4875H28.7562Z" fill="url(#paint2_linear_1_504)"/>
</g>
<path d="M31 21.2563C31 21.9438 30.4425 22.5 29.7562 22.5H19.7437C19.4139 22.5 19.0975 22.369 18.8643 22.1357C18.631 21.9025 18.5 21.5861 18.5 21.2563C18.5 20.9264 18.631 20.61 18.8643 20.3768C19.0975 20.1435 19.4139 20.0125 19.7437 20.0125H29.7562C30.4437 20.0125 31 20.5688 31 21.2563Z" fill="url(#paint3_linear_1_504)"/>
<path d="M31 13.75C31 14.4375 30.4425 14.9937 29.7562 14.9937H7.24375C6.91389 14.9937 6.59753 14.8627 6.36429 14.6294C6.13104 14.3962 6 14.0798 6 13.75C6 13.4201 6.13104 13.1038 6.36429 12.8705C6.59753 12.6373 6.91389 12.5062 7.24375 12.5062H29.7562C30.4437 12.5062 31 13.0637 31 13.75Z" fill="url(#paint4_linear_1_504)"/>
<path d="M29.7562 7.4875C30.0861 7.4875 30.4025 7.35646 30.6357 7.12321C30.869 6.88997 31 6.57361 31 6.24375C31 5.91389 30.869 5.59753 30.6357 5.36429C30.4025 5.13104 30.0861 5 29.7562 5H14.7437C14.5804 5 14.4187 5.03217 14.2678 5.09467C14.1169 5.15718 13.9798 5.24879 13.8643 5.36429C13.7488 5.47978 13.6572 5.61689 13.5947 5.76779C13.5322 5.91869 13.5 6.08042 13.5 6.24375C13.5 6.40708 13.5322 6.56881 13.5947 6.71971C13.6572 6.87061 13.7488 7.00772 13.8643 7.12321C13.9798 7.23871 14.1169 7.33032 14.2678 7.39282C14.4187 7.45533 14.5804 7.4875 14.7437 7.4875H29.7562Z" fill="url(#paint5_linear_1_504)"/>
<defs>
<filter id="filter0_f_1_504" x="0" y="0" width="35" height="27.5" filterUnits="userSpaceOnUse" color-interpolation-filters="sRGB">
<feFlood flood-opacity="0" result="BackgroundImageFix"/>
<feBlend mode="normal" in="SourceGraphic" in2="BackgroundImageFix" result="shape"/>
<feGaussianBlur stdDeviation="2.5" result="effect1_foregroundBlur_1_504"/>
</filter>
<linearGradient id="paint0_linear_1_504" x1="17.7273" y1="19.8649" x2="29.2721" y2="24.3668" gradientUnits="userSpaceOnUse">
<stop stop-color="#FE3C72"/>
<stop offset="1" stop-color="#E15561"/>
</linearGradient>
<linearGradient id="paint1_linear_1_504" x1="5.45455" y1="12.3587" x2="21.9948" y2="25.2582" gradientUnits="userSpaceOnUse">
<stop stop-color="#FE3C72"/>
<stop offset="1" stop-color="#E15561"/>
</linearGradient>
<linearGradient id="paint2_linear_1_504" x1="12.8182" y1="4.85244" x2="27.1633" y2="12.6837" gradientUnits="userSpaceOnUse">
<stop stop-color="#FE3C72"/>
<stop offset="1" stop-color="#E15561"/>
</linearGradient>
<linearGradient id="paint3_linear_1_504" x1="18.7273" y1="19.8649" x2="30.2721" y2="24.3668" gradientUnits="userSpaceOnUse">
<stop stop-color="#FE3C72"/>
<stop offset="1" stop-color="#E15561"/>
</linearGradient>
<linearGradient id="paint4_linear_1_504" x1="6.45455" y1="12.3587" x2="22.9948" y2="25.2582" gradientUnits="userSpaceOnUse">
<stop stop-color="#FE3C72"/>
<stop offset="1" stop-color="#E15561"/>
</linearGradient>
<linearGradient id="paint5_linear_1_504" x1="13.8182" y1="4.85244" x2="28.1633" y2="12.6837" gradientUnits="userSpaceOnUse">
<stop stop-color="#FE3C72"/>
<stop offset="1" stop-color="#E15561"/>
</linearGradient>
</defs>
</svg>
