<svg width="20" height="20" viewBox="0 0 20 20" fill="none" xmlns="http://www.w3.org/2000/svg">
<path d="M10 20C15.5228 20 20 15.5228 20 10C20 4.47715 15.5228 0 10 0C4.47715 0 0 4.47715 0 10C0 15.5228 4.47715 20 10 20Z" fill="url(#paint0_linear_84_205)"/>
<path style="mix-blend-mode:screen" d="M10 19.9535C15.4972 19.9535 19.9535 15.4972 19.9535 10C19.9535 4.50284 15.4972 0.0465088 10 0.0465088C4.50284 0.0465088 0.0465088 4.50284 0.0465088 10C0.0465088 15.4972 4.50284 19.9535 10 19.9535Z" fill="url(#paint1_radial_84_205)"/>
<path opacity="0.3" d="M10 19.6992C4.52713 19.6992 0.0826873 15.3034 0.00206718 9.85013C0.00206718 9.89974 0 9.95039 0 10C0 15.5225 4.47752 20 10 20C15.5225 20 20 15.5225 20 10C20 9.94935 19.999 9.89974 19.9979 9.85013C19.9173 15.3034 15.4729 19.7003 10 19.7003V19.6992Z" fill="#FFEA83"/>
<path d="M10 0.376227C15.4605 0.376227 19.8977 4.75245 19.9979 10.1881C19.999 10.1251 20 10.063 20 10C20 4.47752 15.5225 0 10 0C4.47752 0 0 4.47752 0 10C0 10.063 0.00103359 10.1251 0.00206718 10.1881C0.102326 4.75245 4.53953 0.376227 10 0.376227Z" fill="#FFEA83"/>
<path style="mix-blend-mode:screen" opacity="0.5" d="M10 0.0372009C4.59121 0.0372009 0.189144 4.35038 0.0465088 9.72506C1.14728 10.3773 2.87855 9.85529 4.01033 9.28888C4.98398 8.83927 6.18191 8.98914 7.22997 9.06459C9.85013 9.28888 12.3959 10.4124 15.016 9.73849C15.54 9.58862 16.2884 8.91472 16.8124 9.36433C17.7354 10.1333 18.9757 10.2005 19.9535 9.73229C19.814 4.35451 15.4109 0.0372009 10 0.0372009Z" fill="url(#paint2_linear_84_205)"/>
<path d="M10 17.7447C14.2773 17.7447 17.7447 14.2773 17.7447 10C17.7447 5.72273 14.2773 2.25531 10 2.25531C5.72273 2.25531 2.25531 5.72273 2.25531 10C2.25531 14.2773 5.72273 17.7447 10 17.7447Z" fill="url(#paint3_linear_84_205)"/>
<path d="M10 17.3685C14.0695 17.3685 17.3685 14.0695 17.3685 10C17.3685 5.93051 14.0695 2.63153 10 2.63153C5.93051 2.63153 2.63153 5.93051 2.63153 10C2.63153 14.0695 5.93051 17.3685 10 17.3685Z" fill="#D68738"/>
<path d="M10 17.0677C13.9034 17.0677 17.0677 13.9034 17.0677 10C17.0677 6.09663 13.9034 2.93231 10 2.93231C6.09663 2.93231 2.93231 6.09663 2.93231 10C2.93231 13.9034 6.09663 17.0677 10 17.0677Z" fill="url(#paint4_radial_84_205)"/>
<path opacity="0.2" d="M10 16.5416C6.15918 16.5416 3.03464 13.6289 2.93438 9.81189C2.93231 9.87391 2.93231 9.93695 2.93231 10C2.93231 13.9039 6.09614 17.0677 10 17.0677C13.9039 17.0677 17.0677 13.9039 17.0677 10C17.0677 9.93695 17.0677 9.87494 17.0656 9.81189C16.9664 13.6279 13.8408 16.5416 10 16.5416Z" fill="#FFEA83"/>
<path opacity="0.1" d="M14.4196 9.02634C14.3452 8.79792 14.1519 8.63461 13.9142 8.6005L11.5979 8.26355L10.5623 6.16433C10.4558 5.94934 10.2408 5.81497 10.001 5.81497C9.76123 5.81497 9.54624 5.94831 9.43978 6.16433L8.40413 8.26355L6.08785 8.6005C5.85012 8.63461 5.65684 8.79792 5.58242 9.02634C5.508 9.25477 5.56898 9.50076 5.74056 9.6682L7.41705 11.3023L7.02118 13.6093C6.98087 13.846 7.07596 14.0806 7.27028 14.2212C7.46046 14.3597 7.72092 14.3783 7.92971 14.2687L10.0021 13.1793L12.0744 14.2687C12.1674 14.3173 12.2667 14.3411 12.3669 14.3411C12.4961 14.3411 12.6243 14.3008 12.7338 14.2212C12.9282 14.0806 13.0232 13.8449 12.9829 13.6093L12.5871 11.3023L14.2636 9.6682C14.4351 9.50076 14.4961 9.25477 14.4217 9.02634H14.4196Z" fill="#FFEA83"/>
<path d="M14.2759 8.99742C14.2191 8.82378 14.0723 8.69974 13.8914 8.6739L11.4966 8.32558L10.4258 6.15607C10.3452 5.99277 10.1819 5.89044 9.99894 5.89044C9.81599 5.89044 9.65268 5.99173 9.57206 6.15607L8.50126 8.32558L6.10643 8.6739C5.92555 8.69974 5.77878 8.82378 5.72193 8.99742C5.66509 9.17106 5.7116 9.35814 5.84183 9.48527L7.42426 11.0987L7.01496 13.4842C6.98395 13.6641 7.05527 13.8708 7.20307 13.9783C7.28679 14.0393 7.54106 14.1788 7.85527 14.061L9.99687 12.9344L12.1385 14.06C12.2997 14.1447 12.5684 14.1468 12.7162 14.0393C12.8641 13.9318 13.0108 13.6631 12.9798 13.4832L12.5705 11.0977L14.1529 9.48424C14.2832 9.35711 14.3297 9.17003 14.2728 8.99639L14.2759 8.99742Z" fill="url(#paint5_linear_84_205)"/>
<path opacity="0.1" d="M14.2759 8.54676C14.2191 8.37312 14.0723 8.24909 13.8914 8.22325L11.4966 7.87493L10.4258 5.70438C10.3452 5.54108 10.1819 5.43875 9.99894 5.43875C9.81599 5.43875 9.65268 5.54004 9.57206 5.70438L8.50126 7.87493L6.10643 8.22325C5.92555 8.24909 5.77878 8.37312 5.72193 8.54676C5.66509 8.72041 5.7116 8.90749 5.84183 9.03462L7.57516 10.7235L7.16586 13.109C7.13485 13.2889 7.20721 13.4667 7.35501 13.5742C7.43873 13.6351 7.53589 13.6651 7.63408 13.6651C7.70953 13.6651 7.78602 13.6465 7.8563 13.6103L9.9979 12.4837L12.1395 13.6093C12.3007 13.694 12.493 13.6806 12.6408 13.5731C12.7886 13.4656 12.861 13.2878 12.8299 13.108L12.4206 10.7225L14.154 9.03358C14.2842 8.90645 14.3307 8.71937 14.2739 8.54573L14.2759 8.54676Z" fill="#D37F24"/>
<path d="M10.3256 5.9049L11.4233 8.12816L13.877 8.48475C14.1747 8.52816 14.2936 8.89405 14.0786 9.10387L12.3029 10.8341L12.7215 13.2775C12.7721 13.5742 12.461 13.8005 12.1954 13.6599L10.0011 12.5065L7.80674 13.6599C7.54007 13.7995 7.22896 13.5742 7.28064 13.2775L7.69925 10.8341L5.92354 9.10387C5.70855 8.89405 5.82741 8.52816 6.12509 8.48475L8.57883 8.12816L9.67651 5.9049C9.80984 5.63513 10.1943 5.63513 10.3277 5.9049H10.3256Z" fill="url(#paint6_linear_84_205)"/>
<path opacity="0.3" d="M7.66508 11.0274L7.27955 13.2775C7.26921 13.3364 7.27438 13.3933 7.28988 13.4439L7.69919 11.0594L7.66611 11.0274H7.66508Z" fill="#FFEA83"/>
<path d="M6.12401 8.71007L8.72762 8.35348L9.8253 6.13022C9.95863 5.86045 10.0424 5.86045 10.1757 6.13022L11.2734 8.35348L13.877 8.71007C14.0258 8.73177 14.1292 8.8341 14.1695 8.95606C14.2356 8.75451 14.1126 8.51782 13.877 8.48371L11.4232 8.12712L10.3256 5.90386C10.1922 5.6341 9.80773 5.6341 9.67439 5.90386L8.57672 8.12712L6.12297 8.48371C5.88731 8.51782 5.76432 8.75451 5.83047 8.95606C5.87078 8.83306 5.97414 8.73074 6.12297 8.71007H6.12401Z" fill="#FFEA83"/>
<path opacity="0.3" d="M12.3348 11.0274L12.3018 11.0594L12.7111 13.4439C12.7266 13.3922 12.7317 13.3364 12.7214 13.2775L12.3359 11.0274H12.3348Z" fill="#FFEA83"/>
<path style="mix-blend-mode:screen" opacity="0.8" d="M10.3256 5.9049L11.4233 8.12816L13.877 8.48475C14.1747 8.52816 14.2936 8.89405 14.0786 9.10387L12.3029 10.8341L12.7215 13.2775C12.7721 13.5742 12.461 13.8005 12.1954 13.6599L10.0011 12.5065L7.80674 13.6599C7.54007 13.7995 7.22896 13.5742 7.28064 13.2775L7.69925 10.8341L5.92354 9.10387C5.70855 8.89405 5.82741 8.52816 6.12509 8.48475L8.57883 8.12816L9.67651 5.9049C9.80984 5.63513 10.1943 5.63513 10.3277 5.9049H10.3256Z" fill="url(#paint7_radial_84_205)"/>
<path style="mix-blend-mode:screen" opacity="0.6" d="M13.8759 8.48475L11.4222 8.12816L10.3245 5.9049C10.1912 5.63513 9.80669 5.63513 9.67336 5.9049L8.57569 8.12816L6.12194 8.48475C5.99584 8.50335 5.90179 8.57984 5.85217 8.67699C6.16328 9.06562 6.28215 9.13384 6.78964 9.49146C8.34313 10.369 12.2284 10.2181 13.3064 9.34159C13.7075 9.01498 13.8511 8.97157 14.094 8.60361C14.0403 8.54263 13.9659 8.49818 13.8739 8.48475H13.8759Z" fill="url(#paint8_linear_84_205)"/>
<defs>
<linearGradient id="paint0_linear_84_205" x1="10" y1="0" x2="10" y2="20" gradientUnits="userSpaceOnUse">
<stop stop-color="#F8BE4F"/>
<stop offset="0.11" stop-color="#FBC450"/>
<stop offset="0.3" stop-color="#FFCB52"/>
<stop offset="1" stop-color="#D17D3D"/>
</linearGradient>
<radialGradient id="paint1_radial_84_205" cx="0" cy="0" r="1" gradientUnits="userSpaceOnUse" gradientTransform="translate(9.89974 -1.37571) scale(7.96383)">
<stop stop-color="#FFDF7D"/>
<stop offset="1"/>
</radialGradient>
<linearGradient id="paint2_linear_84_205" x1="10" y1="19.8232" x2="10" y2="5.31162" gradientUnits="userSpaceOnUse">
<stop stop-color="#FFCA85"/>
<stop offset="1"/>
</linearGradient>
<linearGradient id="paint3_linear_84_205" x1="10" y1="17.7447" x2="10" y2="-1.28474" gradientUnits="userSpaceOnUse">
<stop stop-color="#FBC450"/>
<stop offset="1" stop-color="#E09744"/>
</linearGradient>
<radialGradient id="paint4_radial_84_205" cx="0" cy="0" r="1" gradientUnits="userSpaceOnUse" gradientTransform="translate(9.938 6.03102) scale(13.7674)">
<stop offset="0.3" stop-color="#FFCB52"/>
<stop offset="1" stop-color="#D17D3D"/>
</radialGradient>
<linearGradient id="paint5_linear_84_205" x1="9.99997" y1="8" x2="9.99997" y2="14.1426" gradientUnits="userSpaceOnUse">
<stop stop-color="#F2A746"/>
<stop offset="0.31" stop-color="#E89A43"/>
<stop offset="1" stop-color="#D17D3D"/>
</linearGradient>
<linearGradient id="paint6_linear_84_205" x1="10" y1="5.70232" x2="10" y2="19.6723" gradientUnits="userSpaceOnUse">
<stop stop-color="#FFD863"/>
<stop offset="0.71" stop-color="#ECAB49"/>
<stop offset="1" stop-color="#FCC550"/>
</linearGradient>
<radialGradient id="paint7_radial_84_205" cx="0" cy="0" r="1" gradientUnits="userSpaceOnUse" gradientTransform="translate(9.92457 4.05064) scale(7.0677)">
<stop stop-color="#FFE06E"/>
<stop offset="1"/>
</radialGradient>
<linearGradient id="paint8_linear_84_205" x1="9.97517" y1="13.6176" x2="9.97517" y2="8.64909" gradientUnits="userSpaceOnUse">
<stop stop-color="#FFDD8F"/>
<stop offset="1"/>
</linearGradient>
</defs>
</svg>
