<svg width="11" height="12" viewBox="0 0 11 12" fill="none" xmlns="http://www.w3.org/2000/svg">
<path d="M0.602381 7.78655C1.04841 7.78655 5.01549 7.78655 5.01549 7.78655V10.2619C5.01549 10.2619 4.34589 9.6062 3.97641 9.22683C3.60692 8.84746 3.06591 9.4477 3.41072 9.79251C3.75554 10.1373 5.41669 11.7985 5.41669 11.7985C5.41669 11.7985 7.08304 10.1321 7.42265 9.79251C7.76225 9.4529 7.20644 8.87735 6.85696 9.22683C6.50749 9.57631 5.81788 10.2619 5.81788 10.2619V7.78655C5.81788 7.78655 9.7947 7.78655 10.231 7.78655C10.6673 7.78655 10.7068 6.98417 10.231 6.98417C9.75522 6.98417 1.06854 6.98417 0.602381 6.98417C0.136227 6.98417 0.156356 7.78655 0.602381 7.78655ZM3.41072 2.57105C3.08464 2.89714 3.67007 3.44307 3.97641 3.13673C4.28274 2.8304 5.01549 2.10166 5.01549 2.10166V4.57701C5.01549 4.57701 1.10799 4.57701 0.602381 4.57701C0.096773 4.57701 0.096773 5.3794 0.602381 5.3794C1.10799 5.3794 9.7947 5.3794 10.231 5.3794C10.6673 5.3794 10.6475 4.57701 10.231 4.57701C9.81445 4.57701 5.81788 4.57701 5.81788 4.57701V2.10166C5.81788 2.10166 6.54596 2.82573 6.85696 3.13673C7.16797 3.44774 7.77314 2.92155 7.42265 2.57105C7.07215 2.22056 5.41669 0.565094 5.41669 0.565094C5.41669 0.565094 3.73681 2.24497 3.41072 2.57105Z" fill="#BBBABC"/>
</svg>
