<svg width="20" height="19" viewBox="0 0 20 19" fill="none" xmlns="http://www.w3.org/2000/svg">
<path d="M18.9091 6.80029C17.0909 5.10029 14.0909 3.00029 10 3.00029C9.54548 3.00029 9.09093 3.00029 8.81821 3.10029C8.27275 3.20029 7.9091 3.70029 8.00001 4.30029C8.09091 4.80029 8.54548 5.20029 9.00002 5.20029C9.27275 5.20029 9.63639 5.10029 10 5.10029C13.5455 5.10029 16.1818 6.90029 17.7273 8.40029C18 8.60029 18.1818 9.00029 18.1818 9.50029C18.1818 10.0003 18 10.3003 17.7273 10.6003C17.1818 11.1003 16.5455 11.6003 15.9091 12.0003C15.4546 12.3003 15.3637 12.9003 15.5455 13.4003C15.7273 13.7003 16 13.9003 16.3637 13.9003C16.5455 13.9003 16.6364 13.9003 16.8182 13.8003C17.5455 13.3003 18.2727 12.8003 18.9091 12.2003C19.6364 11.5003 20 10.6003 20 9.60029C20 8.40029 19.6364 7.50029 18.9091 6.80029Z" fill="#F7F5DD"/>
<path d="M2.90909 0.3C2.54545 -0.1 2 -0.1 1.63636 0.3C1.27273 0.7 1.27273 1.3 1.63636 1.7L4.18182 4.5C2.90909 5.3 1.81818 6.2 1.09091 6.8C0.363636 7.5 0 8.4 0 9.5C0 10.6 0.363636 11.5 1.09091 12.1C2.90909 13.8 5.90909 15.9 10 15.9C11.3636 15.9 12.6364 15.7 13.9091 15.2L17.0909 18.7C17.2727 18.9 17.5455 19 17.7273 19C17.9091 19 18.1818 18.9 18.3636 18.7C18.7273 18.3 18.7273 17.7 18.3636 17.3L2.90909 0.3ZM10 13.8C6.45454 13.8 3.81818 12 2.27273 10.5C2 10.3 1.81818 9.9 1.81818 9.5C1.81818 9.1 2 8.7 2.27273 8.4C3 7.7 4.18182 6.8 5.63636 6.1L8 8.7C7.90909 8.9 7.90909 9.2 7.90909 9.5C7.90909 10.8 8.81818 11.8 10 11.8C10.2727 11.8 10.4545 11.7 10.7273 11.7L12.4545 13.6C11.6364 13.7 10.8182 13.8 10 13.8Z" fill="#F7F5DD"/>
</svg>
