<svg width="9" height="11" viewBox="0 0 9 11" fill="none" xmlns="http://www.w3.org/2000/svg">
    <path fill-rule="evenodd" clip-rule="evenodd" d="M1.60913 1.61437C1.93319 1.28788 2.31863 1.02869 2.74326 0.851745C3.16788 0.674796 3.62331 0.583575 4.08333 0.583333C5.01083 0.583333 5.901 0.95375 6.55754 1.61437C7.21507 2.27679 7.58384 3.17244 7.58334 4.10579C7.58334 5.71754 6.68967 7.17646 5.75867 8.25358C5.36634 8.7053 4.94099 9.12724 4.48613 9.51592C4.32104 9.65708 4.18279 9.76762 4.08333 9.84433C3.98417 9.76762 3.84563 9.65708 3.68054 9.51592C3.22568 9.12724 2.80033 8.7053 2.408 8.25358C1.477 7.17646 0.583334 5.71754 0.583334 4.10579C0.583334 3.171 0.952584 2.275 1.60913 1.61437ZM3.91533 10.4466L4.08333 10.2083L4.25133 10.4466C4.20213 10.4812 4.14347 10.4997 4.08333 10.4997C4.0232 10.4997 3.96454 10.4812 3.91533 10.4466ZM3.91533 10.4466L4.08333 10.2083L4.25133 10.4466L4.2525 10.446L4.25542 10.444L4.26417 10.4373L4.29858 10.4125C4.32775 10.3909 4.37033 10.3594 4.424 10.318C4.53133 10.2357 4.68358 10.1147 4.86529 9.95925C5.34229 9.55154 5.78831 9.10893 6.19967 8.63508C7.1645 7.51917 8.16667 5.92637 8.16667 4.1055C8.16667 3.01758 7.73675 1.97342 6.97142 1.20342C6.59314 0.822322 6.14322 0.519804 5.64756 0.313272C5.15191 0.10674 4.6203 0.000273681 4.08333 0C3.54639 0.000235475 3.01479 0.106656 2.51914 0.313137C2.02348 0.519619 1.57356 0.822083 1.19525 1.20312C0.429166 1.97489 -0.000514214 3.01836 4.6183e-07 4.10579C4.6183e-07 5.92637 1.00217 7.51917 1.967 8.63508C2.37836 9.10893 2.82438 9.55154 3.30138 9.95925C3.48338 10.1147 3.63533 10.2357 3.74267 10.318C3.79531 10.3586 3.8485 10.3984 3.90221 10.4376L3.91154 10.444L3.91417 10.446L3.91533 10.4466ZM2.91667 4.08333C2.91667 3.77391 3.03958 3.47717 3.25838 3.25838C3.47717 3.03958 3.77392 2.91667 4.08333 2.91667C4.39275 2.91667 4.6895 3.03958 4.90829 3.25838C5.12708 3.47717 5.25 3.77391 5.25 4.08333C5.25 4.39275 5.12708 4.6895 4.90829 4.90829C4.6895 5.12708 4.39275 5.25 4.08333 5.25C3.77392 5.25 3.47717 5.12708 3.25838 4.90829C3.03958 4.6895 2.91667 4.39275 2.91667 4.08333ZM4.08333 2.33333C3.61921 2.33333 3.17409 2.51771 2.8459 2.8459C2.51771 3.17409 2.33333 3.6192 2.33333 4.08333C2.33333 4.54746 2.51771 4.99258 2.8459 5.32077C3.17409 5.64896 3.61921 5.83333 4.08333 5.83333C4.54746 5.83333 4.99258 5.64896 5.32077 5.32077C5.64896 4.99258 5.83333 4.54746 5.83333 4.08333C5.83333 3.6192 5.64896 3.17409 5.32077 2.8459C4.99258 2.51771 4.54746 2.33333 4.08333 2.33333Z" fill="black" />
</svg>
