<svg width="18" height="17" viewBox="0 0 18 17" fill="none" xmlns="http://www.w3.org/2000/svg">
<path d="M11.4372 12.5679C11.5343 12.4223 13.8639 12.5679 13.8639 12.5679C13.8639 12.5679 13.7173 10.239 13.8639 10.1412C14.0106 10.0434 15.3801 10.0735 15.4817 10.1412C15.5834 10.2089 15.4817 12.5679 15.4817 12.5679C15.4817 12.5679 17.8222 12.4385 17.9085 12.5679C17.9948 12.6973 17.9922 14.0601 17.9085 14.1857C17.8247 14.3113 15.4817 14.1857 15.4817 14.1857C15.4817 14.1857 15.5875 16.5419 15.4817 16.6124C15.376 16.6829 13.965 16.6798 13.8639 16.6124C13.7629 16.5451 13.8639 14.1857 13.8639 14.1857C13.8639 14.1857 11.5288 14.3231 11.4372 14.1857C11.2754 13.943 11.3401 12.7135 11.4372 12.5679ZM6.58379 4.0744C7.71625 4.0744 8.60605 4.9642 8.60605 6.09666C8.60605 7.22913 7.71625 8.11893 6.58379 8.11893C5.45132 8.11893 4.56152 7.22913 4.56152 6.09666C4.56152 4.9642 5.45132 4.0744 6.58379 4.0744ZM6.58379 0.434326C9.73852 0.434326 12.2461 2.94193 12.2461 6.09666C12.2461 10.303 7.9746 16.6124 6.58379 16.6124C5.19297 16.6124 0.921448 10.303 0.921448 6.09666C0.921448 2.94193 3.42905 0.434326 6.58379 0.434326ZM6.58379 2.05214C4.31885 2.05214 2.30346 3.84404 2.53926 6.09666C2.71598 7.78495 5.75511 13.943 6.58379 13.943C7.41246 13.943 10.499 7.69027 10.6283 6.09666C10.8115 3.83915 8.84872 2.05214 6.58379 2.05214Z" fill="#FE3C72"/>
</svg>
