<svg width="10" height="9" viewBox="0 0 10 9" fill="black" xmlns="http://www.w3.org/2000/svg">
<path d="M7.65711 8.99997C7.52374 8.99985 7.39345 8.96216 7.28291 8.89174L5.03169 7.46758C5.0206 7.46036 5.00744 7.45649 4.99396 7.45649C4.98049 7.45649 4.96733 7.46036 4.95624 7.46758L2.70502 8.89174C2.59197 8.96298 2.45864 9.00008 2.32272 8.99811C2.18681 8.99614 2.05474 8.9552 1.94407 8.88072C1.83339 8.80623 1.74933 8.70173 1.70307 8.58109C1.6568 8.46046 1.65051 8.32939 1.68502 8.20529L2.42437 5.74436C2.42786 5.73199 2.42744 5.71892 2.42315 5.70677C2.41886 5.69462 2.41089 5.68392 2.40023 5.676L0.269709 4.09519C0.157551 4.01633 0.0743553 3.90631 0.0317863 3.78057C-0.0107827 3.65483 -0.0105901 3.51966 0.0323371 3.39403C0.0752643 3.26839 0.158774 3.15859 0.271155 3.08001C0.383537 3.00144 0.519156 2.95803 0.658996 2.95587L3.37495 2.85903C3.38831 2.85816 3.40111 2.85366 3.41182 2.84608C3.42253 2.8385 3.43068 2.82816 3.43531 2.8163L4.3708 0.415183C4.41796 0.293458 4.5036 0.18835 4.61614 0.114088C4.72868 0.0398268 4.86268 0 5 0C5.13732 0 5.27132 0.0398268 5.38386 0.114088C5.4964 0.18835 5.58204 0.293458 5.6292 0.415183L6.56469 2.8163C6.56932 2.82816 6.57747 2.8385 6.58818 2.84608C6.59889 2.85366 6.61169 2.85816 6.62505 2.85903L9.341 2.95587C9.48084 2.95803 9.61646 3.00144 9.72884 3.08001C9.84123 3.15859 9.92474 3.26839 9.96766 3.39403C10.0106 3.51966 10.0108 3.65483 9.96821 3.78057C9.92564 3.90631 9.84245 4.01633 9.73029 4.09519L7.59977 5.676C7.58879 5.68367 7.58057 5.69434 7.57625 5.70658C7.57193 5.71881 7.57171 5.73201 7.57563 5.74436L8.31498 8.20529C8.34093 8.29969 8.3435 8.39845 8.3225 8.49394C8.3015 8.58942 8.25748 8.67906 8.19387 8.7559C8.13026 8.83275 8.04875 8.89473 7.95567 8.93706C7.86258 8.97938 7.76043 9.00091 7.65711 8.99997ZM4.99547 6.88653C5.12911 6.89039 5.25843 6.93207 5.36665 7.00616L7.61788 8.43031C7.62929 8.43849 7.6432 8.44298 7.65753 8.44308C7.67186 8.44319 7.68584 8.43892 7.69738 8.43091C7.70893 8.42289 7.71742 8.41157 7.72158 8.39863C7.72574 8.38569 7.72536 8.37182 7.72048 8.3591L6.98114 5.89817C6.94476 5.77745 6.94744 5.64922 6.98885 5.52994C7.03025 5.41067 7.10849 5.30581 7.2135 5.22882L9.34402 3.64801C9.35564 3.6403 9.36434 3.62928 9.36884 3.61657C9.37333 3.60385 9.37339 3.59011 9.369 3.57736C9.36461 3.56461 9.35601 3.55353 9.34445 3.54574C9.33289 3.53795 9.31899 3.53386 9.30479 3.53408L6.58883 3.43723C6.45585 3.43234 6.32742 3.39017 6.21993 3.31611C6.11243 3.24205 6.03075 3.13944 5.98529 3.02138L5.04979 0.620261C5.04557 0.607512 5.03715 0.596369 5.02575 0.588456C5.01435 0.580544 5.00057 0.576276 4.98642 0.576276C4.97227 0.576276 4.95849 0.580544 4.94709 0.588456C4.93569 0.596369 4.92727 0.607512 4.92305 0.620261L3.9966 3.01853C3.95114 3.13659 3.86946 3.2392 3.76197 3.31326C3.65447 3.38733 3.52605 3.42949 3.39306 3.43439L0.677102 3.53123C0.662902 3.53101 0.649002 3.5351 0.637444 3.54289C0.625887 3.55068 0.617282 3.56177 0.612892 3.57451C0.608502 3.58726 0.608559 3.601 0.613056 3.61372C0.617552 3.62644 0.62625 3.63745 0.637872 3.64516L2.77141 5.22882C2.8761 5.30606 2.9541 5.41094 2.99548 5.53013C3.03685 5.64932 3.03974 5.77743 3.00377 5.89817L2.26745 8.3591C2.26305 8.37142 2.26303 8.38476 2.26739 8.3971C2.27174 8.40943 2.28024 8.42009 2.29159 8.42746C2.30252 8.43629 2.31643 8.44114 2.33082 8.44114C2.3452 8.44114 2.35912 8.43629 2.37005 8.42746L4.62127 7.00331C4.7313 6.93443 4.86043 6.89776 4.99246 6.89792L4.99547 6.88653Z" fill="#F7F5DD"/>
</svg>
