<svg width="13" height="12" viewBox="0 0 13 12" fill="none" xmlns="http://www.w3.org/2000/svg">
<path d="M7.03997 0.313915C6.79942 -0.104639 6.20058 -0.104639 5.96003 0.313915L4.26559 3.2616C4.14674 3.46836 3.94131 3.60947 3.70715 3.64516L0.531695 4.12931C-0.00164377 4.21062 -0.188726 4.89036 0.226637 5.23773L2.59222 7.21609C2.81119 7.39923 2.91415 7.68812 2.86096 7.97007L2.24216 11.2504C2.14433 11.769 2.68361 12.1719 3.14632 11.926L6.1364 10.3366C6.36396 10.2157 6.63598 10.2157 6.8636 10.3366L9.85369 11.926C10.3164 12.1719 10.8557 11.769 10.7578 11.2504L10.1391 7.97007C10.0859 7.68812 10.1888 7.39923 10.4078 7.21609L12.7734 5.23773C13.1887 4.89036 13.0017 4.21062 12.4683 4.12931L9.29287 3.64516C9.05869 3.60947 8.85329 3.46836 8.73442 3.2616L7.03997 0.313915Z" fill="#FFAD32"/>
</svg>
