<svg width="24" height="28" viewBox="0 0 24 28" fill="none" xmlns="http://www.w3.org/2000/svg">
<path d="M4.39995 26.3998C4.39995 26.8416 4.04179 27.1998 3.59995 27.1998C3.1581 27.1998 2.79994 26.8416 2.79994 26.3998V18.3998C2.79994 17.958 3.1581 17.5998 3.59995 17.5998C4.04179 17.5998 4.39995 17.958 4.39995 18.3998V26.3998ZM7.59994 26.3998C7.59994 26.8416 7.24178 27.1998 6.79993 27.1998C6.35809 27.1998 5.99993 26.8416 5.99993 26.3998V18.3998C5.99993 17.958 6.35809 17.5998 6.79993 17.5998C7.24178 17.5998 7.59994 17.958 7.59994 18.3998V26.3998ZM1.60002 15.9998C1.60002 16.4417 1.24185 16.7999 0.800008 16.7999C0.358166 16.7999 0 16.4417 0 15.9998V10.4002C0 8.63305 1.43249 7.19994 3.19878 7.19994H7.2011C8.96905 7.19994 10.3999 8.63001 10.3999 10.4002V15.9999C10.3999 16.4417 10.0417 16.7999 9.59987 16.7999C9.15803 16.7999 8.79986 16.4417 8.79986 15.9999V10.4002C8.79986 9.51388 8.08554 8.79995 7.20105 8.79995H3.19874C2.31626 8.79995 1.59993 9.51655 1.59993 10.4002V15.9998H1.60002ZM17.9999 26.3998C17.9999 26.8416 17.6417 27.1998 17.1999 27.1998C16.758 27.1998 16.3999 26.8416 16.3999 26.3998V18.3998C16.3999 17.958 16.758 17.5998 17.1999 17.5998C17.6417 17.5998 17.9999 17.958 17.9999 18.3998V26.3998ZM21.1998 26.3998C21.1998 26.8416 20.8416 27.1998 20.3998 27.1998C19.958 27.1998 19.5998 26.8416 19.5998 26.3998V18.3998C19.5998 17.958 19.958 17.5998 20.3998 17.5998C20.8416 17.5998 21.1998 17.958 21.1998 18.3998V26.3998ZM15.176 16.1939C15.0689 16.6225 14.6345 16.8831 14.2059 16.7759C13.7773 16.6688 13.5167 16.2345 13.6238 15.8058L15.4302 8.58024C15.6263 7.79589 16.3942 7.19994 17.2033 7.19994H20.3965C21.2071 7.19994 21.9728 7.79339 22.1695 8.58024L23.9759 15.8058C24.0831 16.2345 23.8225 16.6688 23.3939 16.7759C22.9652 16.8831 22.5309 16.6225 22.4237 16.1939L20.6173 8.96829C20.5993 8.89599 20.4753 8.79991 20.3965 8.79991H17.2033C17.1264 8.79991 16.9999 8.89804 16.9824 8.96829L15.176 16.1939ZM5.19996 5.59997C3.65356 5.59997 2.39998 4.34639 2.39998 2.79998C2.39998 1.25358 3.65356 0 5.19996 0C6.74637 0 7.99995 1.25358 7.99995 2.79998C7.99995 4.34634 6.74637 5.59997 5.19996 5.59997ZM5.19996 3.99995C5.86268 3.99995 6.39997 3.4627 6.39997 2.79994C6.39997 2.13718 5.86273 1.59993 5.19996 1.59993C4.53724 1.59993 3.99995 2.13718 3.99995 2.79994C3.99995 3.4627 4.53724 3.99995 5.19996 3.99995ZM18.7998 5.59997C17.2534 5.59997 15.9998 4.34639 15.9998 2.79998C15.9999 1.25358 17.2535 0 18.7998 0C20.3462 0 21.5998 1.25358 21.5998 2.79998C21.5998 4.34634 20.3462 5.59997 18.7998 5.59997ZM18.7998 3.99995C19.4625 3.99995 19.9998 3.4627 19.9998 2.79994C19.9998 2.13718 19.4626 1.59993 18.7998 1.59993C18.1371 1.59993 17.5998 2.13718 17.5998 2.79994C17.5998 3.4627 18.1371 3.99995 18.7998 3.99995Z" fill="#F7F5DD"/>
</svg>
