<svg width="22" height="22" viewBox="0 0 22 22" fill="none" xmlns="http://www.w3.org/2000/svg">
<path d="M4.86716 12.5811L4.86715 12.5811L3.24244 15.0004L3.2419 15.0013L3.23113 15.017L3.23061 15.0177C3.06555 15.2537 3.08812 15.4568 3.1663 15.599L3.16632 15.599C3.24875 15.7491 3.43406 15.9 3.75125 15.9H18.2721C18.4867 15.9 18.7018 15.7714 18.8238 15.5543L4.86716 12.5811ZM4.86716 12.5811C4.98894 12.3998 5.054 12.1863 5.054 11.9678V8.67742C5.054 5.65689 7.65898 3.1 10.9609 3.1C12.5795 3.1 14.0483 3.74549 15.1937 4.74684C16.1958 5.71017 16.8679 7.16111 16.8679 8.67742V11.9678C16.8679 12.1969 16.9393 12.4203 17.0724 12.6068L18.7986 15.0261L4.86716 12.5811ZM18.8197 15.0546C18.8127 15.0455 18.8057 15.036 18.7987 15.0262L18.8197 15.0546ZM18.8197 15.0546C18.9159 15.1808 18.9382 15.3502 18.8238 15.5542L18.8197 15.0546ZM16.6628 3.10947C15.1704 1.79662 13.1932 0.9 10.9609 0.9C6.54589 0.9 2.85471 4.34271 2.85471 8.67742V11.6325L1.42254 13.7652C1.42238 13.7655 1.42223 13.7657 1.42207 13.7659C0.0690023 15.7147 1.51788 18.1 3.75125 18.1H18.2721C19.3784 18.1 20.2799 17.4535 20.7415 16.6312C21.2071 15.8017 21.2843 14.6725 20.5798 13.7355L19.0672 11.6155V8.67742C19.0672 6.52418 18.1215 4.49843 16.6951 3.13907L16.6261 3.21146L16.6952 3.13916C16.6846 3.12904 16.6738 3.11915 16.6628 3.10947ZM16.6628 3.10947L16.5967 3.18455L16.6627 3.10938C16.6627 3.10941 16.6627 3.10944 16.6628 3.10947ZM8.00478 18.9C7.39743 18.9 6.90513 19.3925 6.90513 20C6.90513 20.6075 7.39743 21.1 8.00478 21.1H14.0026C14.61 21.1 15.1023 20.6075 15.1023 20C15.1023 19.3925 14.61 18.9 14.0026 18.9H8.00478Z" fill="url(#paint0_linear_1_778)" stroke="#28252D" stroke-width="0.2"/>
<defs>
<linearGradient id="paint0_linear_1_778" x1="1.36364" y1="-0.186438" x2="22.5167" y2="1.45501" gradientUnits="userSpaceOnUse">
<stop stop-color="#FE3C72"/>
<stop offset="1" stop-color="#E15561"/>
</linearGradient>
</defs>
</svg>
