<svg width="148" height="91" viewBox="0 0 148 91" fill="none" xmlns="http://www.w3.org/2000/svg">
<path d="M146.74 44.3828C142.621 35.1935 133.946 25.6462 123.283 25.3368C133.859 25.5368 142.251 35.4931 146.38 44.3828H146.74Z" fill="white"/>
<path d="M20.13 61.6585C16.3167 61.6585 12.87 60.8152 9.79 59.1285C6.74667 57.4419 4.345 55.1135 2.585 52.1435C0.861666 49.1369 0 45.7819 0 42.0785C0 38.3752 0.861666 35.0385 2.585 32.0685C4.345 29.0619 6.765 26.7152 9.845 25.0285C12.925 23.3419 16.3717 22.4985 20.185 22.4985C23.045 22.4985 25.685 22.9752 28.105 23.9285C30.525 24.8819 32.5783 26.2752 34.265 28.1085L33.68 28.6935C30.6733 25.6502 26.8783 24.1285 22.295 24.1285C19.2517 24.1285 15.4833 24.8252 12.99 26.2185C10.4967 27.6119 7.535 30.5185 6.105 32.9385C4.71167 35.3585 4.015 39.0719 4.015 42.0785C4.015 45.0852 4.71167 47.7985 6.105 50.2185C7.535 52.6385 9.49667 54.5452 11.99 55.9385C14.4833 57.3319 17.2517 58.0285 20.295 58.0285C24.915 58.0285 28.71 56.4885 31.68 53.4085L34.265 55.9935C32.5783 57.8269 30.5067 59.2385 28.05 60.2285C25.63 61.1819 22.99 61.6585 20.13 61.6585Z" fill="white"/>
<path d="M28.9853 71.8125C28.9853 69.7812 29.4384 67.9062 30.3447 66.1875C31.2197 64.5 32.3447 62.9531 33.7197 61.5469C35.1259 60.1719 36.6728 58.9375 38.3603 57.8438C40.079 56.75 41.7509 55.7969 43.3759 54.9844L44.7353 50.625C44.579 50.8125 44.2665 51.125 43.7978 51.5625C43.3603 52 42.8915 52.4688 42.3915 52.9688C41.8915 53.4375 41.4072 53.8906 40.9384 54.3281C40.4697 54.7344 40.1415 55.0156 39.954 55.1719C39.579 55.4844 39.1259 55.8438 38.5947 56.25C38.0634 56.6562 37.4853 57.0469 36.8603 57.4219C36.2665 57.7656 35.6572 58.0625 35.0322 58.3125C34.4072 58.5312 33.8447 58.6406 33.3447 58.6406C32.6572 58.6406 32.204 58.4844 31.9853 58.1719C31.7978 57.8281 31.704 57.3438 31.704 56.7188C31.704 56.2188 31.7353 55.7031 31.7978 55.1719C31.8915 54.6406 31.8759 54.1094 31.7509 53.5781L33.579 48.6094C33.8603 48.3281 34.1259 47.8906 34.3759 47.2969C34.6572 46.7031 34.9228 46.1094 35.1728 45.5156C35.454 44.9219 35.7353 44.4062 36.0165 43.9688C36.329 43.5312 36.6572 43.3125 37.0009 43.3125C37.3759 43.3125 37.6884 43.4219 37.9384 43.6406C38.2197 43.8594 38.3603 44.1719 38.3603 44.5781C38.3603 44.8906 38.3134 45.1719 38.2197 45.4219C38.1572 45.6406 38.0478 45.9375 37.8915 46.3125C37.4853 47.1562 37.079 47.9531 36.6728 48.7031C36.2978 49.4531 35.9384 50.2031 35.5947 50.9531C35.2822 51.7031 35.0165 52.4844 34.7978 53.2969C34.6103 54.0781 34.5165 54.9531 34.5165 55.9219H34.704C34.704 55.9219 34.7978 55.875 34.9853 55.7812C35.1728 55.6562 35.3759 55.5312 35.5947 55.4062C35.8447 55.25 36.0947 55.0938 36.3447 54.9375C36.5947 54.7812 36.8134 54.6406 37.0009 54.5156C38.7197 53.3906 40.2353 52.0781 41.5478 50.5781C42.8603 49.0469 44.1572 47.4688 45.4384 45.8438C45.5634 45.6562 45.6728 45.5156 45.7665 45.4219C45.8603 45.3281 45.9384 45.2656 46.0009 45.2344C46.0634 45.1719 46.1415 45.1406 46.2353 45.1406C46.329 45.1406 46.4697 45.1406 46.6572 45.1406C47.0947 45.1406 47.4384 45.2344 47.6884 45.4219C47.9697 45.5781 48.1415 45.9531 48.204 46.5469C48.2353 46.9531 48.204 47.4531 48.1103 48.0469C48.0165 48.6094 47.8915 49.1719 47.7353 49.7344C47.579 50.2969 47.4072 50.8594 47.2197 51.4219C47.0634 51.9531 46.9228 52.375 46.7978 52.6875V53.3906C46.8603 53.3594 47.0009 53.3125 47.2197 53.25C47.4697 53.1875 47.6415 53.1406 47.7353 53.1094C47.9228 53.0781 48.4384 52.9062 49.2822 52.5938C50.1259 52.2812 51.0322 51.9531 52.0009 51.6094C53.0009 51.2344 53.9228 50.8906 54.7665 50.5781C55.6103 50.2656 56.1415 50.0625 56.3603 49.9688H56.454C56.6728 49.9688 56.8603 50.0469 57.0165 50.2031C57.204 50.3594 57.2978 50.5469 57.2978 50.7656C57.2978 50.9844 57.2197 51.1719 57.0634 51.3281C56.9384 51.4844 56.7822 51.625 56.5947 51.75C56.4072 51.8438 56.204 51.9375 55.9853 52.0312C55.7665 52.125 55.579 52.2031 55.4228 52.2656C55.204 52.3906 54.8915 52.5469 54.4853 52.7344C54.079 52.8906 53.6103 53.0781 53.079 53.2969C52.579 53.4844 52.0478 53.7031 51.4853 53.9531C50.9228 54.2031 50.3759 54.4375 49.8447 54.6562C48.5634 55.1875 47.1728 55.75 45.6728 56.3438L41.5478 71.9062C41.3603 72.6562 41.0009 73.4375 40.4697 74.25C39.9697 75.0625 39.3759 75.8125 38.6884 76.5C38.0009 77.1875 37.2353 77.7344 36.3915 78.1406C35.579 78.5781 34.7509 78.7969 33.9072 78.7969C33.0322 78.7969 32.2822 78.5625 31.6572 78.0938C31.0322 77.6562 30.5165 77.0781 30.1103 76.3594C29.704 75.6719 29.4228 74.9219 29.2665 74.1094C29.079 73.2969 28.9853 72.5312 28.9853 71.8125ZM31.5165 71.8125C31.5165 72.2188 31.5478 72.6719 31.6103 73.1719C31.704 73.6719 31.8603 74.1562 32.079 74.625C32.2978 75.0938 32.5634 75.4844 32.8759 75.7969C33.2197 76.1094 33.6572 76.2656 34.1884 76.2656C34.8759 76.2656 35.5009 76.0469 36.0634 75.6094C36.6572 75.2031 37.1728 74.6875 37.6103 74.0625C38.079 73.4688 38.4697 72.8281 38.7822 72.1406C39.0947 71.4531 39.3447 70.8438 39.5322 70.3125C39.6259 69.9375 39.7665 69.4062 39.954 68.7188C40.1415 68.0625 40.3134 67.4062 40.4697 66.75C40.6572 66.0938 40.8134 65.5 40.9384 64.9688C41.0634 64.4688 41.1259 64.1719 41.1259 64.0781V63.8906L42.4853 57.9844C41.2353 58.3906 39.954 59.0781 38.6415 60.0469C37.3603 61.0156 36.1884 62.1406 35.1259 63.4219C34.0634 64.7031 33.1884 66.0781 32.5009 67.5469C31.8447 69.0156 31.5165 70.4375 31.5165 71.8125ZM53.5478 54.4219C54.4228 53.7656 55.0634 53.125 55.4697 52.5C55.9072 51.875 56.2509 51.25 56.5009 50.625C56.7509 50 56.954 49.3438 57.1103 48.6562C57.2665 47.9375 57.5165 47.1562 57.8603 46.3125C57.7353 46.0938 57.6572 45.9062 57.6259 45.75C57.6259 45.5625 57.6259 45.3438 57.6259 45.0938C57.6259 44.8438 57.6572 44.5469 57.7197 44.2031C57.8134 43.8594 57.9384 43.5469 58.0947 43.2656C58.2509 42.9531 58.4384 42.6875 58.6572 42.4688C58.8759 42.25 59.1415 42.1406 59.454 42.1406C59.4228 42.2656 59.5947 42.4062 59.9697 42.5625C60.3759 42.7188 60.8603 42.8906 61.4228 43.0781C62.0165 43.2656 62.6415 43.4688 63.2978 43.6875C63.954 43.9062 64.5322 44.1406 65.0322 44.3906C65.5947 44.7031 65.9853 45.0469 66.204 45.4219C66.454 45.7656 66.579 46.2656 66.579 46.9219C66.579 47.5156 66.5009 48.1875 66.3447 48.9375C66.2197 49.6875 66.079 50.4531 65.9228 51.2344C65.7978 51.9844 65.6572 52.75 65.5009 53.5312C65.3759 54.2812 65.3134 54.9688 65.3134 55.5938V56.8125C65.2822 57.0938 65.3447 57.25 65.5009 57.2812C65.6884 57.2812 65.8603 57.2812 66.0165 57.2812C66.3915 57.2812 66.7353 57.2188 67.0478 57.0938C67.3603 56.9688 67.6728 56.8281 67.9853 56.6719C68.329 56.5156 68.6572 56.375 68.9697 56.25C69.2822 56.0938 69.6103 55.9844 69.954 55.9219L74.079 53.3906C74.204 53.1719 74.3603 53 74.5478 52.875C74.7665 52.7188 74.9697 52.5781 75.1572 52.4531C75.4697 52.2656 75.8447 52 76.2822 51.6562C76.5009 51.4688 76.7353 51.2812 76.9853 51.0938H78.3915C78.4853 51.0938 78.5478 51.1875 78.579 51.375C78.6103 51.5625 78.6259 51.7031 78.6259 51.7969C78.6259 52.1719 78.3603 52.6406 77.829 53.2031C77.2978 53.7656 76.6103 54.3438 75.7665 54.9375C74.9228 55.5312 73.9853 56.125 72.954 56.7188C71.9228 57.2812 70.9072 57.7969 69.9072 58.2656C68.9384 58.7344 68.0322 59.1094 67.1884 59.3906C66.3759 59.6719 65.7509 59.8125 65.3134 59.8125C64.7509 59.8125 64.2978 59.6719 63.954 59.3906C63.6103 59.1094 63.329 58.7656 63.1103 58.3594C62.8915 57.9531 62.7353 57.5156 62.6415 57.0469C62.579 56.5469 62.5478 56.0625 62.5478 55.5938C62.5478 55.25 62.6572 54.7656 62.8759 54.1406C63.0947 53.5156 63.3447 52.875 63.6259 52.2188C63.9072 51.5625 64.1572 50.9219 64.3759 50.2969C64.5947 49.6719 64.704 49.1719 64.704 48.7969C64.704 48.7656 64.4697 48.6406 64.0009 48.4219C63.5634 48.2031 63.079 47.9688 62.5478 47.7188C62.0165 47.4375 61.5165 47.2031 61.0478 47.0156C60.6103 46.7969 60.3915 46.6719 60.3915 46.6406C59.704 47.3594 59.2197 48.125 58.9384 48.9375C58.6884 49.75 58.4228 50.5938 58.1415 51.4688C57.8915 52.3438 57.5009 53.2188 56.9697 54.0938C56.4697 54.9688 55.6103 55.8281 54.3915 56.6719C54.3603 56.6719 54.2978 56.6562 54.204 56.625C54.079 56.5938 53.9697 56.5156 53.8759 56.3906C53.7509 56.2344 53.6572 56.0156 53.5947 55.7344C53.5322 55.4219 53.5165 54.9844 53.5478 54.4219ZM76.8915 58.5938C76.8915 58.5 76.8915 58.2656 76.8915 57.8906C76.8915 57.5156 76.8915 57.2656 76.8915 57.1406C76.3603 55.2656 76.2822 53.4219 76.6572 51.6094C77.0634 49.7969 77.7665 48.1719 78.7665 46.7344C79.7978 45.2656 81.0947 44.0469 82.6572 43.0781C84.2509 42.0781 85.9853 41.4688 87.8603 41.25H88.704C89.3915 41.25 89.954 41.4062 90.3915 41.7188C90.8603 42 91.2197 42.375 91.4697 42.8438C91.7509 43.3125 91.9384 43.8438 92.0322 44.4375C92.1572 45.0312 92.2197 45.625 92.2197 46.2188C92.2197 47.0312 92.1259 47.8281 91.9384 48.6094C91.7822 49.3594 91.5947 50.125 91.3759 50.9062C91.1884 51.6875 91.0009 52.4688 90.8134 53.25C90.6572 54 90.579 54.7969 90.579 55.6406V55.9219C90.6103 55.9844 90.6415 56.1719 90.6728 56.4844C90.7353 56.7656 90.7822 56.9375 90.8134 57C90.8759 57 91.0322 57.0156 91.2822 57.0469C91.5322 57.0469 91.6884 57.0469 91.7509 57.0469C92.0634 57.0469 92.3603 57.0469 92.6415 57.0469C92.954 57.0156 93.2665 56.9375 93.579 56.8125L102.485 52.6875C102.517 52.6875 102.563 52.6875 102.626 52.6875C102.72 52.6562 102.782 52.6406 102.813 52.6406C103.126 52.6406 103.376 52.7344 103.563 52.9219C103.782 53.1094 103.892 53.3594 103.892 53.6719C103.892 53.8281 103.876 53.9844 103.845 54.1406C103.845 54.2656 103.767 54.3906 103.61 54.5156C103.392 54.6719 102.985 54.8906 102.392 55.1719C101.829 55.4531 101.22 55.7656 100.563 56.1094C99.9072 56.4531 99.2822 56.7812 98.6884 57.0938C98.1259 57.4062 97.7197 57.6094 97.4697 57.7031C97.0322 57.9531 96.5478 58.1875 96.0165 58.4062C95.4853 58.5938 94.9384 58.7812 94.3759 58.9688C93.8134 59.1562 93.2509 59.3125 92.6884 59.4375C92.1572 59.5312 91.6728 59.5781 91.2353 59.5781C90.5478 59.5781 89.9853 59.4688 89.5478 59.25C89.1103 59 88.7822 58.6875 88.5634 58.3125C88.3447 57.9062 88.1884 57.4375 88.0947 56.9062C88.0322 56.3438 88.0322 55.7656 88.0947 55.1719C87.4697 55.6719 86.7978 56.2031 86.079 56.7656C85.3603 57.3281 84.6103 57.8438 83.829 58.3125C83.0478 58.7812 82.2509 59.1875 81.4384 59.5312C80.6259 59.875 79.7978 60.0469 78.954 60.0469C78.4853 60.0469 78.0634 59.9375 77.6884 59.7188C77.3134 59.4688 77.0478 59.0938 76.8915 58.5938ZM79.4228 57.6094C80.1415 57.6094 80.9384 57.4062 81.8134 57C82.6884 56.5625 83.5478 56.0312 84.3915 55.4062C85.2353 54.7812 86.0009 54.125 86.6884 53.4375C87.3759 52.7188 87.9072 52.0781 88.2822 51.5156C88.3134 50.5781 88.4384 49.6875 88.6572 48.8438C88.9072 47.9688 89.0322 47.0781 89.0322 46.1719C89.0322 46.1094 89.0165 46.0156 88.9853 45.8906C88.9853 45.7656 88.9853 45.6719 88.9853 45.6094C88.579 45.2656 88.2353 45.0625 87.954 45C87.6728 44.9375 87.2978 44.9062 86.829 44.9062C86.7665 44.9062 86.6259 44.9062 86.4072 44.9062C86.2197 44.9062 86.0947 44.9219 86.0322 44.9531C85.8447 45.1094 85.5322 45.4062 85.0947 45.8438C84.6572 46.25 84.1884 46.7031 83.6884 47.2031C83.2197 47.7031 82.7665 48.1719 82.329 48.6094C81.9228 49.0469 81.6415 49.3438 81.4853 49.5C81.454 49.5 81.3915 49.5625 81.2978 49.6875C81.204 49.7812 81.0947 49.9062 80.9697 50.0625C80.8759 50.2188 80.7822 50.375 80.6884 50.5312C80.6259 50.6562 80.579 50.7656 80.5478 50.8594L79.4228 56.3438V57.6094ZM101.829 59.0625L103.423 49.6875V48.375L104.36 42.1406C104.454 42.0156 104.626 41.9531 104.876 41.9531C105.126 41.9219 105.298 41.9062 105.392 41.9062C105.642 41.9062 105.923 42 106.235 42.1875C106.579 42.3438 106.751 42.5625 106.751 42.8438V46.0312C106.876 45.9375 107.095 45.75 107.407 45.4688C107.72 45.1875 108.048 44.8906 108.392 44.5781C108.767 44.2656 109.11 43.9688 109.423 43.6875C109.735 43.4062 109.938 43.2031 110.032 43.0781C110.376 42.7656 110.782 42.5 111.251 42.2812C111.751 42.0625 112.22 41.9531 112.657 41.9531C113.563 41.9531 114.267 42.2344 114.767 42.7969C115.298 43.3594 115.563 44.0781 115.563 44.9531C115.563 45.0156 115.548 45.0625 115.517 45.0938C115.517 45.0938 115.517 45.125 115.517 45.1875V45.375L113.735 53.3906V57.1875C114.704 57.1875 115.704 57 116.735 56.625C117.798 56.2188 118.813 55.7188 119.782 55.125C120.751 54.5312 121.657 53.8594 122.501 53.1094C123.345 52.3281 124.079 51.5781 124.704 50.8594H124.892C125.11 50.8594 125.282 50.9375 125.407 51.0938C125.563 51.2188 125.642 51.3906 125.642 51.6094C125.642 52.2969 125.407 52.9844 124.938 53.6719C124.501 54.3281 123.923 54.9531 123.204 55.5469C122.517 56.1406 121.704 56.7031 120.767 57.2344C119.86 57.7656 118.954 58.2188 118.048 58.5938C117.173 58.9688 116.313 59.2656 115.47 59.4844C114.626 59.7031 113.907 59.8125 113.313 59.8125C112.72 59.8125 112.251 59.7031 111.907 59.4844C111.563 59.2656 111.298 58.9844 111.11 58.6406C110.954 58.2656 110.845 57.8594 110.782 57.4219C110.751 56.9844 110.735 56.5156 110.735 56.0156V55.4062L112.563 46.3125V44.7656C111.813 44.7656 111.063 45.0938 110.313 45.75C109.595 46.4062 108.938 47.2031 108.345 48.1406C107.782 49.0781 107.282 50.0312 106.845 51C106.438 51.9688 106.142 52.7656 105.954 53.3906C105.892 53.6094 105.798 54 105.673 54.5625C105.548 55.125 105.423 55.7188 105.298 56.3438C105.204 56.9688 105.11 57.5625 105.017 58.125C104.923 58.6875 104.86 59.0938 104.829 59.3438C104.86 59.5312 104.798 59.6719 104.642 59.7656C104.517 59.8594 104.36 59.9375 104.173 60C103.985 60.0312 103.782 60.0469 103.563 60.0469C103.376 60.0469 103.22 60.0469 103.095 60.0469C102.813 60.0469 102.532 60 102.251 59.9062C101.97 59.8125 101.829 59.5781 101.829 59.2031V59.0625ZM123.767 56.3438C123.767 56.3125 123.782 56.2031 123.813 56.0156C123.845 55.8281 123.876 55.6406 123.907 55.4531C123.938 55.2344 123.97 55.0469 124.001 54.8906C124.032 54.7031 124.048 54.5781 124.048 54.5156V54.3281V54.0469L124.704 51.0938C125.235 49.9688 125.782 48.8906 126.345 47.8594C126.938 46.8281 127.61 45.9219 128.36 45.1406C129.11 44.3594 129.97 43.7344 130.938 43.2656C131.938 42.7969 133.142 42.5625 134.548 42.5625C134.829 42.5625 135.173 42.6562 135.579 42.8438C136.017 43 136.438 43.2031 136.845 43.4531C137.282 43.7031 137.673 43.9688 138.017 44.25C138.392 44.5 138.673 44.7344 138.86 44.9531C139.829 44.7969 140.532 44.7188 140.97 44.7188C141.407 44.6875 141.782 44.6719 142.095 44.6719C142.407 44.6406 142.735 44.5781 143.079 44.4844C143.454 44.3906 144.017 44.1875 144.767 43.875C145.298 43.7188 145.813 43.6406 146.313 43.6406C146.532 43.6406 146.735 43.7344 146.923 43.9219C147.142 44.1094 147.251 44.3281 147.251 44.5781C147.251 44.8906 147.142 45.1719 146.923 45.4219C146.704 45.6719 146.438 45.8281 146.126 45.8906L140.267 47.2031L139.751 47.4375C139.72 49.125 139.345 50.7344 138.626 52.2656C137.907 53.7969 136.954 55.1406 135.767 56.2969C134.579 57.4531 133.204 58.375 131.642 59.0625C130.079 59.7188 128.454 60.0469 126.767 60.0469C126.642 60.0469 126.438 60.0312 126.157 60C125.876 60 125.688 60 125.595 60C124.907 59.7188 124.423 59.2031 124.142 58.4531C123.892 57.7031 123.767 57 123.767 56.3438ZM126.767 57.2812C126.798 57.4375 126.923 57.5156 127.142 57.5156C127.36 57.5156 127.517 57.5156 127.61 57.5156C128.735 57.5156 129.892 57.2344 131.079 56.6719C132.267 56.0781 133.329 55.3281 134.267 54.4219C135.235 53.4844 136.017 52.4375 136.61 51.2812C137.235 50.0938 137.548 48.9062 137.548 47.7188C136.548 47.7188 135.548 47.6406 134.548 47.4844C133.548 47.2969 132.579 47.2031 131.642 47.2031H131.595L127.704 51.3281C127.485 51.5469 127.313 51.8438 127.188 52.2188C127.063 52.5938 126.97 53 126.907 53.4375C126.845 53.875 126.798 54.3125 126.767 54.75C126.735 55.1875 126.72 55.5781 126.72 55.9219C126.72 56.0156 126.72 56.2344 126.72 56.5781C126.72 56.9219 126.735 57.1562 126.767 57.2812Z" fill="white"/>
</svg>
