<svg width="20" height="20" viewBox="0 0 20 20" fill="none" xmlns="http://www.w3.org/2000/svg">
<path d="M10 0C4.5 0 0 4.5 0 10C0 15.5 4.5 20 10 20C15.5 20 20 15.5 20 10C20 4.5 15.5 0 10 0ZM10 18C5.6 18 2 14.4 2 10C2 5.6 5.6 2 10 2C14.4 2 18 5.6 18 10C18 14.4 14.4 18 10 18Z" fill="white"/>
<path d="M11.3001 8.9998H8.70006C8.20006 8.9998 7.80005 8.5998 7.80005 8.0998C7.80005 7.5998 8.20006 7.1998 8.70006 7.1998H12.4001C13.0001 7.1998 13.4001 6.7998 13.4001 6.1998C13.4001 5.5998 13.0001 5.1998 12.4001 5.1998H11.0001V4.2998C11.0001 3.6998 10.6001 3.2998 10.0001 3.2998C9.40006 3.2998 9.00006 3.6998 9.00006 4.2998V5.1998H8.70006C7.10005 5.1998 5.80005 6.4998 5.80005 8.0998C5.80005 9.6998 7.10005 10.9998 8.70006 10.9998H11.2001C11.7001 10.9998 12.1001 11.3998 12.1001 11.8998C12.1001 12.3998 11.7001 12.7998 11.2001 12.7998H7.50005C6.90005 12.7998 6.50005 13.1998 6.50005 13.7998C6.50005 14.3998 6.90005 14.7998 7.50005 14.7998H9.00006V15.6998C9.00006 16.2998 9.40006 16.6998 10.0001 16.6998C10.6001 16.6998 11.0001 16.2998 11.0001 15.6998V14.7998H11.3001C12.9001 14.7998 14.2001 13.4998 14.2001 11.8998C14.2001 10.2998 12.9001 8.9998 11.3001 8.9998Z" fill="white"/>
</svg>
