<svg width="19" height="21" viewBox="0 0 19 21" fill="none" xmlns="http://www.w3.org/2000/svg">
<path d="M14.4 6.5H14V5.1C14.1 2.3 11.8 0 9 0C6.2 0 3.9 2.3 3.9 5.1V6.6H3.6C1.6 6.6 0 8.19999 0 10.2V16.5C0 18.5 1.6 20.1 3.6 20.1H14.5C16.5 20.1 18.1 18.5 18.1 16.5V10.2C18 8.09999 16.4 6.5 14.4 6.5ZM5.9 5.1C5.9 3.4 7.3 2 9 2C10.7 2 12.1 3.4 12.1 5.1V6.6H5.9V5.1ZM16.2 16.4C16.2 17.3 15.3 18 14.4 18H3.6C2.7 18 2 17.3 2 16.4V10.1C2 9.19999 2.7 8.49999 3.6 8.49999H5H13.2H14.6C15.5 8.49999 16.2 9.19999 16.2 10.1V16.4Z" fill="white"/>
<path d="M9 13.1001C8.4 13.1001 8 13.5001 8 14.1001V15.7001C8 16.3001 8.4 16.7001 9 16.7001C9.6 16.7001 10 16.3001 10 15.7001V14.1001C10 13.5001 9.6 13.1001 9 13.1001Z" fill="white"/>
</svg>
