<svg width="34" height="34" viewBox="0 0 34 34" fill="none" xmlns="http://www.w3.org/2000/svg">
<g clip-path="url(#clip0_1_99)">
<path d="M25.7729 8.22719H8.22729V25.7728H25.7729V8.22719Z" fill="white"/>
<path d="M25.7728 33.6666L33.6667 25.7728H25.7728V33.6666Z" fill="#F72A25"/>
<path d="M33.6667 8.22719H25.7728V25.7728H33.6667V8.22719Z" fill="#FBBC04"/>
<path d="M25.7729 25.7728H8.22729V33.6666H25.7729V25.7728Z" fill="#34A853"/>
<path d="M0.333374 25.7728V31.0354C0.333374 32.4893 1.51067 33.6666 2.96467 33.6666H8.22726V25.7728H0.333374Z" fill="#188038"/>
<path d="M33.6667 8.22719V2.96461C33.6667 1.51061 32.4894 0.333313 31.0354 0.333313H25.7728V8.22719H33.6667Z" fill="#1967D2"/>
<path d="M25.7728 0.333313H2.96467C1.51067 0.333313 0.333374 1.51061 0.333374 2.96461V25.7728H8.22725V8.22719H25.7701V0.333313H25.7728Z" fill="#4285F4"/>
<path d="M11.8269 21.8367C11.1705 21.3945 10.7174 20.7462 10.4706 19.8917L11.9924 19.2651C12.1307 19.7913 12.3722 20.1982 12.7167 20.4885C13.0585 20.7787 13.4762 20.9198 13.9618 20.9198C14.4609 20.9198 14.8868 20.7679 15.2449 20.4668C15.603 20.163 15.782 19.7778 15.782 19.3112C15.782 18.8338 15.5921 18.4431 15.215 18.1393C14.838 17.8355 14.3633 17.6863 13.799 17.6863H12.9201V16.1808H13.7095C14.1951 16.1808 14.6074 16.0505 14.9411 15.7847C15.2747 15.5216 15.4402 15.1608 15.4402 14.7024C15.4402 14.2954 15.291 13.9699 14.9926 13.7258C14.6942 13.4816 14.3172 13.3596 13.8587 13.3596C13.4111 13.3596 13.0558 13.4789 12.7926 13.7176C12.5295 13.9564 12.3315 14.2602 12.2175 14.5966L10.712 13.9699C10.9127 13.403 11.279 12.9038 11.8161 12.4725C12.3532 12.0412 13.0395 11.8242 13.8723 11.8242C14.4881 11.8242 15.0441 11.9436 15.5351 12.1823C16.0261 12.421 16.4113 12.7519 16.6907 13.1724C16.9701 13.5956 17.1085 14.0703 17.1085 14.5966C17.1085 15.1337 16.9783 15.5867 16.7206 15.961C16.4629 16.3327 16.1428 16.6202 15.7657 16.8182V16.9078C16.2513 17.1085 16.6772 17.4394 16.9891 17.8626C17.3065 18.2912 17.4666 18.8012 17.4666 19.398C17.4666 19.9948 17.3147 20.5265 17.0136 20.993C16.7097 21.4596 16.292 21.8285 15.7603 22.0971C15.2286 22.3657 14.6291 22.5013 13.9645 22.5013C13.1941 22.5013 12.4834 22.2816 11.8269 21.8367ZM21.1748 14.2846L19.5038 15.4917L18.6683 14.2249L21.6658 12.0629H22.816V22.2626H21.1748V14.2846Z" fill="#1A73E8"/>
</g>
<defs>
<clipPath id="clip0_1_99">
<rect width="33.3333" height="33.3333" fill="white" transform="translate(0.333374 0.333313)"/>
</clipPath>
</defs>
</svg>
