<svg width="20" height="17" viewBox="0 0 20 17" fill="none" xmlns="http://www.w3.org/2000/svg">
<path d="M20 2.0701C19.2641 2.40985 18.4733 2.63948 17.6433 2.74278C18.4905 2.21407 19.1411 1.37684 19.4474 0.37929C18.642 0.876914 17.7608 1.22752 16.8419 1.41596C16.0934 0.58573 15.027 0.066864 13.8468 0.066864C11.5807 0.066864 9.74344 1.97965 9.74344 4.33882C9.74344 4.6737 9.77977 4.99971 9.84969 5.31246C6.43953 5.13424 3.41609 3.43351 1.39227 0.848864C1.03914 1.47982 0.836797 2.21374 0.836797 2.99656C0.836797 4.47873 1.56125 5.78626 2.66219 6.5524C2.01059 6.53116 1.37332 6.34792 0.803594 6.018C0.803359 6.0359 0.803359 6.05379 0.803359 6.07177C0.803359 8.14162 2.21773 9.8683 4.09477 10.2608C3.49054 10.4318 2.85674 10.4569 2.2418 10.334C2.76391 12.0312 4.2793 13.2663 6.07477 13.3008C4.67047 14.4466 2.90117 15.1296 0.978828 15.1296C0.647578 15.1296 0.321016 15.1093 0 15.0699C1.81586 16.282 3.97266 16.9893 6.28984 16.9893C13.8373 16.9893 17.9644 10.4796 17.9644 4.83426C17.9644 4.64897 17.9605 4.46474 17.9525 4.28156C18.7558 3.67695 19.4492 2.92808 20 2.0701Z" fill="#F7F5DD"/>
</svg>
