<svg width="26" height="26" viewBox="0 0 26 26" fill="none" xmlns="http://www.w3.org/2000/svg">
<path d="M12.6667 15.2C19.662 15.2 25.3333 17.8465 25.3333 21.1111V25.3333H0V21.1111C0 17.8465 5.67129 15.2 12.6667 15.2ZM23.6444 21.1111C23.6444 18.7804 18.7298 16.8889 12.6667 16.8889C6.60356 16.8889 1.68889 18.7804 1.68889 21.1111V23.6444H23.6444V21.1111ZM12.6667 0C14.2344 0 15.7379 0.622776 16.8465 1.73132C17.955 2.83987 18.5778 4.34339 18.5778 5.91111C18.5778 7.47884 17.955 8.98235 16.8465 10.0909C15.7379 11.1994 14.2344 11.8222 12.6667 11.8222C11.0989 11.8222 9.59543 11.1994 8.48688 10.0909C7.37833 8.98235 6.75556 7.47884 6.75556 5.91111C6.75556 4.34339 7.37833 2.83987 8.48688 1.73132C9.59543 0.622776 11.0989 0 12.6667 0ZM12.6667 1.68889C11.5469 1.68889 10.4729 2.13373 9.6811 2.92555C8.88928 3.71737 8.44444 4.79131 8.44444 5.91111C8.44444 7.03091 8.88928 8.10485 9.6811 8.89667C10.4729 9.68849 11.5469 10.1333 12.6667 10.1333C13.7865 10.1333 14.8604 9.68849 15.6522 8.89667C16.444 8.10485 16.8889 7.03091 16.8889 5.91111C16.8889 4.79131 16.444 3.71737 15.6522 2.92555C14.8604 2.13373 13.7865 1.68889 12.6667 1.68889Z" fill="url(#paint0_linear_53_885)"/>
<defs>
<linearGradient id="paint0_linear_53_885" x1="0.460606" y1="-1.50282" x2="27.2544" y2="0.576351" gradientUnits="userSpaceOnUse">
<stop stop-color="#FE3C72"/>
<stop offset="1" stop-color="#E15561"/>
</linearGradient>
</defs>
</svg>
