<svg width="25" height="25" viewBox="0 0 25 25" fill="none" xmlns="http://www.w3.org/2000/svg">
<path d="M5.77617 20.9558L5.77617 18.75C7.11544 18.3824 8.00836 17.1875 8.00836 15.7169C8.00836 13.9706 6.57982 12.5 4.88336 12.5C3.1869 12.5 1.75836 13.9706 1.75836 15.7169C1.75836 17.1875 2.65117 18.3824 3.99044 18.75L3.99044 20.9558C3.99044 21.5074 4.4369 21.875 4.88336 21.875C5.41909 21.875 5.77617 21.5074 5.77617 20.9558ZM3.54409 15.7169C3.54409 14.9817 4.16909 14.3382 4.88336 14.3382C5.59763 14.3382 6.22263 14.9817 6.22263 15.7169C6.22263 16.4522 5.59763 17.0956 4.88336 17.0956C4.16909 17.0956 3.54409 16.4522 3.54409 15.7169Z" fill="#FE3C72"/>
<path d="M5.92499 10.5718L5.92499 4.01152C5.92499 3.47961 5.40415 3.125 4.88332 3.125C4.25832 3.125 3.84165 3.56826 3.84165 4.01152L3.84165 10.5718C3.84165 11.1037 4.36249 11.4583 4.88332 11.4583C5.50832 11.4583 5.92499 11.0151 5.92499 10.5718Z" fill="#FE3C72"/>
<path d="M18.425 4.01152L18.425 10.5718C18.425 11.1037 18.9458 11.4583 19.4666 11.4583C19.9875 11.4583 20.5083 11.0151 20.5083 10.5718L20.5083 4.01152C20.5083 3.47961 19.9875 3.125 19.4666 3.125C18.9458 3.125 18.425 3.56826 18.425 4.01152Z" fill="#FE3C72"/>
<path d="M16.3417 15.7169C16.3417 17.1875 17.2345 18.3824 18.5738 18.75L18.5738 20.9558C18.5738 21.5074 19.0202 21.875 19.4667 21.875C19.9131 21.875 20.3595 21.4154 20.3595 20.9558L20.3595 18.75C21.6988 18.3824 22.5917 17.1875 22.5917 15.7169C22.5917 13.9706 21.1631 12.5 19.4667 12.5C17.7702 12.5 16.3417 13.9706 16.3417 15.7169ZM20.806 15.7169C20.806 16.4522 20.181 17.0956 19.4667 17.0956C18.7524 17.0956 18.1274 16.4522 18.1274 15.7169C18.1274 14.9817 18.7524 14.3382 19.4667 14.3382C20.181 14.3382 20.806 14.9817 20.806 15.7169Z" fill="#FE3C72"/>
<path d="M11.2821 4.04411L11.2821 6.25C10.0321 6.61765 9.05 7.8125 9.05 9.28308C9.05 11.0294 10.4785 12.5 12.175 12.5C13.8715 12.5 15.3 11.0294 15.3 9.28308C15.3 7.8125 14.4071 6.61765 13.0678 6.25L13.0678 4.04411C13.0678 3.49265 12.6215 3.125 12.175 3.125C11.7285 3.125 11.2821 3.58456 11.2821 4.04411ZM13.5143 9.28308C13.5143 10.0184 12.8893 10.6618 12.175 10.6618C11.4607 10.6618 10.8357 10.0184 10.8357 9.28308C10.8357 8.54779 11.4607 7.90442 12.175 7.90442C12.8893 7.90442 13.5143 8.54779 13.5143 9.28308Z" fill="#FE3C72"/>
<path d="M13.2167 20.9789L13.2167 14.4377C13.2167 13.9001 12.6958 13.5416 12.175 13.5416C11.6542 13.5416 11.1333 13.9896 11.1333 14.4377L11.1333 20.9789C11.1333 21.5165 11.6542 21.875 12.175 21.875C12.6958 21.875 13.2167 21.5165 13.2167 20.9789Z" fill="#FE3C72"/>
</svg>
