<svg width="21" height="19" viewBox="0 0 21 19" fill="none" xmlns="http://www.w3.org/2000/svg">
    <path d="M17.8364 9.04338C17.3091 9.04576 16.7924 9.17207 16.3405 9.409L14.2233 7.56215L15.9214 6.08093C16.199 5.83866 16.355 5.5101 16.355 5.16752C16.355 4.82495 16.199 4.49639 15.9214 4.25412L11.4782 0.378266C11.2005 0.136062 10.8238 0 10.4311 0C10.0384 0 9.66173 0.136062 9.38399 0.378266L4.94083 4.25412C4.66317 4.49639 4.50719 4.82495 4.50719 5.16752C4.50719 5.5101 4.66317 5.83866 4.94083 6.08093L6.63886 7.56215L4.52169 9.409C3.89437 9.08432 3.15275 8.97057 2.4361 9.08913C1.71945 9.20769 1.07707 9.55039 0.629583 10.0529C0.1821 10.5554 -0.0396963 11.1831 0.00584435 11.8181C0.051385 12.4532 0.36113 13.0519 0.876912 13.5018C1.39269 13.9517 2.07903 14.2219 2.80703 14.2617C3.53504 14.3014 4.25462 14.1079 4.83066 13.7176C5.4067 13.3272 5.79957 12.7668 5.93548 12.1417C6.07139 11.5166 5.941 10.8696 5.56879 10.3224L7.68596 8.47556L9.38399 9.95678C9.47569 10.035 9.57877 10.1023 9.69057 10.157V12.9192H7.46899V18.087H13.3932V12.9192H11.1716V10.1564C11.2834 10.1018 11.3865 10.0347 11.4782 9.95678L13.1762 8.47556L15.2934 10.3224C14.9654 10.8131 14.8326 11.3847 14.9154 11.9481C14.9983 12.5115 15.2923 13.0353 15.7516 13.4379C16.211 13.8405 16.81 14.0994 17.4555 14.1744C18.101 14.2494 18.7568 14.1362 19.3209 13.8525C19.885 13.5687 20.3259 13.1303 20.5749 12.6055C20.8239 12.0806 20.8671 11.4987 20.6978 10.9501C20.5284 10.4016 20.1561 9.91732 19.6386 9.57249C19.1211 9.22766 18.4876 9.04164 17.8364 9.04338ZM4.50688 11.6273C4.50688 11.8828 4.42002 12.1326 4.25728 12.345C4.09453 12.5575 3.86323 12.7231 3.5926 12.8209C3.32197 12.9187 3.02418 12.9443 2.73688 12.8944C2.44959 12.8446 2.18569 12.7215 1.97856 12.5408C1.77143 12.3601 1.63037 12.1299 1.57323 11.8793C1.51608 11.6287 1.54541 11.3689 1.65751 11.1329C1.7696 10.8968 1.95943 10.695 2.20299 10.5531C2.44655 10.4111 2.7329 10.3353 3.02582 10.3353C3.4185 10.3357 3.79499 10.4719 4.07265 10.7141C4.35032 10.9563 4.50649 11.2847 4.50688 11.6273ZM11.9122 14.2112V16.7951H8.95004V14.2112H11.9122ZM10.4311 9.04338L5.98793 5.16752L10.4311 1.29167L14.8743 5.16752L10.4311 9.04338ZM17.8364 12.9192C17.5434 12.9192 17.2571 12.8435 17.0135 12.7015C16.77 12.5595 16.5802 12.3578 16.4681 12.1217C16.356 11.8856 16.3266 11.6258 16.3838 11.3752C16.4409 11.1246 16.582 10.8944 16.7891 10.7137C16.9962 10.533 17.2601 10.41 17.5474 10.3602C17.8347 10.3103 18.1325 10.3359 18.4032 10.4337C18.6738 10.5315 18.9051 10.697 19.0678 10.9095C19.2306 11.122 19.3174 11.3718 19.3174 11.6273C19.317 11.9698 19.1609 12.2982 18.8832 12.5404C18.6055 12.7827 18.2291 12.9189 17.8364 12.9192Z" fill="black" />
    <path d="M12.8932 13.4192H11.1716H10.6716V12.9192V10.1564V9.84406L10.9523 9.70706C11.0268 9.67067 11.0939 9.62688 11.1523 9.57761L12.8476 8.09877L13.1762 7.81206L13.5049 8.09877L15.6221 9.94562L15.9534 10.2347L15.7091 10.6002C15.4473 10.9921 15.346 11.4393 15.4101 11.8753C15.4744 12.3124 15.7042 12.7314 16.0812 13.0619C16.4593 13.3933 16.9617 13.6137 17.5132 13.6777C18.0647 13.7418 18.622 13.6443 19.0962 13.4058C19.5701 13.1674 19.9261 12.8065 20.1231 12.3912C20.3192 11.9779 20.3519 11.5249 20.22 11.0976C20.0875 10.6685 19.7916 10.2753 19.3613 9.98857C18.9306 9.7015 18.3951 9.54202 17.8384 9.54337C17.3886 9.54545 16.9511 9.65339 16.5727 9.85182L16.2697 10.0107L16.0118 9.78579L13.8947 7.93894L13.4627 7.56215L13.8947 7.18537L15.5926 5.70419C15.7708 5.54875 15.855 5.35377 15.855 5.16752C15.855 4.98128 15.7708 4.7863 15.5926 4.63086L11.1496 0.755103C11.1496 0.755087 11.1495 0.755071 11.1495 0.755054C10.9691 0.597779 10.7116 0.5 10.4311 0.5C10.1506 0.5 9.89305 0.597779 9.71267 0.755054L12.8932 13.4192ZM12.8932 13.4192V17.587H7.96899V13.4192H9.69057H10.1906V12.9192V10.157V9.84516L9.91048 9.70799C9.8358 9.67142 9.76868 9.62741 9.71029 9.57792L8.01464 8.09877L7.68596 7.81206L7.35728 8.09877L5.24012 9.94562L4.90603 10.237L5.15537 10.6036C5.45345 11.0419 5.55256 11.5494 5.44689 12.0355C5.34077 12.5236 5.03011 12.9784 4.55018 13.3036C4.06915 13.6296 3.45872 13.7965 2.83428 13.7624C2.20983 13.7283 1.63168 13.4967 1.20559 13.125L0.884946 13.4926L1.20559 13.125C0.781041 12.7547 0.539908 12.2752 0.504564 11.7824C0.469274 11.2903 0.639585 10.7935 1.00298 10.3854C1.36821 9.97529 1.90423 9.68392 2.51771 9.58243L2.4361 9.08913L2.51771 9.58243C3.1312 9.48094 3.76321 9.57943 4.29186 9.85305L4.594 10.0094L4.85037 9.78579L6.96754 7.93894L7.39948 7.56215L6.96754 7.18537L5.26956 5.70419C5.26954 5.70418 5.26953 5.70416 5.26951 5.70414C5.0914 5.54871 5.00719 5.35375 5.00719 5.16752C5.00719 4.9813 5.0914 4.78634 5.26951 4.63091C5.26953 4.63089 5.26954 4.63087 5.26956 4.63086L9.71262 0.755103L12.8932 13.4192ZM5.00688 11.6273L5.00688 11.6267C5.00631 11.128 4.7784 10.6662 4.40133 10.3373C4.02642 10.0103 3.53103 9.83576 3.02626 9.83533H3.02582C2.64804 9.83533 2.27426 9.93279 1.95121 10.1211C1.62783 10.3096 1.36458 10.5841 1.20584 10.9184C1.04645 11.2541 1.00318 11.6284 1.08574 11.9905C1.16807 12.3515 1.36891 12.6725 1.64988 12.9176L1.96859 12.5523L1.64988 12.9176C1.93019 13.1621 2.27969 13.3225 2.6514 13.387C3.02313 13.4515 3.40901 13.4189 3.76251 13.2911L3.5926 12.8209L3.76251 13.2911C4.11609 13.1634 4.42886 12.9433 4.65421 12.6491C4.8804 12.3538 5.00688 11.9982 5.00688 11.6273ZM12.4122 14.2112V13.7112H11.9122H8.95004H8.45004V14.2112V16.7951V17.2951H8.95004H11.9122H12.4122V16.7951V14.2112ZM10.1024 9.42017L10.4311 9.70688L10.7598 9.42017L15.2029 5.54431L15.6349 5.16752L15.2029 4.79074L10.7598 0.914886L10.4311 0.628173L10.1024 0.914886L5.65925 4.79074L5.22731 5.16752L5.65925 5.54431L10.1024 9.42017ZM17.8364 13.4192H17.8368C18.3416 13.4188 18.837 13.2443 19.2119 12.9172C19.589 12.5883 19.8169 12.1265 19.8174 11.6278V11.6273C19.8174 11.2564 19.6909 10.9008 19.4648 10.6055L19.0678 10.9095L19.4648 10.6055C19.2394 10.3113 18.9266 10.0912 18.5731 9.96342C18.2196 9.8357 17.8337 9.80301 17.462 9.86751C17.0902 9.93201 16.7407 10.0924 16.4604 10.3369C16.1795 10.582 15.9786 10.903 15.8963 11.2641C15.8137 11.6261 15.857 12.0005 16.0164 12.3362C16.1751 12.6704 16.4384 12.945 16.7618 13.1335C17.0848 13.3218 17.4586 13.4192 17.8364 13.4192Z" stroke="white" stroke-opacity="0.5" />
</svg>