<svg width="21" height="19" viewBox="0 0 21 19" fill="none" xmlns="http://www.w3.org/2000/svg">
<path d="M4.14931 0.295914C4.29538 0.470239 4.37743 0.706545 4.37743 0.952926C4.37743 1.19931 4.29538 1.43561 4.14931 1.60994C3.32842 2.58839 2.67725 3.74999 2.23299 5.02842C1.78872 6.30685 1.56006 7.67706 1.56006 9.06082C1.56006 10.4446 1.78872 11.8148 2.23299 13.0932C2.67725 14.3717 3.32842 15.5333 4.14931 16.5117C4.29133 16.6871 4.36986 16.922 4.36798 17.1658C4.36611 17.4096 4.28399 17.6427 4.1393 17.815C3.99462 17.9873 3.79894 18.085 3.59443 18.087C3.38992 18.089 3.19292 17.9952 3.04588 17.8257C-1.01529 12.9849 -1.01529 5.13673 3.04588 0.295914C3.19213 0.121805 3.39038 0.0240101 3.59708 0.0240101C3.80378 0.0240101 4.00203 0.121805 4.14827 0.295914H4.14931ZM17.7535 0.295914C21.8146 5.13673 21.8146 12.9849 17.7535 17.827C17.6056 17.9912 17.41 18.0806 17.208 18.0764C17.0059 18.0721 16.8131 17.9745 16.6702 17.8042C16.5273 17.6338 16.4454 17.404 16.4419 17.1632C16.4383 16.9223 16.5133 16.6892 16.6511 16.5129C17.4721 15.5345 18.1234 14.3728 18.5678 13.0942C19.0121 11.8157 19.2409 10.4454 19.2409 9.06144C19.2409 7.67753 19.0121 6.30718 18.5678 5.02864C18.1234 3.75009 17.4721 2.58841 16.6511 1.60994C16.5744 1.52482 16.513 1.42218 16.4704 1.30813C16.4277 1.19408 16.4048 1.07097 16.4029 0.946136C16.4011 0.8213 16.4204 0.697299 16.4596 0.581531C16.4988 0.465763 16.5572 0.360599 16.6313 0.272313C16.7053 0.184027 16.7936 0.114428 16.8907 0.067667C16.9878 0.0209064 17.0919 -0.00205789 17.1966 0.000144691C17.3013 0.00234727 17.4046 0.0296715 17.5003 0.080487C17.596 0.131302 17.6821 0.204568 17.7535 0.295914ZM7.09042 3.80163C7.23649 3.97595 7.31853 4.21226 7.31853 4.45864C7.31853 4.70502 7.23649 4.94133 7.09042 5.11565C6.65568 5.63368 6.31082 6.24872 6.07553 6.92564C5.84025 7.60256 5.71915 8.3281 5.71915 9.06082C5.71915 9.79354 5.84025 10.5191 6.07553 11.196C6.31082 11.8729 6.65568 12.488 7.09042 13.006C7.2282 13.1822 7.3032 13.4153 7.29964 13.6562C7.29607 13.8971 7.21421 14.1269 7.0713 14.2972C6.9284 14.4676 6.7356 14.5652 6.53352 14.5694C6.33145 14.5736 6.13589 14.4842 5.98802 14.32C4.81789 12.9252 4.16053 11.0334 4.16053 9.06082C4.16053 7.08826 4.81789 5.19649 5.98802 3.80163C6.13427 3.62752 6.33252 3.52973 6.53922 3.52973C6.74592 3.52973 6.94417 3.62752 7.09042 3.80163ZM14.8124 3.80163C15.9825 5.19649 16.6399 7.08826 16.6399 9.06082C16.6399 11.0334 15.9825 12.9252 14.8124 14.32C14.7405 14.4089 14.6544 14.4797 14.5593 14.5285C14.4641 14.5773 14.3618 14.603 14.2582 14.6041C14.1547 14.6053 14.0519 14.5818 13.9561 14.5351C13.8602 14.4884 13.7731 14.4194 13.6998 14.3322C13.6265 14.2449 13.5686 14.1411 13.5293 14.0269C13.49 13.9127 13.4703 13.7902 13.4711 13.6668C13.472 13.5433 13.4934 13.4213 13.5343 13.3079C13.5751 13.1944 13.6345 13.0918 13.7089 13.006C14.1435 12.488 14.4882 11.873 14.7234 11.1962C14.9586 10.5194 15.0797 9.79401 15.0797 9.06144C15.0797 8.32887 14.9586 7.60347 14.7234 6.92666C14.4882 6.24986 14.1435 5.6349 13.7089 5.11689C13.5712 4.94065 13.4962 4.70753 13.4997 4.46667C13.5033 4.22581 13.5851 3.99599 13.7281 3.82565C13.871 3.65531 14.0638 3.55773 14.2658 3.55348C14.4679 3.54923 14.6635 3.63864 14.8113 3.80287L14.8124 3.80163ZM10.3997 7.20197C10.8134 7.20197 11.2102 7.39788 11.5028 7.7466C11.7953 8.09532 11.9597 8.56828 11.9597 9.06144C11.9597 9.5546 11.7953 10.0276 11.5028 10.3763C11.2102 10.725 10.8134 10.9209 10.3997 10.9209C9.98594 10.9209 9.58915 10.725 9.2966 10.3763C9.00404 10.0276 8.83969 9.5546 8.83969 9.06144C8.83969 8.56828 9.00404 8.09532 9.2966 7.7466C9.58915 7.39788 9.98594 7.20197 10.3997 7.20197Z" fill="black"/>
<path d="M6.81853 4.45864C6.81853 4.31928 6.7714 4.19952 6.70732 4.12294C6.6454 4.04936 6.58222 4.02973 6.53922 4.02973C6.49616 4.02973 6.43288 4.04941 6.37088 4.12322L6.81853 4.45864ZM6.81853 4.45864C6.81853 4.59811 6.77133 4.71796 6.70717 4.79453M6.81853 4.45864L6.70717 4.79453M6.70717 4.79453C6.23119 5.36178 5.85724 6.03074 5.60325 6.76148C5.3492 7.49238 5.21915 8.27349 5.21915 9.06082C5.21915 9.84815 5.3492 10.6293 5.60325 11.3602C5.85607 12.0875 6.22774 12.7537 6.70059 13.3193C6.7603 13.3984 6.80166 13.5157 6.79969 13.6488C6.79768 13.785 6.75091 13.9012 6.68825 13.9759C6.62757 14.0482 6.56553 14.0686 6.52301 14.0695C6.48201 14.0704 6.42358 14.0539 6.36438 13.9907L6.70717 4.79453ZM3.76542 0.617507L3.78094 0.635979C3.83739 0.712662 3.87743 0.824473 3.87743 0.952926C3.87743 1.09239 3.83022 1.21224 3.76607 1.28881L4.14922 1.60986L3.76627 1.28857C2.90403 2.31631 2.2237 3.53193 1.76069 4.86429C1.29767 6.19668 1.06006 7.62246 1.06006 9.06082C1.06006 10.4992 1.29767 11.925 1.76069 13.2574C2.22309 14.5879 2.90222 15.8021 3.76283 16.829C3.82481 16.907 3.86905 17.0256 3.868 17.162C3.86694 17.2999 3.81986 17.4179 3.7564 17.4935L4.1393 17.815L3.7564 17.4935C3.69502 17.5666 3.63233 17.5866 3.58953 17.587C3.54746 17.5874 3.48648 17.5693 3.42574 17.5006C-0.476311 12.8453 -0.475248 5.27095 3.42893 0.617273C3.49087 0.543657 3.55407 0.52401 3.59708 0.52401C3.64014 0.52401 3.70342 0.543699 3.76542 0.617507ZM17.3596 0.603858L17.3649 0.610659L17.3704 0.617273C21.2734 5.2695 21.2757 12.8407 17.3771 17.4976C17.3179 17.5609 17.2595 17.5773 17.2185 17.5765C17.176 17.5756 17.1139 17.5552 17.0532 17.4828C16.9906 17.4081 16.9438 17.2919 16.9418 17.1558C16.9398 17.0227 16.9812 16.9054 17.0409 16.8263C17.9001 15.8002 18.5782 14.5874 19.0401 13.2584C19.5032 11.9259 19.7409 10.5 19.7409 9.06144C19.7409 7.62292 19.5032 6.197 19.0401 4.86449C18.577 3.532 17.8965 2.3163 17.0341 1.28854L17.0285 1.28186L17.0227 1.27539C16.9906 1.23977 16.9608 1.1921 16.9387 1.13306C16.9166 1.07404 16.9039 1.00776 16.9029 0.938741C16.9019 0.869712 16.9126 0.802567 16.9331 0.742002C16.9537 0.68141 16.9825 0.631579 17.0143 0.59367C17.046 0.555914 17.0787 0.532067 17.1076 0.518173C17.136 0.504505 17.1623 0.499534 17.1861 0.500034C17.2099 0.500535 17.2367 0.506649 17.2657 0.522071C17.2952 0.537737 17.3282 0.563798 17.3596 0.603858ZM14.4397 4.13742L14.4608 4.1608C15.5294 5.45443 16.1399 7.21332 16.1399 9.06082C16.1399 10.9264 15.5174 12.7016 14.4293 13.9987L14.4293 13.9986L14.4237 14.0054C14.3926 14.0439 14.3601 14.0687 14.3312 14.0836L14.5593 14.5285L14.3312 14.0836C14.3027 14.0982 14.2763 14.1039 14.2528 14.1042C14.2292 14.1044 14.2031 14.0993 14.175 14.0856C14.1464 14.0716 14.114 14.0479 14.0827 14.0106C14.0513 13.9732 14.0227 13.9241 14.0022 13.8644C13.9816 13.8047 13.9706 13.7385 13.9711 13.6702C13.9716 13.602 13.9835 13.5362 14.0047 13.4772C14.0259 13.4182 14.055 13.3701 14.0866 13.3337L14.0866 13.3337L14.092 13.3274C14.5679 12.7601 14.9418 12.0911 15.1957 11.3603C15.4497 10.6296 15.5797 9.84861 15.5797 9.06144C15.5797 8.27427 15.4497 7.49331 15.1957 6.76254C14.943 6.03528 14.5715 5.36919 14.0988 4.80365C14.0391 4.72448 13.9977 4.60719 13.9997 4.47407C14.0017 4.33792 14.0484 4.2217 14.1111 4.14701C14.1718 4.07468 14.2338 4.05427 14.2763 4.05337C14.3184 4.05249 14.3789 4.06986 14.4397 4.13742ZM10.3997 7.70197C10.6496 7.70197 10.9114 7.81965 11.1197 8.06796C11.3302 8.31887 11.4597 8.67527 11.4597 9.06144C11.4597 9.44761 11.3302 9.80401 11.1197 10.0549C10.9114 10.3032 10.6496 10.4209 10.3997 10.4209C10.1497 10.4209 9.88797 10.3032 9.67965 10.0549C9.46915 9.80401 9.33969 9.44761 9.33969 9.06144C9.33969 8.67527 9.46915 8.31887 9.67965 8.06796C9.88797 7.81965 10.1497 7.70197 10.3997 7.70197Z" stroke="white" stroke-opacity="0.5"/>
</svg>
