<svg width="21" height="19" viewBox="0 0 21 19" fill="none" xmlns="http://www.w3.org/2000/svg">
<path d="M9.30853 13.5185L9.9354 12.3026C9.31616 11.7391 8.72982 11.1463 8.17882 10.5266C8.63892 9.96021 9.06761 9.37902 9.46489 8.783C10.5675 7.13081 11.4213 5.35064 12.0034 3.49048H14.254V2.22121H7.99613V0H6.60549V2.22121H0V3.49048H2.59744C3.27674 5.66153 4.32441 7.72207 5.70237 9.59719C6.01204 9.24809 6.31008 8.89054 6.59611 8.52502C5.49854 6.96096 4.64092 5.26703 4.04717 3.49048H10.5543C9.26247 7.35896 6.88019 10.202 5.0509 11.9437C2.9218 13.9709 1.05492 14.9924 1.03632 15.0024L1.10677 15.111L1.39063 15.5485L1.74437 16.0948C1.82577 16.051 3.764 14.995 6.02008 12.855C6.46566 12.4324 6.89212 11.997 7.29946 11.5488C7.92847 12.239 8.59921 12.8966 9.30853 13.5185Z" fill="white" fill-opacity="0.5"/>
<path d="M13.8072 7.29828L13.5585 7.79472L8.40356 18.087H9.93261L11.5219 14.9139H17.6811L19.2703 18.087H20.7994L15.3958 7.29828H13.8072ZM13.5585 13.6446H12.1576L13.5585 10.8476L14.6015 8.76523L17.0453 13.6446H13.5585Z" fill="white" fill-opacity="0.5"/>
</svg>
