<svg width="18" height="18" viewBox="0 0 18 18" xmlns="http://www.w3.org/2000/svg">
<path d="M2.29036 15.0547H4.33583C5.39948 15.0547 6.38131 14.6456 7.11768 13.9092L15.545 5.48187C16.7723 4.25459 16.7723 2.20911 15.545 0.981828C14.9723 0.327276 14.1541 0 13.3359 0C12.5177 0 11.6995 0.327276 11.045 0.900009L2.61763 9.40918C1.88126 10.1456 1.47217 11.2092 1.47217 12.2728V14.3183C1.47217 14.7274 1.88126 15.0547 2.29036 15.0547ZM3.10855 12.191C3.10855 11.5365 3.354 10.9637 3.7631 10.5546L10.4723 3.84549L11.6177 4.90914C11.7814 5.07278 12.0268 5.1546 12.1905 5.1546C12.4359 5.1546 12.5995 5.07278 12.7632 4.90914C13.0905 4.58186 13.0905 4.09095 12.7632 3.76367L11.6177 2.61821L12.1905 2.04547C12.5177 1.80002 12.9268 1.63638 13.3359 1.63638C13.745 1.63638 14.1541 1.80002 14.3996 2.12729C14.9723 2.70003 14.9723 3.76367 14.3996 4.33641L5.97221 12.7638C5.56312 13.1729 4.90857 13.4183 4.33583 13.4183H3.10855V12.191Z" fill="#E15561"/>
<path d="M17.182 16.3633H0.81819C0.327276 16.3633 0 16.6906 0 17.1815C0 17.6724 0.327276 17.9997 0.81819 17.9997H17.182C17.6729 17.9997 18.0002 17.6724 18.0002 17.1815C18.0002 16.6906 17.6729 16.3633 17.182 16.3633Z" fill="#E15561"/>
</svg>
