<svg width="20" height="24" viewBox="0 0 20 24" fill="none" xmlns="http://www.w3.org/2000/svg">
    <g opacity="0.5">
        <path d="M18.624 16.8323C17.3229 15.2399 16.4043 14.4292 16.4043 10.0389C16.4043 6.01851 14.3513 4.58616 12.6615 3.8905C12.4371 3.79829 12.2258 3.5865 12.1574 3.35597C11.861 2.34719 11.0301 1.4585 9.92553 1.4585C8.82099 1.4585 7.98955 2.3477 7.69619 3.35698C7.62779 3.59005 7.41651 3.79829 7.19205 3.8905C5.50029 4.58717 3.44929 6.01446 3.44929 10.0389C3.44676 14.4292 2.52817 15.2399 1.22705 16.8323C0.687953 17.492 1.16017 18.4825 2.10308 18.4825H17.753C18.6909 18.4825 19.1601 17.489 18.624 16.8323Z" stroke="black" stroke-width="1.62134" stroke-linecap="round" stroke-linejoin="round" />
        <path d="M13.1682 18.4826V19.2933C13.1682 20.1533 12.8266 20.9781 12.2185 21.5862C11.6103 22.1943 10.7855 22.5359 9.92554 22.5359C9.06553 22.5359 8.24074 22.1943 7.63262 21.5862C7.0245 20.9781 6.68286 20.1533 6.68286 19.2933V18.4826" stroke="black" stroke-width="1.62134" stroke-linecap="round" stroke-linejoin="round" />
    </g>
</svg>
    