<svg width="16" height="15" viewBox="0 0 16 15" fill="none" xmlns="http://www.w3.org/2000/svg">
<g clip-path="url(#clip0_1_264)">
<path d="M11.4521 1.875H13.9668C14.1336 1.875 14.2935 1.94085 14.4114 2.05806C14.5293 2.17527 14.5955 2.33424 14.5955 2.5V12.5C14.5955 12.6658 14.5293 12.8247 14.4114 12.9419C14.2935 13.0592 14.1336 13.125 13.9668 13.125H2.65065C2.48391 13.125 2.32401 13.0592 2.20611 12.9419C2.08821 12.8247 2.02197 12.6658 2.02197 12.5V2.5C2.02197 2.33424 2.08821 2.17527 2.20611 2.05806C2.32401 1.94085 2.48391 1.875 2.65065 1.875H5.16536V0.625H6.42271V1.875H10.1948V0.625H11.4521V1.875ZM10.1948 3.125H6.42271V4.375H5.16536V3.125H3.27933V5.625H13.3382V3.125H11.4521V4.375H10.1948V3.125ZM13.3382 6.875H3.27933V11.875H13.3382V6.875ZM4.53668 8.75H5.79403V10H4.53668V8.75ZM7.05138 8.75H12.0808V10H7.05138V8.75Z" fill="#222"/>
</g>
<defs>
<clipPath id="clip0_1_264">
<rect width="15.0882" height="15" fill="white" transform="translate(0.764648)"/>
</clipPath>
</defs>
</svg>
