<svg width="15" height="14" viewBox="0 0 15 14" fill="none" xmlns="http://www.w3.org/2000/svg">
<path d="M1.88954 10.7853L10.7854 1.8894C10.9007 1.77408 11.0572 1.70929 11.2202 1.70929C11.3833 1.70929 11.5397 1.77408 11.655 1.8894C11.7704 2.00471 11.8351 2.16112 11.8351 2.3242C11.8351 2.48728 11.7704 2.64369 11.655 2.759L2.75915 11.6549C2.64383 11.7702 2.48743 11.835 2.32434 11.835C2.16126 11.835 2.00486 11.7702 1.88954 11.6549C1.77422 11.5396 1.70944 11.3832 1.70944 11.2201C1.70944 11.057 1.77422 10.9006 1.88954 10.7853Z" fill="black" stroke="black" stroke-width="0.0282574"/>
<path d="M2.75884 1.8896L11.6547 10.7855C11.77 10.9008 11.8348 11.0572 11.8348 11.2203C11.8348 11.3834 11.77 11.5398 11.6547 11.6551C11.5394 11.7704 11.383 11.8352 11.2199 11.8352C11.0568 11.8352 10.9004 11.7704 10.7851 11.6551L1.88923 2.75921C1.77391 2.64389 1.70913 2.48749 1.70913 2.3244C1.70913 2.16132 1.77391 2.00492 1.88923 1.8896C2.00455 1.77428 2.16095 1.7095 2.32404 1.7095C2.48712 1.7095 2.64352 1.77428 2.75884 1.8896Z" fill="black" stroke="black" stroke-width="0.0282574"/>
</svg>
