<svg width="21" height="25" viewBox="0 0 21 25" fill="none" xmlns="http://www.w3.org/2000/svg">
<path d="M7.45166 8.80632C7.45166 7.12275 8.81652 5.75793 10.5 5.75793C12.1836 5.75793 13.5484 7.12275 13.5484 8.80632C13.5484 10.4898 12.1836 11.8547 10.5 11.8547C8.81652 11.8547 7.45166 10.4898 7.45166 8.80632Z" fill="black"/>
<path fill-rule="evenodd" clip-rule="evenodd" d="M10.2806 0C5.94191 0 2.32853 3.3278 1.9721 7.65182C1.7805 9.97635 2.49852 12.2845 3.97496 14.0902L8.84539 20.0465C9.70056 21.0924 11.2995 21.0924 12.1549 20.0465L17.0251 14.0902C18.5016 12.2845 19.2197 9.97635 19.0279 7.65182C18.6716 3.3278 15.0581 0 10.7195 0H10.2806ZM10.5 3.72581C7.69408 3.72581 5.4194 6.00049 5.4194 8.80645C5.4194 11.6125 7.69408 13.8871 10.5 13.8871C13.3061 13.8871 15.5807 11.6125 15.5807 8.80645C15.5807 6.00049 13.3061 3.72581 10.5 3.72581Z" fill="black"/>
<path d="M4.18024 17.3813C4.68218 17.6323 4.88563 18.2426 4.63466 18.7446L2.66027 22.6934H18.3398L16.3654 18.7446C16.1143 18.2426 16.3178 17.6323 16.8198 17.3813C17.3218 17.1303 17.9321 17.3338 18.183 17.8358L20.8927 23.2551C21.0503 23.5701 21.0333 23.9442 20.8483 24.2437C20.6631 24.5433 20.336 24.7257 19.9839 24.7257H1.01613C0.663968 24.7257 0.33691 24.5433 0.151758 24.2437C-0.0333811 23.9442 -0.050222 23.5701 0.107278 23.2551L2.81696 17.8358C3.06793 17.3338 3.6783 17.1303 4.18024 17.3813Z" fill="black"/>
</svg>
