<svg width="11" height="14" viewBox="0 0 11 14" fill="none" xmlns="http://www.w3.org/2000/svg">
<path d="M5.5 0C2.4673 0 0 2.44569 0 5.45138C0 9.60077 4.7608 13.636 4.9643 13.8062C5.1183 13.9354 5.3086 14 5.5 14C5.6914 14 5.8817 13.9354 6.0357 13.8062C6.2392 13.636 11 9.60077 11 5.45138C11 2.44569 8.5327 0 5.5 0ZM5.5 7.53846C4.2867 7.53846 3.3 6.57246 3.3 5.38462C3.3 4.19677 4.2867 3.23077 5.5 3.23077C6.7133 3.23077 7.7 4.19677 7.7 5.38462C7.7 6.57246 6.7133 7.53846 5.5 7.53846Z" fill="#222"/>
</svg>
