<svg width="24" height="24" viewBox="0 0 24 24" fill="none" xmlns="http://www.w3.org/2000/svg">
<path fill-rule="evenodd" clip-rule="evenodd" d="M0 5.09091C0 2.3066 2.3066 0 5.09091 0H18.9091C21.6934 0 24 2.3066 24 5.09091V13.9394C24 16.7237 21.6934 19.0303 18.9091 19.0303H9.93938C8.80521 19.0303 7.83213 19.338 7.07879 19.903L7.06588 19.9126L1.73255 23.7913C1.40072 24.0327 0.961516 24.0674 0.595876 23.8812C0.230236 23.695 0 23.3194 0 22.9091V5.09091ZM2.18182 20.7668L5.77642 18.1525C6.96123 17.2665 8.40981 16.8484 9.93938 16.8484H18.9091C20.4884 16.8484 21.8182 15.5187 21.8182 13.9394V5.09091C21.8182 3.51158 20.4884 2.18182 18.9091 2.18182H5.09091C3.51158 2.18182 2.18182 3.51158 2.18182 5.09091V20.7668Z" fill="black"/>
<path fill-rule="evenodd" clip-rule="evenodd" d="M5.45459 6.54545C5.45459 5.94297 5.943 5.45454 6.5455 5.45454H17.4546C18.0571 5.45454 18.5455 5.94297 18.5455 6.54545C18.5455 7.14794 18.0571 7.63636 17.4546 7.63636H6.5455C5.943 7.63636 5.45459 7.14794 5.45459 6.54545Z" fill="black"/>
<path fill-rule="evenodd" clip-rule="evenodd" d="M5.45459 12C5.45459 11.3975 5.943 10.9091 6.5455 10.9091H12C12.6026 10.9091 13.091 11.3975 13.091 12C13.091 12.6025 12.6026 13.0909 12 13.0909H6.5455C5.943 13.0909 5.45459 12.6025 5.45459 12Z" fill="black"/>
</svg>
