<svg width="28" height="28" viewBox="0 0 28 28" fill="none" xmlns="http://www.w3.org/2000/svg">
<path fill-rule="evenodd" clip-rule="evenodd" d="M14 2.12658C9.34571 2.12658 5.73496 5.00459 5.11873 8.50633H8.25641C8.85117 8.50633 9.33333 8.98239 9.33333 9.56962V19.4937C9.33333 20.0809 8.85117 20.557 8.25641 20.557H3.94872C1.76791 20.557 0 18.8115 0 16.6582V12.4051C0 10.6022 1.23934 9.08521 2.92273 8.63923C3.47046 3.67132 8.36238 0 14 0C19.6376 0 24.5296 3.67132 25.0772 8.63924C26.7607 9.08521 28 10.6022 28 12.4051V16.6582C28 18.4661 26.7538 19.9866 25.0632 20.4278C24.6025 23.7049 21.7536 26.2278 18.3077 26.2278H16.663C16.237 27.267 15.2051 28 14 28C12.4139 28 11.1282 26.7306 11.1282 25.1646C11.1282 23.5985 12.4139 22.3291 14 22.3291C15.2051 22.3291 16.237 23.0621 16.663 24.1013H18.3077C20.5144 24.1013 22.3634 22.5891 22.8496 20.557H19.7436C19.1488 20.557 18.6667 20.0809 18.6667 19.4937V9.56962C18.6667 8.98239 19.1488 8.50633 19.7436 8.50633H22.8813C22.265 5.00459 18.6543 2.12658 14 2.12658ZM3.94872 10.6329C2.95743 10.6329 2.15385 11.4263 2.15385 12.4051V16.6582C2.15385 17.637 2.95743 18.4304 3.94872 18.4304H7.17949V10.6329H3.94872ZM25.8462 12.4051C25.8462 11.4263 25.0426 10.6329 24.0513 10.6329H20.8205V18.4304H24.0513C25.0426 18.4304 25.8462 17.637 25.8462 16.6582V12.4051Z" fill="black"/>
</svg>
