<svg width="22" height="22" viewBox="0 0 22 22" fill="none" xmlns="http://www.w3.org/2000/svg">
<path d="M4.00289 21.3103C3.13276 21.3103 2.28267 21.0883 1.51224 20.6556C1.11585 20.4515 0.962315 19.9408 1.19912 19.5566C1.98592 18.2993 2.27003 16.7624 1.9098 15.3171C1.53641 13.8187 0.996153 12.5568 1.00002 10.9706C1.01343 5.4055 5.64545 0.893941 11.2048 1.0019C16.5746 1.11006 20.9999 5.62393 21 10.9951C21.0001 18.0098 13.6485 22.9348 7.15839 20.226C6.26383 20.9281 5.13942 21.3103 4.00289 21.3103ZM2.94558 19.5976C4.16815 19.9773 5.54316 19.674 6.48594 18.7625C6.71823 18.5379 7.06571 18.4814 7.35717 18.6208C12.9136 21.2774 19.4531 17.1134 19.453 10.9951C19.453 6.42949 15.7389 2.6404 11.1737 2.54849C6.46905 2.45503 2.55827 6.26532 2.54693 10.9743C2.54326 12.4809 3.13108 13.685 3.45232 15.1122C3.79077 16.6163 3.61249 18.2067 2.94558 19.5976Z" fill="#fff" fill-opacity="0.7"/>
<path d="M1.07197 19.477H1.07196L1.07143 19.4778C0.787639 19.9383 0.971641 20.5441 1.44105 20.7877C2.23316 21.232 3.10771 21.4603 4.00289 21.4603C5.14315 21.4603 6.27161 21.0867 7.18133 20.3977C13.7507 23.0738 21.1501 18.0874 21.15 10.9951C21.1499 5.54224 16.6592 0.961731 11.2079 0.851932L11.2078 0.85193C5.5649 0.742348 0.86363 5.32094 0.850021 10.9702C0.848044 11.781 0.985257 12.5067 1.16821 13.2143C1.25232 13.5397 1.34647 13.8625 1.44117 14.1872C1.4493 14.2151 1.45744 14.243 1.46557 14.2709C1.56867 14.6247 1.67169 14.982 1.76425 15.3534L1.90964 15.3172L1.76425 15.3534C2.11396 16.7565 1.83869 18.2518 1.07197 19.477ZM3.15563 19.5012C3.77534 18.1189 3.93148 16.5583 3.59866 15.0793L3.59866 15.0793C3.49207 14.6057 3.35492 14.1513 3.2213 13.7086C3.15246 13.4805 3.08455 13.2556 3.02224 13.0327C2.83715 12.3705 2.69514 11.708 2.69693 10.9747C2.70807 6.34984 6.54963 2.60666 11.1707 2.69846C15.6543 2.78875 19.303 6.51119 19.303 10.9951C19.3031 17.0037 12.8782 21.0942 7.42187 18.4855C7.07387 18.319 6.65902 18.3865 6.38168 18.6547C5.52158 19.4862 4.28422 19.7897 3.15563 19.5012Z" stroke="white" stroke-opacity="0.7" stroke-width="0.3"/>
<path d="M10.9995 12.2566C11.6754 12.2566 12.2234 11.709 12.2234 11.0334C12.2234 10.3579 11.6754 9.81021 10.9995 9.81021C10.3236 9.81021 9.77563 10.3579 9.77563 11.0334C9.77563 11.709 10.3236 12.2566 10.9995 12.2566Z" fill="#fff" fill-opacity="0.7"/>
<path d="M10.9995 12.4066C11.7582 12.4066 12.3734 11.7919 12.3734 11.0334C12.3734 10.2749 11.7582 9.66021 10.9995 9.66021C10.2408 9.66021 9.62563 10.2749 9.62563 11.0334C9.62563 11.7919 10.2408 12.4066 10.9995 12.4066Z" stroke="white" fill-opacity="0.7"/>
<path d="M6.49095 12.2567C7.16687 12.2567 7.71481 11.709 7.71481 11.0335C7.71481 10.3579 7.16687 9.81026 6.49095 9.81026C5.81503 9.81026 5.26709 10.3579 5.26709 11.0335C5.26709 11.709 5.81503 12.2567 6.49095 12.2567Z" fill="#fff" fill-opacity="0.7"/>
<path d="M6.49095 12.4067C7.24964 12.4067 7.86481 11.792 7.86481 11.0335C7.86481 10.275 7.24964 9.66026 6.49095 9.66026C5.73226 9.66026 5.11709 10.275 5.11709 11.0335C5.11709 11.792 5.73226 12.4067 6.49095 12.4067Z" stroke="white" fill-opacity="0.7"/>
<path d="M15.5091 12.2566C16.1851 12.2566 16.733 11.709 16.733 11.0334C16.733 10.3579 16.1851 9.81021 15.5091 9.81021C14.8332 9.81021 14.2853 10.3579 14.2853 11.0334C14.2853 11.709 14.8332 12.2566 15.5091 12.2566Z" fill="#fff" fill-opacity="0.7"/>
<path d="M15.5091 12.4066C16.2678 12.4066 16.883 11.7919 16.883 11.0334C16.883 10.2749 16.2678 9.66021 15.5091 9.66021C14.7505 9.66021 14.1353 10.2749 14.1353 11.0334C14.1353 11.7919 14.7505 12.4066 15.5091 12.4066Z" stroke="white" fill-opacity="0.7"/>
</svg>
