<svg width="20" height="20" viewBox="0 0 20 20" fill="none" xmlns="http://www.w3.org/2000/svg">
<path d="M15.7 0H5.2C4.6 0 4.2 0.4 4.2 1C4.2 1.6 4.6 2 5.2 2H15.7C17 2 18 3 18 4.3V15.8C18 17.1 17 18.1 15.7 18.1H14.7L6.8 0.6C6.7 0.2 6.3 0 5.9 0H4.3C1.9 0 0 1.9 0 4.3V15.8C0 18.1 1.9 20 4.3 20H14.1H15.7C18.1 20 20 18.1 20 15.7V4.3C20 1.9 18.1 0 15.7 0ZM4.3 2H5.3L8.7 9.5L2 12.9V4.3C2 3 3 2 4.3 2ZM4.3 18C3 18 2 17 2 15.7V15.1L9.5 11.3L12.5 18H4.3Z" fill="#fff" fill-opacity="0.7" stroke-width="0.1"/>
</svg>
