<svg width="23" height="20" viewBox="0 0 23 20" fill="none" xmlns="http://www.w3.org/2000/svg">
    <path d="M16.015 0.95C14.2349 0.95 12.6609 1.66889 11.5 3.00433C10.3391 1.66889 8.76513 0.95 6.985 0.95C3.70282 0.95 0.95 3.67716 0.95 6.93064V6.93186V6.93308V6.9343V6.93552V6.93674V6.93796V6.93918V6.94039V6.94161V6.94283V6.94405V6.94527V6.94649V6.94771V6.94893V6.95015V6.95137V6.95259V6.95381V6.95503V6.95624V6.95746V6.95868V6.9599V6.96112V6.96234V6.96356V6.96478V6.966V6.96722V6.96844V6.96966V6.97088V6.9721V6.97332V6.97453V6.97575V6.97697V6.97819V6.97941V6.98063V6.98185V6.98307V6.98429V6.98551V6.98673V6.98795V6.98917V6.99039V6.9916V6.99282V6.99404V6.99526V6.99648V6.9977V6.99892V7.00014V7.00136V7.00258V7.0038V7.00502V7.00624V7.00745V7.00867V7.00989V7.01111V7.01233V7.01355V7.01477V7.01599V7.01721V7.01843V7.01965V7.02087V7.02209V7.02331V7.02453V7.02574V7.02696V7.02818V7.0294V7.03062V7.03184V7.03306V7.03428V7.0355V7.03672V7.03794V7.03916V7.04038V7.04159V7.04281V7.04403V7.04525V7.04647V7.04769V7.04891V7.05013V7.05135V7.05257V7.05379V7.05501V7.05623V7.05745V7.05867V7.05988V7.0611V7.06232V7.06354V7.06476V7.06598V7.0672V7.06842V7.06964V7.07086V7.07208V7.0733V7.07452V7.07574V7.07695V7.07817V7.07939V7.08061V7.08183V7.08305V7.08427V7.08549V7.08671V7.08793V7.08915V7.09037V7.09159V7.09281V7.09402V7.09524V7.09646V7.09768V7.0989V7.10012V7.10134V7.10256V7.10378V7.105V7.10622V7.10744V7.10866V7.10988V7.11109V7.11231V7.11353V7.11475V7.11597V7.11719V7.11841V7.11963V7.12085V7.12207V7.12329V7.12451V7.12573V7.12695V7.12817V7.12938V7.1306V7.13182V7.13304V7.13426V7.13548V7.1367V7.13792V7.13914V7.14036V7.14158V7.1428V7.14402V7.14524V7.14646V7.14767V7.14889V7.15011V7.15133V7.15255V7.15377V7.15499V7.15621V7.15743V7.15865V7.15987V7.16109V7.16231V7.16353V7.16474V7.16596V7.16718V7.1684V7.16962V7.17084V7.17206V7.17328V7.1745V7.17572V7.17694V7.17816V7.17938V7.1806V7.18182V7.18303V7.18425V7.18547V7.18669V7.18791V7.18913V7.19035V7.19157V7.19279V7.19401V7.19523V7.19645V7.19767V7.19889V7.20011V7.20132V7.20254V7.20376V7.20498V7.2062V7.20742V7.20864V7.20986V7.21108V7.2123V7.21352V7.21474V7.21596V7.21718V7.2184V7.21961V7.22083V7.22205V7.22327V7.22449V7.22571V7.22693V7.22815V7.22937V7.23059V7.23181V7.23303V7.23425V7.23547V7.23669V7.23791V7.23912V7.24034V7.24156V7.24278V7.244V7.24522V7.24644V7.24766V7.24888V7.2501V7.25132V7.25254V7.25376V7.25498V7.2562V7.25741V7.25863V7.25985V7.26107V7.26229V7.26351V7.26473V7.26595V7.26717V7.26839V7.26961V7.27083V7.27205V7.27327V7.27449V7.27571V7.27693V7.27814V7.27936V7.28058V7.2818V7.28302V7.28424V7.28546V7.28668V7.2879V7.28912V7.29034V7.29156V7.29278V7.294V7.29522V7.29643V7.29765V7.29887V7.30009V7.30131V7.30253V7.30375V7.30497V7.30619V7.30741V7.30863V7.30985V7.31107V7.31229V7.31351V7.31473V7.31595V7.31716V7.31838V7.3196V7.32082V7.32204V7.32326V7.32448V7.3257V7.32692V7.32814V7.32936V7.33058V7.3318V7.33302V7.33424V7.33546V7.33668V7.33789V7.33911V7.34033V7.34155V7.34277V7.34399V7.34521V7.34643V7.34765V7.34887V7.35009V7.35131V7.35253V7.35375V7.35497V7.35619V7.35741V7.35862V7.35984V7.36106V7.36228V7.3635V7.36472V7.36594V7.36716V7.36838V7.3696V7.37082V7.37204V7.37326V7.37448V7.3757V7.37692V7.37814V7.37935V7.38057V7.38179V7.38301V7.38423V7.38545V7.38667V7.38789V7.38911V7.39033V7.39155V7.39277V7.39399V7.39521V7.39643V7.39765V7.39887V7.40009V7.40131V7.40252V7.40374V7.40496V7.40618V7.4074V7.40862V7.40984V7.41106V7.41228V7.4135V7.41472V7.41594V7.41716V7.41838V7.4196V7.42082V7.42204V7.42326V7.42447V7.42569V7.42691V7.42813V7.42935V7.43057V7.43179V7.43301V7.43423V7.43545V7.43667V7.43789V7.43911V7.44033V7.44155V7.44277V7.44399V7.44521V7.44643V7.44765V7.44886V7.45008V7.4513V7.45252V7.45374V7.45496V7.45618V7.4574V7.45862V7.45984V7.46106V7.46228V7.4635V7.46472V7.46594V7.46716V7.46838V7.4696V7.47082V7.47203V7.47325V7.47447V7.47569V7.47691V7.47813V7.47935V7.48057V7.48179V7.48301V7.48423V7.48545V7.48667V7.48789V7.48911V7.49033V7.49155V7.49277V7.49399V7.49521V7.49643V7.49765V7.49886V7.50008V7.5013V7.50252V7.50374V7.50496V7.50618V7.5074V7.50862V7.50984V7.51106V7.51228V7.5135V7.51472V7.51594V7.51716V7.51838V7.5196V7.52082V7.52204V7.52326V7.52448V7.52569V7.52691V7.52813V7.52935V7.53057V7.53179V7.53301V7.53423V7.53545V7.53667V7.53789V7.53911V7.54033V7.54155V7.54277V7.54399V7.54521V7.54643V7.54765V7.54887V7.55009V7.55131V7.55253V7.55374V7.55496H0.949816L0.950183 7.55924C1.16157 10.0204 2.58765 12.2676 4.33655 14.1439C6.08609 16.0209 8.1636 17.5322 9.68777 18.5217L9.68775 18.5218L9.68945 18.5228C10.2206 18.8386 10.8594 19.05 11.5 19.05C12.1406 19.05 12.7794 18.8386 13.3106 18.5228L13.3106 18.5228L13.3122 18.5217C14.8364 17.5322 16.9138 16.021 18.6633 14.157C20.4121 12.2939 21.8384 10.0727 22.0498 7.66331L22.05 7.66333V7.65894V7.65772V7.6565V7.65528V7.65406V7.65285V7.65163V7.65041V7.64919V7.64797V7.64675V7.64553V7.64431V7.64309V7.64187V7.64065V7.63944V7.63822V7.637V7.63578V7.63456V7.63334V7.63212V7.6309V7.62968V7.62846V7.62724V7.62603V7.62481V7.62359V7.62237V7.62115V7.61993V7.61871V7.61749V7.61627V7.61505V7.61383V7.61261V7.6114V7.61018V7.60896V7.60774V7.60652V7.6053V7.60408V7.60286V7.60164V7.60042V7.5992V7.59799V7.59677V7.59555V7.59433V7.59311V7.59189V7.59067V7.58945V7.58823V7.58701V7.58579V7.58457V7.58336V7.58214V7.58092V7.5797V7.57848V7.57726V7.57604V7.57482V7.5736V7.57238V7.57116V7.56994V7.56873V7.56751V7.56629V7.56507V7.56385V7.56263V7.56141V7.56019V7.55897V7.55775V7.55653V7.55531V7.55409V7.55288V7.55166V7.55044V7.54922V7.548V7.54678V7.54556V7.54434V7.54312V7.5419V7.54068V7.53946V7.53825V7.53703V7.53581V7.53459V7.53337V7.53215V7.53093V7.52971V7.52849V7.52727V7.52605V7.52483V7.52361V7.5224V7.52118V7.51996V7.51874V7.51752V7.5163V7.51508V7.51386V7.51264V7.51142V7.5102V7.50898V7.50777V7.50655V7.50533V7.50411V7.50289V7.50167V7.50045V7.49923V7.49801V7.49679V7.49557V7.49435V7.49313V7.49192V7.4907V7.48948V7.48826V7.48704V7.48582V7.4846V7.48338V7.48216V7.48094V7.47972V7.4785V7.47728V7.47607V7.47485V7.47363V7.47241V7.47119V7.46997V7.46875V7.46753V7.46631V7.46509V7.46387V7.46265V7.46143V7.46022V7.459V7.45778V7.45656V7.45534V7.45412V7.4529V7.45168V7.45046V7.44924V7.44802V7.4468V7.44558V7.44437V7.44315V7.44193V7.44071V7.43949V7.43827V7.43705V7.43583V7.43461V7.43339V7.43217V7.43095V7.42973V7.42851V7.4273V7.42608V7.42486V7.42364V7.42242V7.4212V7.41998V7.41876V7.41754V7.41632V7.4151V7.41388V7.41266V7.41144V7.41023V7.40901V7.40779V7.40657V7.40535V7.40413V7.40291V7.40169V7.40047V7.39925V7.39803V7.39681V7.39559V7.39437V7.39316V7.39194V7.39072V7.3895V7.38828V7.38706V7.38584V7.38462V7.3834V7.38218V7.38096V7.37974V7.37852V7.37731V7.37609V7.37487V7.37365V7.37243V7.37121V7.36999V7.36877V7.36755V7.36633V7.36511V7.36389V7.36267V7.36145V7.36023V7.35902V7.3578V7.35658V7.35536V7.35414V7.35292V7.3517V7.35048V7.34926V7.34804V7.34682V7.3456V7.34438V7.34316V7.34195V7.34073V7.33951V7.33829V7.33707V7.33585V7.33463V7.33341V7.33219V7.33097V7.32975V7.32853V7.32731V7.32609V7.32488V7.32366V7.32244V7.32122V7.32V7.31878V7.31756V7.31634V7.31512V7.3139V7.31268V7.31146V7.31024V7.30902V7.30781V7.30659V7.30537V7.30415V7.30293V7.30171V7.30049V7.29927V7.29805V7.29683V7.29561V7.29439V7.29317V7.29195V7.29073V7.28952V7.2883V7.28708V7.28586V7.28464V7.28342V7.2822V7.28098V7.27976V7.27854V7.27732V7.2761V7.27488V7.27366V7.27245V7.27123V7.27001V7.26879V7.26757V7.26635V7.26513V7.26391V7.26269V7.26147V7.26025V7.25903V7.25781V7.25659V7.25537V7.25416V7.25294V7.25172V7.2505V7.24928V7.24806V7.24684V7.24562V7.2444V7.24318V7.24196V7.24074V7.23952V7.2383V7.23708V7.23587V7.23465V7.23343V7.23221V7.23099V7.22977V7.22855V7.22733V7.22611V7.22489V7.22367V7.22245V7.22123V7.22001V7.2188V7.21758V7.21636V7.21514V7.21392V7.2127V7.21148V7.21026V7.20904V7.20782V7.2066V7.20538V7.20416V7.20294V7.20173V7.20051V7.19929V7.19807V7.19685V7.19563V7.19441V7.19319V7.19197V7.19075V7.18953V7.18831V7.18709V7.18587V7.18465V7.18343V7.18222V7.181V7.17978V7.17856V7.17734V7.17612V7.1749V7.17368V7.17246V7.17124V7.17002V7.1688V7.16758V7.16636V7.16515V7.16393V7.16271V7.16149V7.16027V7.15905V7.15783V7.15661V7.15539V7.15417V7.15295V7.15173V7.15051V7.14929V7.14808V7.14686V7.14564V7.14442V7.1432V7.14198V7.14076V7.13954V7.13832V7.1371V7.13588V7.13466V7.13344V7.13222V7.131V7.12979V7.12857V7.12735V7.12613V7.12491V7.12369V7.12247V7.12125V7.12003V7.11881V7.11759V7.11637V7.11515V7.11393V7.11272V7.1115V7.11028V7.10906V7.10784V7.10662V7.1054V7.10418V7.10296V7.10174V7.10052V7.0993V7.09808V7.09686V7.09564V7.09443V7.09321V7.09199V7.09077V7.08955V7.08833V7.08711V7.08589V7.08467V7.08345V7.08223V7.08101V7.07979V7.07857V7.07736V7.07614V7.07492V7.0737V7.07248V7.07126V7.07004V7.06882V7.0676V7.06638V7.06516V7.06394V7.06272V7.0615V7.06029V7.05907V7.05785V7.05663V7.05541V7.05419V7.05297V7.05175V7.05053V7.04931V7.04809V7.04687V7.04565V7.04443V7.04322V7.042V7.04078V7.03956V7.03834V7.03712V7.0359V7.03468C22.05 3.67772 19.2977 0.95 16.015 0.95ZM19.85 7.34436V7.34491C19.6932 9.40677 18.3131 11.3721 16.6884 12.995C15.0656 14.616 13.2067 15.8877 12.1058 16.5631C11.7014 16.7628 11.2994 16.7629 10.895 16.5635C9.79333 15.8356 7.96077 14.5381 6.35124 12.9042C4.73977 11.2685 3.3591 9.30284 3.15 7.24025V7.24011V7.23995V7.23979V7.23963V7.23946V7.23929V7.23911V7.23893V7.23874V7.23855V7.23836V7.23816V7.23796V7.23775V7.23754V7.23733V7.23711V7.23689V7.23666V7.23643V7.23619V7.23595V7.23571V7.23546V7.23521V7.23496V7.2347V7.23444V7.23417V7.2339V7.23363V7.23335V7.23307V7.23278V7.23249V7.2322V7.2319V7.2316V7.23129V7.23099V7.23067V7.23036V7.23004V7.22971V7.22939V7.22906V7.22872V7.22838V7.22804V7.2277V7.22735V7.22699V7.22664V7.22628V7.22591V7.22555V7.22518V7.2248V7.22443V7.22404V7.22366V7.22327V7.22288V7.22249V7.22209V7.22169V7.22128V7.22087V7.22046V7.22005V7.21963V7.21921V7.21878V7.21836V7.21792V7.21749V7.21705V7.21661V7.21617V7.21572V7.21527V7.21481V7.21436V7.2139V7.21343V7.21297V7.2125V7.21203V7.21155V7.21107V7.21059V7.2101V7.20962V7.20913V7.20863V7.20813V7.20763V7.20713V7.20663V7.20612V7.20561V7.20509V7.20457V7.20405V7.20353V7.20301V7.20248V7.20195V7.20141V7.20087V7.20033V7.19979V7.19925V7.1987V7.19815V7.19759V7.19704V7.19648V7.19592V7.19535V7.19479V7.19422V7.19365V7.19307V7.19249V7.19192V7.19133V7.19075V7.19016V7.18957V7.18898V7.18838V7.18779V7.18719V7.18659V7.18598V7.18537V7.18476V7.18415V7.18354V7.18292V7.1823V7.18168V7.18106V7.18043V7.17981V7.17918V7.17854V7.17791V7.17727V7.17663V7.17599V7.17535V7.1747V7.17406V7.17341V7.17275V7.1721V7.17144V7.17078V7.17012V7.16946V7.1688V7.16813V7.16746V7.16679V7.16612V7.16545V7.16477V7.16409V7.16341V7.16273V7.16204V7.16136V7.16067V7.15998V7.15929V7.1586V7.1579V7.1572V7.1565V7.1558V7.1551V7.1544V7.15369V7.15298V7.15227V7.15156V7.15085V7.15014V7.14942V7.1487V7.14798V7.14726V7.14654V7.14582V7.14509V7.14436V7.14363V7.1429V7.14217V7.14144V7.14071V7.13997V7.13923V7.13849V7.13775V7.13701V7.13627V7.13552V7.13478V7.13403V7.13328V7.13253V7.13178V7.13102V7.13027V7.12952V7.12876V7.128V7.12724V7.12648V7.12572V7.12496V7.12419V7.12343V7.12266V7.1219V7.12113V7.12036V7.11959V7.11882V7.11804V7.11727V7.11649V7.11572V7.11494V7.11416V7.11339V7.11261V7.11182V7.11104V7.11026V7.10948V7.10869V7.10791V7.10712V7.10633V7.10555V7.10476V7.10397V7.10318V7.10239V7.10159V7.1008V7.10001V7.09921V7.09842V7.09762V7.09683V7.09603V7.09523V7.09444V7.09364V7.09284V7.09204V7.09124V7.09044V7.08963V7.08883V7.08803V7.08722V7.08642V7.08562V7.08481V7.08401V7.0832V7.08239V7.08159V7.08078V7.07997V7.07917V7.07836V7.07755V7.07674V7.07593V7.07512V7.07431V7.0735V7.07269V7.07188V7.07107V7.07026V7.06945V7.06864V7.06782V7.06701V7.0662V7.06539V7.06458V7.06376V7.06295V7.06214V7.06133V7.06051V7.0597V7.05889V7.05807V7.05726V7.05645V7.05564V7.05482V7.05401V7.0532V7.05238V7.05157V7.05076V7.04995V7.04914V7.04832V7.04751V7.0467V7.04589V7.04508V7.04427V7.04346V7.04265V7.04183V7.04103V7.04022V7.03941V7.0386V7.03779V7.03698V7.03617V7.03536V7.03456V7.03375V7.03294V7.03214V7.03133V7.03053V7.02972V7.02892V7.02811V7.02731V7.02651V7.02571V7.0249V7.0241V7.0233V7.0225V7.0217V7.02091V7.02011V7.01931V7.01851V7.01772V7.01692V7.01613V7.01533V7.01454V7.01375V7.01296V7.01217V7.01138V7.01059V7.0098V7.00901V7.00822V7.00744V7.00665V7.00587V7.00509V7.0043V7.00352V7.00274V7.00196V7.00118V7.00041V6.99963V6.99885V6.99808V6.99731V6.99653V6.99576V6.99499V6.99422V6.99345V6.99269V6.99192V6.99116V6.99039V6.98963V6.98887V6.98811V6.98735V6.9866V6.98584V6.98508V6.98433V6.98358V6.98283V6.98208V6.98133V6.98058V6.97984V6.97909V6.97835V6.97761V6.97687V6.97613V6.97539V6.97466V6.97392V6.97319V6.97246V6.97173V6.971V6.97027V6.96955V6.96883V6.9681V6.96738V6.96667V6.96595V6.96523V6.96452V6.96381V6.9631V6.96239V6.96168V6.96098V6.96027V6.95957V6.95887V6.95817V6.95748V6.95678V6.95609V6.9554V6.95471V6.95402V6.95334V6.95265V6.95197V6.95129V6.95061V6.94994V6.94926V6.94859V6.94792V6.94725V6.94659V6.94592V6.94526V6.9446V6.94395V6.94329V6.94264V6.94199V6.94134V6.94069V6.94004V6.9394V6.93876V6.93812V6.93749V6.93685V6.93622V6.93559V6.93497V6.93434V6.93372V6.9331V6.93248V6.93186V6.93125V6.93064C3.15 4.87776 4.91218 3.13093 6.985 3.13093C8.53803 3.13093 9.88467 4.05331 10.5077 5.38685C10.6224 5.83072 11.0689 6.04422 11.5 6.04422C11.931 6.04422 12.3776 5.83072 12.4923 5.38686C13.1153 4.05331 14.462 3.13093 16.015 3.13093C18.0878 3.13093 19.85 4.87776 19.85 6.93064V6.93125V6.93186V6.93248V6.9331V6.93372V6.93434V6.93497V6.93559V6.93622V6.93685V6.93749V6.93812V6.93876V6.9394V6.94005V6.94069V6.94134V6.94199V6.94264V6.9433V6.94395V6.94461V6.94527V6.94594V6.9466V6.94727V6.94794V6.94861V6.94928V6.94996V6.95064V6.95132V6.952V6.95268V6.95337V6.95406V6.95475V6.95544V6.95613V6.95683V6.95753V6.95823V6.95893V6.95964V6.96034V6.96105V6.96176V6.96247V6.96319V6.9639V6.96462V6.96534V6.96606V6.96679V6.96751V6.96824V6.96897V6.9697V6.97043V6.97117V6.97191V6.97264V6.97338V6.97413V6.97487V6.97562V6.97636V6.97711V6.97786V6.97862V6.97937V6.98013V6.98088V6.98164V6.9824V6.98317V6.98393V6.9847V6.98547V6.98624V6.98701V6.98778V6.98855V6.98933V6.99011V6.99089V6.99167V6.99245V6.99323V6.99402V6.99481V6.9956V6.99639V6.99718V6.99797V6.99876V6.99956V7.00036V7.00116V7.00196V7.00276V7.00356V7.00437V7.00518V7.00598V7.00679V7.0076V7.00841V7.00923V7.01004V7.01086V7.01168V7.01249V7.01331V7.01414V7.01496V7.01578V7.01661V7.01743V7.01826V7.01909V7.01992V7.02075V7.02158V7.02242V7.02325V7.02409V7.02493V7.02577V7.02661V7.02745V7.02829V7.02913V7.02998V7.03082V7.03167V7.03252V7.03337V7.03422V7.03507V7.03592V7.03678V7.03763V7.03849V7.03934V7.0402V7.04106V7.04192V7.04278V7.04364V7.0445V7.04537V7.04623V7.0471V7.04796V7.04883V7.0497V7.05057V7.05144V7.05231V7.05318V7.05406V7.05493V7.0558V7.05668V7.05756V7.05843V7.05931V7.06019V7.06107V7.06195V7.06283V7.06371V7.0646V7.06548V7.06636V7.06725V7.06814V7.06902V7.06991V7.0708V7.07169V7.07257V7.07346V7.07436V7.07525V7.07614V7.07703V7.07792V7.07882V7.07971V7.08061V7.0815V7.0824V7.0833V7.08419V7.08509V7.08599V7.08689V7.08779V7.08869V7.08959V7.09049V7.09139V7.0923V7.0932V7.0941V7.095V7.09591V7.09681V7.09772V7.09862V7.09953V7.10043V7.10134V7.10225V7.10316V7.10406V7.10497V7.10588V7.10679V7.1077V7.10861V7.10952V7.11042V7.11133V7.11225V7.11316V7.11407V7.11498V7.11589V7.1168V7.11771V7.11863V7.11954V7.12045V7.12136V7.12228V7.12319V7.1241V7.12502V7.12593V7.12684V7.12776V7.12867V7.12958V7.1305V7.13141V7.13233V7.13324V7.13415V7.13507V7.13598V7.1369V7.13781V7.13873V7.13964V7.14056V7.14147V7.14238V7.1433V7.14421V7.14513V7.14604V7.14696V7.14787V7.14878V7.1497V7.15061V7.15153V7.15244V7.15335V7.15426V7.15518V7.15609V7.157V7.15792V7.15883V7.15974V7.16065V7.16156V7.16248V7.16339V7.1643V7.16521V7.16612V7.16703V7.16794V7.16885V7.16976V7.17067V7.17158V7.17248V7.17339V7.1743V7.17521V7.17611V7.17702V7.17793V7.17883V7.17974V7.18064V7.18155V7.18245V7.18335V7.18426V7.18516V7.18606V7.18696V7.18786V7.18876V7.18966V7.19056V7.19146V7.19236V7.19326V7.19416V7.19505V7.19595V7.19685V7.19774V7.19864V7.19953V7.20042V7.20132V7.20221V7.2031V7.20399V7.20488V7.20577V7.20666V7.20755V7.20843V7.20932V7.21021V7.21109V7.21197V7.21286V7.21374V7.21462V7.2155V7.21638V7.21726V7.21814V7.21902V7.2199V7.22077V7.22165V7.22253V7.2234V7.22427V7.22514V7.22602V7.22689V7.22775V7.22862V7.22949V7.23036V7.23122V7.23209V7.23295V7.23381V7.23468V7.23554V7.2364V7.23725V7.23811V7.23897V7.23982V7.24068V7.24153V7.24238V7.24324V7.24409V7.24494V7.24578V7.24663V7.24748V7.24832V7.24916V7.25001V7.25085V7.25169V7.25253V7.25337V7.2542V7.25504V7.25587V7.2567V7.25753V7.25837V7.25919V7.26002V7.26085V7.26167V7.2625V7.26332V7.26414V7.26496V7.26578V7.2666V7.26741V7.26823V7.26904V7.26985V7.27066V7.27147V7.27228V7.27309V7.27389V7.2747V7.2755V7.2763V7.2771V7.2779V7.27869V7.27949V7.28028V7.28107V7.28186V7.28265V7.28344V7.28422V7.28501V7.28579V7.28657V7.28735V7.28813V7.2889V7.28968V7.29045V7.29122V7.29199V7.29276V7.29353V7.29429V7.29505V7.29581V7.29657V7.29733V7.29809V7.29884V7.29959V7.30035V7.3011V7.30184V7.30259V7.30333V7.30407V7.30481V7.30555V7.30629V7.30702V7.30776V7.30849V7.30922V7.30995V7.31067V7.3114V7.31212V7.31284V7.31355V7.31427V7.31499V7.3157V7.31641V7.31712V7.31782V7.31853V7.31923V7.31993V7.32063V7.32133V7.32202V7.32271V7.3234V7.32409V7.32478V7.32546V7.32614V7.32682V7.3275V7.32818V7.32885V7.32952V7.33019V7.33086V7.33152V7.33219V7.33285V7.33351V7.33416V7.33482V7.33547V7.33612V7.33677V7.33741V7.33806V7.3387V7.33934V7.33997V7.34061V7.34124V7.34187V7.3425V7.34312V7.34374V7.34436Z" fill="#EBEBF5" stroke="#EBEBF5" fill-opacity="0.7" stroke-width="0.1"/>
</svg>

