<svg width="19" height="20" viewBox="0 0 19 20" fill="none" xmlns="http://www.w3.org/2000/svg">
<path fill-rule="evenodd" clip-rule="evenodd" d="M9.14908 20C9.14606 20 9.14304 20 9.14001 20H3.44C2.24 20 1.24 19.4 0.54 18.4C-0.0600001 17.5 -0.16 16.3 0.24 15.3C1.24 12.9 3.24 11 5.54 10.1C4.24 9.10003 3.44 7.50003 3.44 5.7C3.44 2.6 6.04 3.8147e-06 9.14001 3.8147e-06C12.34 3.8147e-06 14.94 2.5 14.94 5.6C14.94 7.42468 14.0392 9.07613 12.6659 10.1261C14.9382 11.0364 16.9096 12.923 17.9 15.3C18.3 16.3 18.2 17.5 17.6 18.4C16.9 19.4 15.9 20 14.7 20H9.14908ZM8.89244 18H3.54C3.04 18 2.54 17.7 2.34 17.3C2.04 16.9 2.04 16.5 2.24 16C3.4181 13.2511 6.04195 11.3697 9.07068 11.3019C12.0988 11.3702 14.7221 13.2515 15.9 16C16.1 16.5 16.1 16.9 15.8 17.3C15.6 17.7 15.1 18 14.6 18H8.9C8.89748 18 8.89496 18 8.89244 18ZM9.14001 2C7.14 2 5.44 3.7 5.44 5.7C5.44 7.70003 7.14 9.40003 9.14001 9.40003C11.14 9.40003 12.84 7.70003 12.84 5.7C12.84 3.7 11.14 2 9.14001 2Z" fill-opacity="0.7" fill="#EBEBF5"/>
</svg>
