<svg id="svg2" width="4512.7" height="2770.5" version="1.1" viewBox="0 0 4512.7 2770.5" xml:space="preserve" xmlns="http://www.w3.org/2000/svg"><defs id="defs6"><clipPath id="clipPath18"><path id="path16" d="m0 2077.8h3384.5v-2077.8h-3384.5z"/></clipPath></defs><g id="g10" transform="matrix(1.3333 0 0 -1.3333 0 2770.5)"><g id="g12"><g id="g14" clip-path="url(#clipPath18)"><g id="g20" transform="translate(1682.9 1338)"><path id="path22" d="m0 0-128.29-599.74h-155.14l128.34 599.74zm652.74-387.24 81.658 225.18 46.996-225.18zm173.11-212.51h143.49l-125.25 599.74h-132.44c-29.783 0-54.895-17.335-66.024-44.001l-232.81-555.74h162.91l32.353 89.588h199.04zm-404.94 195.82c0.66 158.28-218.88 167.01-217.37 237.72 0.468 21.519 20.962 44.396 65.806 50.243 22.232 2.912 83.482 5.135 152.95-26.841l27.248 127.18c-37.326 13.546-85.355 26.589-145.12 26.589-153.35 0-261.27-81.524-262.18-198.25-0.99-86.341 77.031-134.52 135.81-163.21 60.469-29.384 80.755-48.26 80.529-74.544-0.433-40.234-48.229-57.995-92.899-58.689-77.977-1.198-123.23 21.102-159.3 37.873l-28.116-131.39c36.249-16.632 103.16-31.141 172.53-31.866 162.99 0 269.61 80.508 270.11 205.19m-642.59 403.93-251.37-599.74h-164l-123.7 478.62c-7.513 29.484-14.036 40.278-36.875 52.695-37.287 20.235-98.872 39.21-153.05 50.994l3.681 17.431h263.99c33.65 0 63.897-22.401 71.536-61.154l65.33-347.04 161.46 408.2z" fill="#fff"/></g></g></g></g></svg>
